%TF.GenerationSoftware,KiCad,Pcbnew,8.0.2-8.0.2-0~ubuntu20.04.1*%
%TF.CreationDate,2024-06-01T01:08:56-05:00*%
%TF.ProjectId,coral_b2b_breakout,636f7261-6c5f-4623-9262-5f627265616b,rev?*%
%TF.SameCoordinates,Original*%
%TF.FileFunction,Copper,L1,Top*%
%TF.FilePolarity,Positive*%
%FSLAX46Y46*%
G04 Gerber Fmt 4.6, Leading zero omitted, Abs format (unit mm)*
G04 Created by KiCad (PCBNEW 8.0.2-8.0.2-0~ubuntu20.04.1) date 2024-06-01 01:08:56*
%MOMM*%
%LPD*%
G01*
G04 APERTURE LIST*
%TA.AperFunction,ComponentPad*%
%ADD10O,1.700000X1.700000*%
%TD*%
%TA.AperFunction,ComponentPad*%
%ADD11R,1.700000X1.700000*%
%TD*%
%TA.AperFunction,SMDPad,CuDef*%
%ADD12C,2.500000*%
%TD*%
%TA.AperFunction,SMDPad,CuDef*%
%ADD13R,0.200000X0.700000*%
%TD*%
%TA.AperFunction,SMDPad,CuDef*%
%ADD14R,0.700000X0.200000*%
%TD*%
%TA.AperFunction,ViaPad*%
%ADD15C,0.800000*%
%TD*%
%TA.AperFunction,Conductor*%
%ADD16C,0.152400*%
%TD*%
%TA.AperFunction,Conductor*%
%ADD17C,0.508000*%
%TD*%
G04 APERTURE END LIST*
D10*
%TO.P,J2,10,Pin_10*%
%TO.N,/Board To Board Conn 1/GPIO_SNVS_06*%
X164460000Y-98500000D03*
%TO.P,J2,9,Pin_9*%
%TO.N,unconnected-(J2-Pin_9-Pad9)*%
X161920000Y-98500000D03*
%TO.P,J2,8,Pin_8*%
%TO.N,GND*%
X159380000Y-98500000D03*
%TO.P,J2,7,Pin_7*%
%TO.N,unconnected-(J2-Pin_7-Pad7)*%
X156840000Y-98500000D03*
%TO.P,J2,6,Pin_6*%
%TO.N,/Board To Board Conn 1/I2C6_SDA*%
X154300000Y-98500000D03*
%TO.P,J2,5,Pin_5*%
%TO.N,/Board To Board Conn 1/GPIO_SNVS_04*%
X151760000Y-98500000D03*
%TO.P,J2,4,Pin_4*%
%TO.N,/Board To Board Conn 1/GPIO_SNVS_08*%
X149220000Y-98500000D03*
%TO.P,J2,3,Pin_3*%
%TO.N,/Board To Board Conn 1/I2C1_SDA*%
X146680000Y-98500000D03*
%TO.P,J2,2,Pin_2*%
%TO.N,/Board To Board Conn 1/I2C6_SCL*%
X144140000Y-98500000D03*
D11*
%TO.P,J2,1,Pin_1*%
%TO.N,/Board To Board Conn 1/I2C1_SCL*%
X141600000Y-98500000D03*
%TD*%
D12*
%TO.P,TP7,1,1*%
%TO.N,/Board To Board Conn 1/I2C1_SCL*%
X141200000Y-94200000D03*
%TD*%
%TO.P,TP6,1,1*%
%TO.N,/Board To Board Conn 1/I2C1_SDA*%
X139575000Y-89325000D03*
%TD*%
%TO.P,TP5,1,1*%
%TO.N,GND*%
X170650000Y-68400000D03*
%TD*%
%TO.P,TP4,1,1*%
%TO.N,GND*%
X133850000Y-100500000D03*
%TD*%
%TO.P,TP1,1,1*%
%TO.N,/Board To Board Conn 1/FLEXPWM1_PWM1_A*%
X138625000Y-69550000D03*
%TD*%
D10*
%TO.P,J1,10,Pin_10*%
%TO.N,/Board To Board Conn 1/FLEXPWM1_PWM1_A*%
X142715000Y-67050000D03*
%TO.P,J1,9,Pin_9*%
%TO.N,/Board To Board Conn 1/FLEXPWM2_PWM1_A*%
X145255000Y-67050000D03*
%TO.P,J1,8,Pin_8*%
%TO.N,/Board To Board Conn 1/FLEXPWM2_PWM1_B*%
X147795000Y-67050000D03*
%TO.P,J1,7,Pin_7*%
%TO.N,/Board To Board Conn 2/+3.3VDC*%
X150335000Y-67050000D03*
%TO.P,J1,6,Pin_6*%
%TO.N,/Board To Board Conn 2/LPSPI1_SCK*%
X152875000Y-67050000D03*
%TO.P,J1,5,Pin_5*%
%TO.N,/Board To Board Conn 2/LPSPI1_PCS0*%
X155415000Y-67050000D03*
%TO.P,J1,4,Pin_4*%
%TO.N,/Board To Board Conn 2/LPSPI1_SDO*%
X157955000Y-67050000D03*
%TO.P,J1,3,Pin_3*%
%TO.N,/Board To Board Conn 2/+1.8VDC*%
X160495000Y-67050000D03*
%TO.P,J1,2,Pin_2*%
%TO.N,/Board To Board Conn 2/LPSPI1_SDI*%
X163035000Y-67050000D03*
D11*
%TO.P,J1,1,Pin_1*%
%TO.N,GND*%
X165575000Y-67050000D03*
%TD*%
D13*
%TO.P,J6,1,1*%
%TO.N,unconnected-(J6-Pad1)*%
X152580000Y-73230000D03*
%TO.P,J6,2,2*%
%TO.N,unconnected-(J6-Pad2)*%
X152580000Y-76310000D03*
%TO.P,J6,3,3*%
%TO.N,unconnected-(J6-Pad3)*%
X152980000Y-73230000D03*
%TO.P,J6,4,4*%
%TO.N,unconnected-(J6-Pad4)*%
X152980000Y-76310000D03*
%TO.P,J6,5,5*%
%TO.N,unconnected-(J6-Pad5)*%
X153380000Y-73230000D03*
%TO.P,J6,6,6*%
%TO.N,unconnected-(J6-Pad6)*%
X153380000Y-76310000D03*
%TO.P,J6,7,7*%
%TO.N,GND*%
X153780000Y-73230000D03*
%TO.P,J6,8,8*%
%TO.N,unconnected-(J6-Pad8)*%
X153780000Y-76310000D03*
%TO.P,J6,9,9*%
%TO.N,GND*%
X154180000Y-73230000D03*
%TO.P,J6,10,10*%
%TO.N,unconnected-(J6-Pad10)*%
X154180000Y-76310000D03*
%TO.P,J6,11,11*%
%TO.N,GND*%
X154580000Y-73230000D03*
%TO.P,J6,12,12*%
%TO.N,unconnected-(J6-Pad12)*%
X154580000Y-76310000D03*
%TO.P,J6,13,13*%
%TO.N,unconnected-(J6-Pad13)*%
X154980000Y-73230000D03*
%TO.P,J6,14,14*%
%TO.N,unconnected-(J6-Pad14)*%
X154980000Y-76310000D03*
%TO.P,J6,15,15*%
%TO.N,GND*%
X155380000Y-73230000D03*
%TO.P,J6,16,16*%
%TO.N,unconnected-(J6-Pad16)*%
X155380000Y-76310000D03*
%TO.P,J6,17,17*%
%TO.N,GND*%
X155780000Y-73230000D03*
%TO.P,J6,18,18*%
%TO.N,unconnected-(J6-Pad18)*%
X155780000Y-76310000D03*
%TO.P,J6,19,19*%
%TO.N,unconnected-(J6-Pad19)*%
X156180000Y-73230000D03*
%TO.P,J6,20,20*%
%TO.N,unconnected-(J6-Pad20)*%
X156180000Y-76310000D03*
%TO.P,J6,21,21*%
%TO.N,unconnected-(J6-Pad21)*%
X156580000Y-73230000D03*
%TO.P,J6,22,22*%
%TO.N,unconnected-(J6-Pad22)*%
X156580000Y-76310000D03*
%TO.P,J6,23,23*%
%TO.N,unconnected-(J6-Pad23)*%
X156980000Y-73230000D03*
%TO.P,J6,24,24*%
%TO.N,unconnected-(J6-Pad24)*%
X156980000Y-76310000D03*
%TO.P,J6,25,25*%
%TO.N,unconnected-(J6-Pad25)*%
X157380000Y-73230000D03*
%TO.P,J6,26,26*%
%TO.N,unconnected-(J6-Pad26)*%
X157380000Y-76310000D03*
%TO.P,J6,27,27*%
%TO.N,unconnected-(J6-Pad27)*%
X157780000Y-73230000D03*
%TO.P,J6,28,28*%
%TO.N,/Board To Board Conn 2/+1.8VDC*%
X157780000Y-76310000D03*
%TO.P,J6,29,29*%
%TO.N,unconnected-(J6-Pad29)*%
X158180000Y-73230000D03*
%TO.P,J6,30,30*%
%TO.N,/Board To Board Conn 2/+1.8VDC*%
X158180000Y-76310000D03*
%TO.P,J6,31,31*%
%TO.N,unconnected-(J6-Pad31)*%
X158580000Y-73230000D03*
%TO.P,J6,32,32*%
%TO.N,/Board To Board Conn 2/+1.8VDC*%
X158580000Y-76310000D03*
%TO.P,J6,33,33*%
%TO.N,/Board To Board Conn 2/+3.3VDC*%
X158980000Y-73230000D03*
%TO.P,J6,34,34*%
%TO.N,/Board To Board Conn 2/+1.8VDC*%
X158980000Y-76310000D03*
%TO.P,J6,35,35*%
%TO.N,/Board To Board Conn 2/+3.3VDC*%
X159380000Y-73230000D03*
%TO.P,J6,36,36*%
%TO.N,/Board To Board Conn 2/+1.8VDC*%
X159380000Y-76310000D03*
%TO.P,J6,37,37*%
%TO.N,/Board To Board Conn 2/+3.3VDC*%
X159780000Y-73230000D03*
%TO.P,J6,38,38*%
%TO.N,GND*%
X159780000Y-76310000D03*
%TO.P,J6,39,39*%
%TO.N,/Board To Board Conn 2/+3.3VDC*%
X160180000Y-73230000D03*
%TO.P,J6,40,40*%
%TO.N,unconnected-(J6-Pad40)*%
X160180000Y-76310000D03*
%TO.P,J6,41,41*%
%TO.N,/Board To Board Conn 2/+3.3VDC*%
X160580000Y-73230000D03*
%TO.P,J6,42,42*%
%TO.N,unconnected-(J6-Pad42)*%
X160580000Y-76310000D03*
%TO.P,J6,43,43*%
%TO.N,GND*%
X160980000Y-73230000D03*
%TO.P,J6,44,44*%
%TO.N,unconnected-(J6-Pad44)*%
X160980000Y-76310000D03*
%TO.P,J6,45,45*%
%TO.N,unconnected-(J6-Pad45)*%
X161380000Y-73230000D03*
%TO.P,J6,46,46*%
%TO.N,unconnected-(J6-Pad46)*%
X161380000Y-76310000D03*
%TO.P,J6,47,47*%
%TO.N,unconnected-(J6-Pad47)*%
X161780000Y-73230000D03*
%TO.P,J6,48,48*%
%TO.N,GND*%
X161780000Y-76310000D03*
%TO.P,J6,49,49*%
X162180000Y-73230000D03*
%TO.P,J6,50,50*%
%TO.N,unconnected-(J6-Pad50)*%
X162180000Y-76310000D03*
%TO.P,J6,51,51*%
%TO.N,GND*%
X162580000Y-73230000D03*
%TO.P,J6,52,52*%
%TO.N,unconnected-(J6-Pad52)*%
X162580000Y-76310000D03*
%TO.P,J6,53,53*%
%TO.N,GND*%
X162980000Y-73230000D03*
%TO.P,J6,54,54*%
%TO.N,unconnected-(J6-Pad54)*%
X162980000Y-76310000D03*
%TO.P,J6,55,55*%
%TO.N,unconnected-(J6-Pad55)*%
X163380000Y-73230000D03*
%TO.P,J6,56,56*%
%TO.N,unconnected-(J6-Pad56)*%
X163380000Y-76310000D03*
%TO.P,J6,57,57*%
%TO.N,unconnected-(J6-Pad57)*%
X163780000Y-73230000D03*
%TO.P,J6,58,58*%
%TO.N,unconnected-(J6-Pad58)*%
X163780000Y-76310000D03*
%TO.P,J6,59,59*%
%TO.N,unconnected-(J6-Pad59)*%
X164180000Y-73230000D03*
%TO.P,J6,60,60*%
%TO.N,unconnected-(J6-Pad60)*%
X164180000Y-76310000D03*
%TO.P,J6,61,61*%
%TO.N,unconnected-(J6-Pad61)*%
X164580000Y-73230000D03*
%TO.P,J6,62,62*%
%TO.N,unconnected-(J6-Pad62)*%
X164580000Y-76310000D03*
%TO.P,J6,63,63*%
%TO.N,unconnected-(J6-Pad63)*%
X164980000Y-73230000D03*
%TO.P,J6,64,64*%
%TO.N,GND*%
X164980000Y-76310000D03*
%TO.P,J6,65,65*%
%TO.N,unconnected-(J6-Pad65)*%
X165380000Y-73230000D03*
%TO.P,J6,66,66*%
%TO.N,unconnected-(J6-Pad66)*%
X165380000Y-76310000D03*
%TO.P,J6,67,67*%
%TO.N,GND*%
X165780000Y-73230000D03*
%TO.P,J6,68,68*%
%TO.N,unconnected-(J6-Pad68)*%
X165780000Y-76310000D03*
%TO.P,J6,69,69*%
%TO.N,/Board To Board Conn 2/LPSPI1_SCK*%
X166180000Y-73230000D03*
%TO.P,J6,70,70*%
%TO.N,unconnected-(J6-Pad70)*%
X166180000Y-76310000D03*
%TO.P,J6,71,71*%
%TO.N,/Board To Board Conn 2/LPSPI1_PCS0*%
X166580000Y-73230000D03*
%TO.P,J6,72,72*%
%TO.N,unconnected-(J6-Pad72)*%
X166580000Y-76310000D03*
%TO.P,J6,73,73*%
%TO.N,/Board To Board Conn 2/LPSPI1_SDO*%
X166980000Y-73230000D03*
%TO.P,J6,74,74*%
%TO.N,GND*%
X166980000Y-76310000D03*
%TO.P,J6,75,75*%
%TO.N,/Board To Board Conn 2/LPSPI1_SDI*%
X167380000Y-73230000D03*
%TO.P,J6,76,76*%
%TO.N,unconnected-(J6-Pad76)*%
X167380000Y-76310000D03*
%TO.P,J6,77,77*%
%TO.N,GND*%
X167780000Y-73230000D03*
%TO.P,J6,78,78*%
%TO.N,unconnected-(J6-Pad78)*%
X167780000Y-76310000D03*
%TO.P,J6,79,79*%
%TO.N,unconnected-(J6-Pad79)*%
X168180000Y-73230000D03*
%TO.P,J6,80,80*%
%TO.N,GND*%
X168180000Y-76310000D03*
%TO.P,J6,81,81*%
%TO.N,unconnected-(J6-Pad81)*%
X168580000Y-73230000D03*
%TO.P,J6,82,82*%
%TO.N,GND*%
X168580000Y-76310000D03*
%TO.P,J6,83,83*%
X168980000Y-73230000D03*
%TO.P,J6,84,84*%
X168980000Y-76310000D03*
%TO.P,J6,85,85*%
%TO.N,unconnected-(J6-Pad85)*%
X169380000Y-73230000D03*
%TO.P,J6,86,86*%
%TO.N,unconnected-(J6-Pad86)*%
X169380000Y-76310000D03*
%TO.P,J6,87,87*%
%TO.N,unconnected-(J6-Pad87)*%
X169780000Y-73230000D03*
%TO.P,J6,88,88*%
%TO.N,unconnected-(J6-Pad88)*%
X169780000Y-76310000D03*
%TO.P,J6,89,89*%
%TO.N,GND*%
X170180000Y-73230000D03*
%TO.P,J6,90,90*%
X170180000Y-76310000D03*
%TO.P,J6,91,91*%
%TO.N,unconnected-(J6-Pad91)*%
X170580000Y-73230000D03*
%TO.P,J6,92,92*%
%TO.N,unconnected-(J6-Pad92)*%
X170580000Y-76310000D03*
%TO.P,J6,93,93*%
%TO.N,unconnected-(J6-Pad93)*%
X170980000Y-73230000D03*
%TO.P,J6,94,94*%
%TO.N,unconnected-(J6-Pad94)*%
X170980000Y-76310000D03*
%TO.P,J6,95,95*%
%TO.N,GND*%
X171380000Y-73230000D03*
%TO.P,J6,96,96*%
X171380000Y-76310000D03*
%TO.P,J6,97,97*%
X171780000Y-73230000D03*
%TO.P,J6,98,98*%
%TO.N,unconnected-(J6-Pad98)*%
X171780000Y-76310000D03*
%TO.P,J6,99,99*%
%TO.N,GND*%
X172180000Y-73230000D03*
%TO.P,J6,100,100*%
%TO.N,unconnected-(J6-Pad100)*%
X172180000Y-76310000D03*
%TD*%
D14*
%TO.P,J4,1,1*%
%TO.N,/Board To Board Conn 1/FLEXPWM2_PWM1_B*%
X132830000Y-93580000D03*
%TO.P,J4,2,2*%
%TO.N,unconnected-(J4-Pad2)*%
X135910000Y-93580000D03*
%TO.P,J4,3,3*%
%TO.N,/Board To Board Conn 1/FLEXPWM2_PWM1_A*%
X132830000Y-93180000D03*
%TO.P,J4,4,4*%
%TO.N,GND*%
X135910000Y-93180000D03*
%TO.P,J4,5,5*%
%TO.N,/Board To Board Conn 1/FLEXPWM1_PWM1_B*%
X132830000Y-92780000D03*
%TO.P,J4,6,6*%
%TO.N,/Board To Board Conn 1/ADC1_CH2B*%
X135910000Y-92780000D03*
%TO.P,J4,7,7*%
%TO.N,unconnected-(J4-Pad7)*%
X132830000Y-92380000D03*
%TO.P,J4,8,8*%
%TO.N,GND*%
X135910000Y-92380000D03*
%TO.P,J4,9,9*%
%TO.N,unconnected-(J4-Pad9)*%
X132830000Y-91980000D03*
%TO.P,J4,10,10*%
%TO.N,/Board To Board Conn 1/ADC1_CH0A*%
X135910000Y-91980000D03*
%TO.P,J4,11,11*%
%TO.N,/Board To Board Conn 1/FLEXPWM1_PWM1_A*%
X132830000Y-91580000D03*
%TO.P,J4,12,12*%
%TO.N,GND*%
X135910000Y-91580000D03*
%TO.P,J4,13,13*%
X132830000Y-91180000D03*
%TO.P,J4,14,14*%
%TO.N,/Board To Board Conn 1/ADC1_CH0B*%
X135910000Y-91180000D03*
%TO.P,J4,15,15*%
%TO.N,/Board To Board Conn 1/I2C5_SDA*%
X132830000Y-90780000D03*
%TO.P,J4,16,16*%
%TO.N,GND*%
X135910000Y-90780000D03*
%TO.P,J4,17,17*%
%TO.N,/Board To Board Conn 1/I2C5_SCL*%
X132830000Y-90380000D03*
%TO.P,J4,18,18*%
%TO.N,GND*%
X135910000Y-90380000D03*
%TO.P,J4,19,19*%
X132830000Y-89980000D03*
%TO.P,J4,20,20*%
X135910000Y-89980000D03*
%TO.P,J4,21,21*%
X132830000Y-89580000D03*
%TO.P,J4,22,22*%
%TO.N,unconnected-(J4-Pad22)*%
X135910000Y-89580000D03*
%TO.P,J4,23,23*%
%TO.N,GND*%
X132830000Y-89180000D03*
%TO.P,J4,24,24*%
%TO.N,unconnected-(J4-Pad24)*%
X135910000Y-89180000D03*
%TO.P,J4,25,25*%
%TO.N,/Board To Board Conn 1/USER_LED*%
X132830000Y-88780000D03*
%TO.P,J4,26,26*%
%TO.N,GND*%
X135910000Y-88780000D03*
%TO.P,J4,27,27*%
%TO.N,/Board To Board Conn 1/WIFI_POWER_EN*%
X132830000Y-88380000D03*
%TO.P,J4,28,28*%
%TO.N,GND*%
X135910000Y-88380000D03*
%TO.P,J4,29,29*%
%TO.N,/Board To Board Conn 1/PMIC_ON_REQ*%
X132830000Y-87980000D03*
%TO.P,J4,30,30*%
%TO.N,/Board To Board Conn 1/ONOFF*%
X135910000Y-87980000D03*
%TO.P,J4,31,31*%
%TO.N,/Board To Board Conn 1/USER_BUTTON*%
X132830000Y-87580000D03*
%TO.P,J4,32,32*%
%TO.N,/Board To Board Conn 1/PMIC_STBY_REQ*%
X135910000Y-87580000D03*
%TO.P,J4,33,33*%
%TO.N,/Board To Board Conn 1/CAMERA_INT*%
X132830000Y-87180000D03*
%TO.P,J4,34,34*%
%TO.N,/Board To Board Conn 1/GPIO_SNVS_07*%
X135910000Y-87180000D03*
%TO.P,J4,35,35*%
%TO.N,/Board To Board Conn 1/I2C6_SCL*%
X132830000Y-86780000D03*
%TO.P,J4,36,36*%
%TO.N,/Board To Board Conn 1/WAKEUP*%
X135910000Y-86780000D03*
%TO.P,J4,37,37*%
%TO.N,GND*%
X132830000Y-86380000D03*
%TO.P,J4,38,38*%
X135910000Y-86380000D03*
%TO.P,J4,39,39*%
%TO.N,/Board To Board Conn 1/DMIC_DATA3__JTAG_TMS*%
X132830000Y-85980000D03*
%TO.P,J4,40,40*%
%TO.N,/Board To Board Conn 1/SAI2_TX_SYNC*%
X135910000Y-85980000D03*
%TO.P,J4,41,41*%
%TO.N,/Board To Board Conn 1/DMIC_DATA2__JTAG_TCK*%
X132830000Y-85580000D03*
%TO.P,J4,42,42*%
%TO.N,/Board To Board Conn 1/SAI2_RX_BCLK*%
X135910000Y-85580000D03*
%TO.P,J4,43,43*%
%TO.N,/Board To Board Conn 1/DMIC_DATA1*%
X132830000Y-85180000D03*
%TO.P,J4,44,44*%
%TO.N,/Board To Board Conn 1/SPI6_SDI__JTAG_TDI*%
X135910000Y-85180000D03*
%TO.P,J4,45,45*%
%TO.N,/Board To Board Conn 1/DMIC_DATA0*%
X132830000Y-84780000D03*
%TO.P,J4,46,46*%
%TO.N,/Board To Board Conn 1/SPI6_SDO__JTAG_TDO*%
X135910000Y-84780000D03*
%TO.P,J4,47,47*%
%TO.N,/Board To Board Conn 1/LPUART6_RTS_B*%
X132830000Y-84380000D03*
%TO.P,J4,48,48*%
%TO.N,/Board To Board Conn 1/SPI6_SCK__JTAG_nTRST*%
X135910000Y-84380000D03*
%TO.P,J4,49,49*%
%TO.N,GND*%
X132830000Y-83980000D03*
%TO.P,J4,50,50*%
%TO.N,/Board To Board Conn 1/LPSPI6_CS0*%
X135910000Y-83980000D03*
%TO.P,J4,51,51*%
%TO.N,/Board To Board Conn 1/I2C1_SCL*%
X132830000Y-83580000D03*
%TO.P,J4,52,52*%
%TO.N,/Board To Board Conn 1/I2C1_SDA*%
X135910000Y-83580000D03*
%TO.P,J4,53,53*%
%TO.N,/Board To Board Conn 1/SAI2_TX_DATA*%
X132830000Y-83180000D03*
%TO.P,J4,54,54*%
%TO.N,GND*%
X135910000Y-83180000D03*
%TO.P,J4,55,55*%
%TO.N,/Board To Board Conn 1/DA_GPIO0_WDOG_KICK*%
X132830000Y-82780000D03*
%TO.P,J4,56,56*%
%TO.N,/Board To Board Conn 1/GPIO_SNVS_08*%
X135910000Y-82780000D03*
%TO.P,J4,57,57*%
%TO.N,GND*%
X132830000Y-82380000D03*
%TO.P,J4,58,58*%
%TO.N,/Board To Board Conn 1/GPIO_SNVS_04*%
X135910000Y-82380000D03*
%TO.P,J4,59,59*%
%TO.N,/Board To Board Conn 1/DA_nRESET*%
X132830000Y-81980000D03*
%TO.P,J4,60,60*%
%TO.N,/Board To Board Conn 1/POR_B*%
X135910000Y-81980000D03*
%TO.P,J4,61,61*%
%TO.N,/Board To Board Conn 1/DA_nIRQ*%
X132830000Y-81580000D03*
%TO.P,J4,62,62*%
%TO.N,/Board To Board Conn 1/SAI2_RX_SYNC*%
X135910000Y-81580000D03*
%TO.P,J4,63,63*%
%TO.N,/Board To Board Conn 1/DA_GPIO2*%
X132830000Y-81180000D03*
%TO.P,J4,64,64*%
%TO.N,/Board To Board Conn 1/SAI2_TX_BCLK*%
X135910000Y-81180000D03*
%TO.P,J4,65,65*%
%TO.N,/Board To Board Conn 1/DA_GPIO3*%
X132830000Y-80780000D03*
%TO.P,J4,66,66*%
%TO.N,/Board To Board Conn 1/SAI2_MCLK*%
X135910000Y-80780000D03*
%TO.P,J4,67,67*%
%TO.N,/Board To Board Conn 1/DA_GPIO4_SYS_EN*%
X132830000Y-80380000D03*
%TO.P,J4,68,68*%
%TO.N,/Board To Board Conn 1/SAI2_RX_DATA*%
X135910000Y-80380000D03*
%TO.P,J4,69,69*%
%TO.N,GND*%
X132830000Y-79980000D03*
%TO.P,J4,70,70*%
X135910000Y-79980000D03*
%TO.P,J4,71,71*%
%TO.N,/Board To Board Conn 1/USDHC2_DATA3*%
X132830000Y-79580000D03*
%TO.P,J4,72,72*%
%TO.N,/Board To Board Conn 1/I2C6_SDA*%
X135910000Y-79580000D03*
%TO.P,J4,73,73*%
%TO.N,/Board To Board Conn 1/USDHC2_DATA1*%
X132830000Y-79180000D03*
%TO.P,J4,74,74*%
%TO.N,/Board To Board Conn 1/DA_nRESETREQ*%
X135910000Y-79180000D03*
%TO.P,J4,75,75*%
%TO.N,/Board To Board Conn 1/USDHC2_DATA2*%
X132830000Y-78780000D03*
%TO.P,J4,76,76*%
%TO.N,GND*%
X135910000Y-78780000D03*
%TO.P,J4,77,77*%
%TO.N,/Board To Board Conn 1/USDHC2_DATA0*%
X132830000Y-78380000D03*
%TO.P,J4,78,78*%
%TO.N,/Board To Board Conn 1/GPIO_SNVS_06*%
X135910000Y-78380000D03*
%TO.P,J4,79,79*%
%TO.N,/Board To Board Conn 1/USDHC2_CLK*%
X132830000Y-77980000D03*
%TO.P,J4,80,80*%
%TO.N,/Board To Board Conn 1/BRD_STAT_LED*%
X135910000Y-77980000D03*
%TO.P,J4,81,81*%
%TO.N,/Board To Board Conn 1/USDHC2_CMD*%
X132830000Y-77580000D03*
%TO.P,J4,82,82*%
%TO.N,/Board To Board Conn 1/LPUART8_RXD*%
X135910000Y-77580000D03*
%TO.P,J4,83,83*%
%TO.N,unconnected-(J4-Pad83)*%
X132830000Y-77180000D03*
%TO.P,J4,84,84*%
%TO.N,GND*%
X135910000Y-77180000D03*
%TO.P,J4,85,85*%
%TO.N,/Board To Board Conn 1/WIFI_SDIO_D2*%
X132830000Y-76780000D03*
%TO.P,J4,86,86*%
%TO.N,/Board To Board Conn 1/WL_HOST_WAKE*%
X135910000Y-76780000D03*
%TO.P,J4,87,87*%
%TO.N,/Board To Board Conn 1/BT_REG_ON*%
X132830000Y-76380000D03*
%TO.P,J4,88,88*%
%TO.N,/Board To Board Conn 1/WL_ANT_SEL*%
X135910000Y-76380000D03*
%TO.P,J4,89,89*%
%TO.N,/Board To Board Conn 1/LPUART1_TXD*%
X132830000Y-75980000D03*
%TO.P,J4,90,90*%
%TO.N,GND*%
X135910000Y-75980000D03*
%TO.P,J4,91,91*%
%TO.N,/Board To Board Conn 1/LPUART1_RXD*%
X132830000Y-75580000D03*
%TO.P,J4,92,92*%
%TO.N,/Board To Board Conn 1/WIFI_SDIO_CLK*%
X135910000Y-75580000D03*
%TO.P,J4,93,93*%
%TO.N,/Board To Board Conn 1/WL_REG_ON*%
X132830000Y-75180000D03*
%TO.P,J4,94,94*%
%TO.N,/Board To Board Conn 1/WIFI_SDIO_D1*%
X135910000Y-75180000D03*
%TO.P,J4,95,95*%
%TO.N,/Board To Board Conn 1/DAC_OUT*%
X132830000Y-74780000D03*
%TO.P,J4,96,96*%
%TO.N,/Board To Board Conn 1/WIFI_SDIO_D0*%
X135910000Y-74780000D03*
%TO.P,J4,97,97*%
%TO.N,/Board To Board Conn 1/MIC_CLK*%
X132830000Y-74380000D03*
%TO.P,J4,98,98*%
%TO.N,/Board To Board Conn 1/WIFI_SDIO_D3*%
X135910000Y-74380000D03*
%TO.P,J4,99,99*%
%TO.N,GND*%
X132830000Y-73980000D03*
%TO.P,J4,100,100*%
%TO.N,/Board To Board Conn 1/WIFI_SDIO_CMD*%
X135910000Y-73980000D03*
%TD*%
D15*
%TO.N,GND*%
X137950000Y-98750000D03*
X138325000Y-86550000D03*
X169350000Y-84975000D03*
X161325000Y-85025000D03*
X161350000Y-86475000D03*
X167650000Y-84975000D03*
X163025000Y-85025000D03*
X164650000Y-86475000D03*
X159900000Y-86475000D03*
X163050000Y-86475000D03*
X159875000Y-85025000D03*
X169375000Y-86425000D03*
X166200000Y-84975000D03*
X170950000Y-84975000D03*
X170975000Y-86425000D03*
X164625000Y-85025000D03*
X167675000Y-86425000D03*
X166225000Y-86425000D03*
X169400000Y-83450000D03*
X161375000Y-83500000D03*
X167700000Y-83450000D03*
X163075000Y-83500000D03*
X159925000Y-83500000D03*
X166250000Y-83450000D03*
X171000000Y-83450000D03*
X164675000Y-83500000D03*
X167675000Y-82000000D03*
X169375000Y-82000000D03*
X166225000Y-82000000D03*
X170975000Y-82000000D03*
X164650000Y-82050000D03*
X163050000Y-82050000D03*
X161350000Y-82050000D03*
X159900000Y-82050000D03*
%TD*%
D16*
%TO.N,/Board To Board Conn 1/I2C1_SCL*%
X137950000Y-97450000D02*
X134950000Y-94450000D01*
X134950000Y-94450000D02*
X134950000Y-83610000D01*
X134950000Y-83610000D02*
X134980000Y-83580000D01*
X134980000Y-83580000D02*
X132830000Y-83580000D01*
%TO.N,/Board To Board Conn 1/I2C1_SDA*%
X141731250Y-87593750D02*
X137741300Y-83603800D01*
X146650000Y-92512500D02*
X141731250Y-87593750D01*
X141731250Y-87593750D02*
X141306250Y-87593750D01*
X141306250Y-87593750D02*
X139575000Y-89325000D01*
%TO.N,/Board To Board Conn 1/I2C1_SCL*%
X141200000Y-94200000D02*
X141200000Y-94700000D01*
X141200000Y-94700000D02*
X138550000Y-97350000D01*
X138550000Y-97350000D02*
X138000000Y-97350000D01*
X138000000Y-97350000D02*
X138000000Y-97400000D01*
X138000000Y-97400000D02*
X137950000Y-97450000D01*
X139000000Y-98500000D02*
X137950000Y-97450000D01*
%TO.N,/Board To Board Conn 1/FLEXPWM1_PWM1_A*%
X137505000Y-66170000D02*
X136862500Y-66812500D01*
X136862500Y-67787500D02*
X136862500Y-66812500D01*
X136862500Y-66812500D02*
X131900000Y-71775000D01*
X138625000Y-69550000D02*
X136862500Y-67787500D01*
%TO.N,GND*%
X161025000Y-74675000D02*
X159750000Y-74675000D01*
X159750000Y-74675000D02*
X155750000Y-74675000D01*
X159780000Y-76310000D02*
X159780000Y-74705000D01*
X159780000Y-74705000D02*
X159750000Y-74675000D01*
X162250000Y-74675000D02*
X161775000Y-74675000D01*
X161775000Y-74675000D02*
X161025000Y-74675000D01*
X161780000Y-76310000D02*
X161780000Y-75670000D01*
X161780000Y-75670000D02*
X161775000Y-75665000D01*
X161775000Y-75665000D02*
X161775000Y-74675000D01*
X165825000Y-74675000D02*
X164950000Y-74675000D01*
X164950000Y-74675000D02*
X162925000Y-74675000D01*
X164980000Y-76310000D02*
X164980000Y-74705000D01*
X164980000Y-74705000D02*
X164950000Y-74675000D01*
X167875000Y-74675000D02*
X167000000Y-74675000D01*
X167000000Y-74675000D02*
X165825000Y-74675000D01*
X166980000Y-76310000D02*
X166980000Y-74695000D01*
X166980000Y-74695000D02*
X167000000Y-74675000D01*
X168550000Y-74675000D02*
X168225000Y-74675000D01*
X168225000Y-74675000D02*
X167875000Y-74675000D01*
X168180000Y-76310000D02*
X168180000Y-74720000D01*
X168180000Y-74720000D02*
X168225000Y-74675000D01*
X169000000Y-74675000D02*
X168550000Y-74675000D01*
X168580000Y-76310000D02*
X168580000Y-74705000D01*
X168580000Y-74705000D02*
X168550000Y-74675000D01*
X168980000Y-76310000D02*
X168980000Y-74695000D01*
X168980000Y-74695000D02*
X169000000Y-74675000D01*
X170180000Y-76310000D02*
X170180000Y-74645000D01*
X171380000Y-76310000D02*
X171380000Y-74695000D01*
X171380000Y-74695000D02*
X171400000Y-74675000D01*
X172025000Y-74675000D02*
X171700000Y-74675000D01*
X171700000Y-74675000D02*
X171400000Y-74675000D01*
X171780000Y-73230000D02*
X171780000Y-74595000D01*
X171780000Y-74595000D02*
X171700000Y-74675000D01*
X171400000Y-74675000D02*
X170150000Y-74675000D01*
X171380000Y-73230000D02*
X171380000Y-74655000D01*
X171380000Y-74655000D02*
X171400000Y-74675000D01*
X170150000Y-74675000D02*
X169000000Y-74675000D01*
X170180000Y-73230000D02*
X170180000Y-74645000D01*
X170180000Y-74645000D02*
X170150000Y-74675000D01*
X168980000Y-74655000D02*
X169000000Y-74675000D01*
X168980000Y-73230000D02*
X168980000Y-74655000D01*
X167780000Y-73230000D02*
X167780000Y-74580000D01*
X167780000Y-74580000D02*
X167875000Y-74675000D01*
X165780000Y-73230000D02*
X165780000Y-74630000D01*
X165780000Y-74630000D02*
X165825000Y-74675000D01*
X162925000Y-74675000D02*
X162575000Y-74675000D01*
X162980000Y-73230000D02*
X162980000Y-74620000D01*
X162980000Y-74620000D02*
X162925000Y-74675000D01*
X162575000Y-74675000D02*
X162250000Y-74675000D01*
X162580000Y-73230000D02*
X162580000Y-74670000D01*
X162580000Y-74670000D02*
X162575000Y-74675000D01*
X162180000Y-73230000D02*
X162180000Y-74605000D01*
X162180000Y-74605000D02*
X162250000Y-74675000D01*
X160980000Y-73230000D02*
X160980000Y-74630000D01*
X160980000Y-74630000D02*
X161025000Y-74675000D01*
X155750000Y-74675000D02*
X155300000Y-74675000D01*
X155780000Y-73230000D02*
X155780000Y-74645000D01*
X155780000Y-74645000D02*
X155750000Y-74675000D01*
X155300000Y-74675000D02*
X154525000Y-74675000D01*
X155380000Y-73230000D02*
X155375000Y-73235000D01*
X155375000Y-73235000D02*
X155375000Y-74600000D01*
X155375000Y-74600000D02*
X155300000Y-74675000D01*
X154525000Y-74675000D02*
X154200000Y-74675000D01*
X154580000Y-74620000D02*
X154525000Y-74675000D01*
X154580000Y-73230000D02*
X154580000Y-74620000D01*
X154200000Y-74675000D02*
X153825000Y-74675000D01*
X154180000Y-73230000D02*
X154180000Y-74655000D01*
X154180000Y-74655000D02*
X154200000Y-74675000D01*
X153825000Y-74675000D02*
X152050000Y-74675000D01*
X153780000Y-73230000D02*
X153780000Y-74630000D01*
X153780000Y-74630000D02*
X153825000Y-74675000D01*
X172125000Y-74575000D02*
X172025000Y-74675000D01*
X172180000Y-73230000D02*
X172180000Y-74520000D01*
X172180000Y-74520000D02*
X172125000Y-74575000D01*
D17*
X133850000Y-100500000D02*
X135775000Y-102425000D01*
X135775000Y-102425000D02*
X158135000Y-102425000D01*
X158135000Y-102425000D02*
X159380000Y-101180000D01*
X159380000Y-101180000D02*
X159380000Y-98500000D01*
D16*
X133722600Y-89950000D02*
X133722600Y-91200000D01*
X133722600Y-91200000D02*
X133722600Y-95575000D01*
X132830000Y-91180000D02*
X133702600Y-91180000D01*
X133702600Y-91180000D02*
X133722600Y-91200000D01*
X133722600Y-89575000D02*
X133722600Y-89950000D01*
X132830000Y-89980000D02*
X133692600Y-89980000D01*
X133692600Y-89980000D02*
X133722600Y-89950000D01*
X133722600Y-89200000D02*
X133722600Y-89575000D01*
X132830000Y-89580000D02*
X133717600Y-89580000D01*
X133717600Y-89580000D02*
X133722600Y-89575000D01*
X132830000Y-89180000D02*
X133702600Y-89180000D01*
X133702600Y-89180000D02*
X133722600Y-89200000D01*
X133722600Y-95575000D02*
X133000000Y-95575000D01*
X133000000Y-95575000D02*
X132775000Y-95800000D01*
%TO.N,/Board To Board Conn 1/I2C6_SCL*%
X144140000Y-98500000D02*
X144140000Y-100050000D01*
X134075000Y-96025000D02*
X134075000Y-87100000D01*
X144140000Y-100050000D02*
X143615000Y-100575000D01*
X134075000Y-87100000D02*
X133755000Y-86780000D01*
X143615000Y-100575000D02*
X138625000Y-100575000D01*
X138625000Y-100575000D02*
X134075000Y-96025000D01*
X133755000Y-86780000D02*
X132830000Y-86780000D01*
%TO.N,GND*%
X137950000Y-98750000D02*
X137750000Y-98650000D01*
X134475000Y-95375000D02*
X137950000Y-98750000D01*
X134475000Y-86400000D02*
X134475000Y-95375000D01*
X134475000Y-85022600D02*
X134475000Y-86400000D01*
X133432400Y-83980000D02*
X134475000Y-85022600D01*
X132830000Y-83980000D02*
X133432400Y-83980000D01*
X134475000Y-86400000D02*
X134455000Y-86380000D01*
X134455000Y-86380000D02*
X132830000Y-86380000D01*
X138325000Y-86550000D02*
X137950000Y-86175000D01*
X137950000Y-86175000D02*
X137725000Y-86175000D01*
X137950000Y-86175000D02*
X137575000Y-86175000D01*
X137575000Y-86175000D02*
X137275000Y-86475000D01*
X137180000Y-86380000D02*
X137275000Y-86475000D01*
X137275000Y-86475000D02*
X137425000Y-86625000D01*
X137425000Y-86625000D02*
X137425000Y-88375000D01*
X137425000Y-88375000D02*
X137425000Y-88725000D01*
X135910000Y-88380000D02*
X137420000Y-88380000D01*
X137420000Y-88380000D02*
X137425000Y-88375000D01*
X137425000Y-88725000D02*
X137425000Y-90050000D01*
X135910000Y-88780000D02*
X137370000Y-88780000D01*
X137370000Y-88780000D02*
X137425000Y-88725000D01*
X137425000Y-90400000D02*
X137425000Y-90750000D01*
X137425000Y-90050000D02*
X137425000Y-90400000D01*
X137425000Y-90400000D02*
X137325000Y-90400000D01*
X137325000Y-90400000D02*
X137305000Y-90380000D01*
X137305000Y-90380000D02*
X135910000Y-90380000D01*
X135910000Y-89980000D02*
X137355000Y-89980000D01*
X137355000Y-89980000D02*
X137425000Y-90050000D01*
X137425000Y-90750000D02*
X137425000Y-91700000D01*
X135910000Y-90780000D02*
X137395000Y-90780000D01*
X137395000Y-90780000D02*
X137425000Y-90750000D01*
X137425000Y-91700000D02*
X137425000Y-92350000D01*
X135910000Y-91580000D02*
X137305000Y-91580000D01*
X137305000Y-91580000D02*
X137425000Y-91700000D01*
X137425000Y-92350000D02*
X137425000Y-93175000D01*
X135910000Y-92380000D02*
X137395000Y-92380000D01*
X137395000Y-92380000D02*
X137425000Y-92350000D01*
X137425000Y-93175000D02*
X137400000Y-93200000D01*
X135910000Y-86380000D02*
X137180000Y-86380000D01*
X137400000Y-93200000D02*
X137380000Y-93180000D01*
X137380000Y-93180000D02*
X135910000Y-93180000D01*
X134472400Y-76027600D02*
X134425000Y-76075000D01*
X134425000Y-76075000D02*
X134425000Y-77102600D01*
X134425000Y-77102600D02*
X134472400Y-77150000D01*
X132830000Y-73980000D02*
X133432400Y-73980000D01*
X133432400Y-73980000D02*
X134425000Y-74972600D01*
X134425000Y-74972600D02*
X134425000Y-75980200D01*
X134425000Y-75980200D02*
X134472400Y-76027600D01*
X134472400Y-76027600D02*
X134520000Y-75980000D01*
X134520000Y-75980000D02*
X135910000Y-75980000D01*
X134500000Y-76000000D02*
X134472400Y-76027600D01*
X134472400Y-77150000D02*
X134472400Y-78850000D01*
X135910000Y-77180000D02*
X134502400Y-77180000D01*
X134502400Y-77180000D02*
X134472400Y-77150000D01*
X135910000Y-78780000D02*
X134542400Y-78780000D01*
X134472400Y-78850000D02*
X134472400Y-79975000D01*
X134542400Y-78780000D02*
X134472400Y-78850000D01*
X135910000Y-79980000D02*
X134477400Y-79980000D01*
X134477400Y-79980000D02*
X134472400Y-79975000D01*
X134472400Y-79975000D02*
X134472400Y-82550000D01*
X132830000Y-79980000D02*
X134467400Y-79980000D01*
X134467400Y-79980000D02*
X134472400Y-79975000D01*
X134472400Y-82550000D02*
X134472400Y-83152600D01*
X134472400Y-82550000D02*
X134225000Y-82550000D01*
X134225000Y-82550000D02*
X134055000Y-82380000D01*
X134055000Y-82380000D02*
X132830000Y-82380000D01*
X134445000Y-83180000D02*
X135910000Y-83180000D01*
X134472400Y-83152600D02*
X134445000Y-83180000D01*
%TO.N,/Board To Board Conn 1/FLEXPWM2_PWM1_B*%
X147795000Y-67050000D02*
X147795000Y-66885000D01*
X147795000Y-66885000D02*
X144910000Y-64000000D01*
X144910000Y-64000000D02*
X134625000Y-64000000D01*
X130375000Y-92425000D02*
X131530000Y-93580000D01*
X134625000Y-64000000D02*
X130375000Y-68250000D01*
X130375000Y-68250000D02*
X130375000Y-92425000D01*
X131530000Y-93580000D02*
X132830000Y-93580000D01*
%TO.N,/Board To Board Conn 1/FLEXPWM2_PWM1_A*%
X145255000Y-67050000D02*
X143248800Y-65043800D01*
X143248800Y-65043800D02*
X136081200Y-65043800D01*
X131125000Y-92077400D02*
X132227600Y-93180000D01*
X136081200Y-65043800D02*
X131125000Y-70000000D01*
X131125000Y-70000000D02*
X131125000Y-92077400D01*
X132227600Y-93180000D02*
X132830000Y-93180000D01*
%TO.N,/Board To Board Conn 1/FLEXPWM1_PWM1_A*%
X142715000Y-67050000D02*
X141835000Y-66170000D01*
X141835000Y-66170000D02*
X137505000Y-66170000D01*
X132227600Y-91580000D02*
X132830000Y-91580000D01*
X131900000Y-71775000D02*
X131900000Y-91252400D01*
X131900000Y-91252400D02*
X132227600Y-91580000D01*
%TO.N,/Board To Board Conn 1/GPIO_SNVS_08*%
X149220000Y-98500000D02*
X149200000Y-98480000D01*
X149200000Y-98480000D02*
X149200000Y-93150000D01*
X149200000Y-93150000D02*
X138830000Y-82780000D01*
X138830000Y-82780000D02*
X135910000Y-82780000D01*
%TO.N,/Board To Board Conn 1/GPIO_SNVS_04*%
X151760000Y-98500000D02*
X151775000Y-98485000D01*
X136512400Y-82380000D02*
X135910000Y-82380000D01*
X151775000Y-98485000D02*
X151775000Y-92875000D01*
X151775000Y-92875000D02*
X140475000Y-81575000D01*
X140475000Y-81575000D02*
X137317400Y-81575000D01*
X137317400Y-81575000D02*
X136512400Y-82380000D01*
%TO.N,/Board To Board Conn 1/I2C1_SDA*%
X146680000Y-98500000D02*
X146650000Y-98470000D01*
X137741300Y-83603800D02*
X135975000Y-83603800D01*
X146650000Y-98470000D02*
X146650000Y-92512500D01*
%TO.N,/Board To Board Conn 1/I2C6_SDA*%
X154300000Y-98500000D02*
X154225000Y-98425000D01*
X154225000Y-98425000D02*
X154225000Y-91250000D01*
X154225000Y-91250000D02*
X142555000Y-79580000D01*
X142555000Y-79580000D02*
X135910000Y-79580000D01*
%TO.N,/Board To Board Conn 2/LPSPI1_SDI*%
X163035000Y-67050000D02*
X163075000Y-67050000D01*
X163075000Y-67050000D02*
X167380000Y-71355000D01*
X167380000Y-71355000D02*
X167380000Y-73230000D01*
%TO.N,/Board To Board Conn 2/LPSPI1_SDO*%
X166980000Y-73230000D02*
X166980000Y-71880000D01*
X164250000Y-69150000D02*
X160055000Y-69150000D01*
X166980000Y-71880000D02*
X164250000Y-69150000D01*
X160055000Y-69150000D02*
X157955000Y-67050000D01*
%TO.N,/Board To Board Conn 2/LPSPI1_PCS0*%
X166580000Y-73230000D02*
X166580000Y-72155000D01*
X166580000Y-72155000D02*
X164200000Y-69775000D01*
X164200000Y-69775000D02*
X158140000Y-69775000D01*
X158140000Y-69775000D02*
X155415000Y-67050000D01*
%TO.N,/Board To Board Conn 2/LPSPI1_SCK*%
X166180000Y-73230000D02*
X166180000Y-72627600D01*
X166180000Y-72627600D02*
X163827400Y-70275000D01*
X163827400Y-70275000D02*
X156100000Y-70275000D01*
X156100000Y-70275000D02*
X152875000Y-67050000D01*
D17*
%TO.N,/Board To Board Conn 2/+3.3VDC*%
X159800000Y-72350000D02*
X159000000Y-71550000D01*
X159000000Y-71550000D02*
X152550000Y-71550000D01*
X152550000Y-71550000D02*
X150335000Y-69335000D01*
X150335000Y-69335000D02*
X150335000Y-67050000D01*
%TO.N,/Board To Board Conn 2/+1.8VDC*%
X160495000Y-64805000D02*
X160875000Y-64425000D01*
X174775000Y-64525000D02*
X174775000Y-78025000D01*
X160495000Y-67050000D02*
X160495000Y-64805000D01*
X160875000Y-64425000D02*
X174675000Y-64425000D01*
X174675000Y-64425000D02*
X174775000Y-64525000D01*
X174775000Y-78025000D02*
X158800000Y-78025000D01*
X158800000Y-78025000D02*
X158575000Y-77800000D01*
D16*
X158575000Y-77800000D02*
X158600000Y-77825000D01*
X158575000Y-77345000D02*
X158575000Y-77800000D01*
X158575000Y-77345000D02*
X158950000Y-77345000D01*
X158950000Y-77345000D02*
X159380000Y-77345000D01*
X158980000Y-76310000D02*
X158980000Y-77315000D01*
X158980000Y-77315000D02*
X158950000Y-77345000D01*
X158100000Y-77345000D02*
X158575000Y-77345000D01*
X158580000Y-76310000D02*
X158580000Y-77340000D01*
X158580000Y-77340000D02*
X158575000Y-77345000D01*
X157805000Y-77345000D02*
X158100000Y-77345000D01*
X158100000Y-77345000D02*
X158180000Y-77265000D01*
X158180000Y-77265000D02*
X158180000Y-76310000D01*
X157780000Y-76310000D02*
X157780000Y-77320000D01*
X157780000Y-77320000D02*
X157805000Y-77345000D01*
X159380000Y-77345000D02*
X159380000Y-76310000D01*
%TO.N,/Board To Board Conn 2/+3.3VDC*%
X159800000Y-72350000D02*
X159800000Y-73210000D01*
X159800000Y-73210000D02*
X159780000Y-73230000D01*
X159400000Y-72350000D02*
X159800000Y-72350000D01*
X159800000Y-72350000D02*
X160175000Y-72350000D01*
%TO.N,/Board To Board Conn 1/I2C1_SCL*%
X141600000Y-98500000D02*
X139000000Y-98500000D01*
%TO.N,/Board To Board Conn 1/GPIO_SNVS_06*%
X164410000Y-95835000D02*
X146955000Y-78380000D01*
X164460000Y-98500000D02*
X164410000Y-98450000D01*
X164410000Y-98450000D02*
X164410000Y-95835000D01*
X146955000Y-78380000D02*
X135910000Y-78380000D01*
%TO.N,/Board To Board Conn 2/+3.3VDC*%
X159075000Y-72350000D02*
X159400000Y-72350000D01*
X159380000Y-73230000D02*
X159380000Y-72370000D01*
X159380000Y-72370000D02*
X159400000Y-72350000D01*
X160180000Y-72355000D02*
X160175000Y-72350000D01*
X160175000Y-72350000D02*
X160525000Y-72350000D01*
X160180000Y-73230000D02*
X160180000Y-72355000D01*
X158980000Y-73230000D02*
X158980000Y-72445000D01*
X158980000Y-72445000D02*
X159075000Y-72350000D01*
X160525000Y-72350000D02*
X160580000Y-72405000D01*
X160580000Y-72405000D02*
X160580000Y-73230000D01*
%TD*%
%TA.AperFunction,Conductor*%
%TO.N,GND*%
G36*
X173963539Y-65199185D02*
G01*
X174009294Y-65251989D01*
X174020500Y-65303500D01*
X174020500Y-77146500D01*
X174000815Y-77213539D01*
X173948011Y-77259294D01*
X173896500Y-77270500D01*
X172672200Y-77270500D01*
X172605161Y-77250815D01*
X172559406Y-77198011D01*
X172549462Y-77128853D01*
X172578487Y-77065297D01*
X172597888Y-77047234D01*
X172598003Y-77047147D01*
X172637546Y-77017546D01*
X172723796Y-76902331D01*
X172774091Y-76767483D01*
X172780500Y-76707873D01*
X172780499Y-75912128D01*
X172774091Y-75852517D01*
X172766500Y-75832165D01*
X172723797Y-75717671D01*
X172723793Y-75717664D01*
X172637547Y-75602455D01*
X172637544Y-75602452D01*
X172522335Y-75516206D01*
X172522328Y-75516202D01*
X172387486Y-75465910D01*
X172387485Y-75465909D01*
X172387483Y-75465909D01*
X172327873Y-75459500D01*
X172327863Y-75459500D01*
X172032131Y-75459500D01*
X172032119Y-75459501D01*
X171993253Y-75463679D01*
X171966748Y-75463679D01*
X171927874Y-75459500D01*
X171632132Y-75459500D01*
X171632117Y-75459501D01*
X171590904Y-75463931D01*
X171564402Y-75463931D01*
X171527834Y-75460000D01*
X171232165Y-75460000D01*
X171195598Y-75463931D01*
X171169092Y-75463931D01*
X171127873Y-75459500D01*
X170832131Y-75459500D01*
X170832119Y-75459501D01*
X170793253Y-75463679D01*
X170766748Y-75463679D01*
X170727874Y-75459500D01*
X170432132Y-75459500D01*
X170432117Y-75459501D01*
X170390904Y-75463931D01*
X170364402Y-75463931D01*
X170327834Y-75460000D01*
X170032165Y-75460000D01*
X169995598Y-75463931D01*
X169969092Y-75463931D01*
X169927873Y-75459500D01*
X169632131Y-75459500D01*
X169632119Y-75459501D01*
X169593253Y-75463679D01*
X169566748Y-75463679D01*
X169527874Y-75459500D01*
X169232132Y-75459500D01*
X169232117Y-75459501D01*
X169190904Y-75463931D01*
X169164402Y-75463931D01*
X169127834Y-75460000D01*
X168832164Y-75460000D01*
X168793252Y-75464183D01*
X168766748Y-75464183D01*
X168727835Y-75460000D01*
X168432164Y-75460000D01*
X168393252Y-75464183D01*
X168366748Y-75464183D01*
X168327835Y-75460000D01*
X168032165Y-75460000D01*
X167995598Y-75463931D01*
X167969092Y-75463931D01*
X167927873Y-75459500D01*
X167632131Y-75459500D01*
X167632119Y-75459501D01*
X167593253Y-75463679D01*
X167566748Y-75463679D01*
X167527874Y-75459500D01*
X167232132Y-75459500D01*
X167232117Y-75459501D01*
X167190904Y-75463931D01*
X167164402Y-75463931D01*
X167127834Y-75460000D01*
X166832165Y-75460000D01*
X166795598Y-75463931D01*
X166769092Y-75463931D01*
X166727873Y-75459500D01*
X166432131Y-75459500D01*
X166432119Y-75459501D01*
X166393253Y-75463679D01*
X166366748Y-75463679D01*
X166327874Y-75459500D01*
X166032131Y-75459500D01*
X166032119Y-75459501D01*
X165993253Y-75463679D01*
X165966748Y-75463679D01*
X165927874Y-75459500D01*
X165632131Y-75459500D01*
X165632119Y-75459501D01*
X165593253Y-75463679D01*
X165566748Y-75463679D01*
X165527874Y-75459500D01*
X165232132Y-75459500D01*
X165232117Y-75459501D01*
X165190904Y-75463931D01*
X165164402Y-75463931D01*
X165127834Y-75460000D01*
X164832165Y-75460000D01*
X164795598Y-75463931D01*
X164769092Y-75463931D01*
X164727873Y-75459500D01*
X164432131Y-75459500D01*
X164432119Y-75459501D01*
X164393253Y-75463679D01*
X164366748Y-75463679D01*
X164327874Y-75459500D01*
X164032131Y-75459500D01*
X164032119Y-75459501D01*
X163993253Y-75463679D01*
X163966748Y-75463679D01*
X163927874Y-75459500D01*
X163632131Y-75459500D01*
X163632119Y-75459501D01*
X163593253Y-75463679D01*
X163566748Y-75463679D01*
X163527874Y-75459500D01*
X163232131Y-75459500D01*
X163232119Y-75459501D01*
X163193253Y-75463679D01*
X163166748Y-75463679D01*
X163127874Y-75459500D01*
X162832131Y-75459500D01*
X162832119Y-75459501D01*
X162793253Y-75463679D01*
X162766748Y-75463679D01*
X162727874Y-75459500D01*
X162432131Y-75459500D01*
X162432119Y-75459501D01*
X162393253Y-75463679D01*
X162366748Y-75463679D01*
X162327874Y-75459500D01*
X162032132Y-75459500D01*
X162032117Y-75459501D01*
X161990904Y-75463931D01*
X161964402Y-75463931D01*
X161927834Y-75460000D01*
X161632165Y-75460000D01*
X161595598Y-75463931D01*
X161569092Y-75463931D01*
X161527873Y-75459500D01*
X161232131Y-75459500D01*
X161232119Y-75459501D01*
X161193253Y-75463679D01*
X161166748Y-75463679D01*
X161127874Y-75459500D01*
X160832131Y-75459500D01*
X160832119Y-75459501D01*
X160793253Y-75463679D01*
X160766748Y-75463679D01*
X160727874Y-75459500D01*
X160432131Y-75459500D01*
X160432119Y-75459501D01*
X160393253Y-75463679D01*
X160366748Y-75463679D01*
X160327874Y-75459500D01*
X160032132Y-75459500D01*
X160032117Y-75459501D01*
X159990904Y-75463931D01*
X159964402Y-75463931D01*
X159927834Y-75460000D01*
X159632165Y-75460000D01*
X159595598Y-75463931D01*
X159569092Y-75463931D01*
X159527873Y-75459500D01*
X159232131Y-75459500D01*
X159232119Y-75459501D01*
X159193253Y-75463679D01*
X159166748Y-75463679D01*
X159127874Y-75459500D01*
X158832131Y-75459500D01*
X158832119Y-75459501D01*
X158793253Y-75463679D01*
X158766748Y-75463679D01*
X158727874Y-75459500D01*
X158432131Y-75459500D01*
X158432119Y-75459501D01*
X158393253Y-75463679D01*
X158366748Y-75463679D01*
X158327874Y-75459500D01*
X158032131Y-75459500D01*
X158032119Y-75459501D01*
X157993253Y-75463679D01*
X157966748Y-75463679D01*
X157927874Y-75459500D01*
X157632131Y-75459500D01*
X157632119Y-75459501D01*
X157593253Y-75463679D01*
X157566748Y-75463679D01*
X157527874Y-75459500D01*
X157232131Y-75459500D01*
X157232119Y-75459501D01*
X157193253Y-75463679D01*
X157166748Y-75463679D01*
X157127874Y-75459500D01*
X156832131Y-75459500D01*
X156832119Y-75459501D01*
X156793253Y-75463679D01*
X156766748Y-75463679D01*
X156727874Y-75459500D01*
X156432131Y-75459500D01*
X156432119Y-75459501D01*
X156393253Y-75463679D01*
X156366748Y-75463679D01*
X156327874Y-75459500D01*
X156032131Y-75459500D01*
X156032119Y-75459501D01*
X155993253Y-75463679D01*
X155966748Y-75463679D01*
X155927874Y-75459500D01*
X155632131Y-75459500D01*
X155632119Y-75459501D01*
X155593253Y-75463679D01*
X155566748Y-75463679D01*
X155527874Y-75459500D01*
X155232131Y-75459500D01*
X155232119Y-75459501D01*
X155193253Y-75463679D01*
X155166748Y-75463679D01*
X155127874Y-75459500D01*
X154832131Y-75459500D01*
X154832119Y-75459501D01*
X154793253Y-75463679D01*
X154766748Y-75463679D01*
X154727874Y-75459500D01*
X154432131Y-75459500D01*
X154432119Y-75459501D01*
X154393253Y-75463679D01*
X154366748Y-75463679D01*
X154327874Y-75459500D01*
X154032131Y-75459500D01*
X154032119Y-75459501D01*
X153993253Y-75463679D01*
X153966748Y-75463679D01*
X153927874Y-75459500D01*
X153632131Y-75459500D01*
X153632119Y-75459501D01*
X153593253Y-75463679D01*
X153566748Y-75463679D01*
X153527874Y-75459500D01*
X153232131Y-75459500D01*
X153232119Y-75459501D01*
X153193253Y-75463679D01*
X153166748Y-75463679D01*
X153127874Y-75459500D01*
X152832131Y-75459500D01*
X152832119Y-75459501D01*
X152793253Y-75463679D01*
X152766748Y-75463679D01*
X152727874Y-75459500D01*
X152432130Y-75459500D01*
X152432123Y-75459501D01*
X152372516Y-75465908D01*
X152237671Y-75516202D01*
X152237664Y-75516206D01*
X152122455Y-75602452D01*
X152122452Y-75602455D01*
X152036206Y-75717664D01*
X152036202Y-75717671D01*
X151985908Y-75852517D01*
X151979501Y-75912116D01*
X151979501Y-75912123D01*
X151979500Y-75912135D01*
X151979500Y-76707870D01*
X151979501Y-76707876D01*
X151985908Y-76767483D01*
X152036202Y-76902328D01*
X152036206Y-76902335D01*
X152122452Y-77017544D01*
X152122455Y-77017547D01*
X152237664Y-77103793D01*
X152237671Y-77103797D01*
X152282618Y-77120561D01*
X152372517Y-77154091D01*
X152432127Y-77160500D01*
X152727872Y-77160499D01*
X152727873Y-77160498D01*
X152727885Y-77160498D01*
X152766744Y-77156320D01*
X152793252Y-77156320D01*
X152832127Y-77160500D01*
X153127872Y-77160499D01*
X153127873Y-77160498D01*
X153127885Y-77160498D01*
X153166744Y-77156320D01*
X153193252Y-77156320D01*
X153232127Y-77160500D01*
X153527872Y-77160499D01*
X153527873Y-77160498D01*
X153527885Y-77160498D01*
X153566744Y-77156320D01*
X153593252Y-77156320D01*
X153632127Y-77160500D01*
X153927872Y-77160499D01*
X153927873Y-77160498D01*
X153927885Y-77160498D01*
X153966744Y-77156320D01*
X153993252Y-77156320D01*
X154032127Y-77160500D01*
X154327872Y-77160499D01*
X154327873Y-77160498D01*
X154327885Y-77160498D01*
X154366744Y-77156320D01*
X154393252Y-77156320D01*
X154432127Y-77160500D01*
X154727872Y-77160499D01*
X154727873Y-77160498D01*
X154727885Y-77160498D01*
X154766744Y-77156320D01*
X154793252Y-77156320D01*
X154832127Y-77160500D01*
X155127872Y-77160499D01*
X155127873Y-77160498D01*
X155127885Y-77160498D01*
X155166744Y-77156320D01*
X155193252Y-77156320D01*
X155232127Y-77160500D01*
X155527872Y-77160499D01*
X155527873Y-77160498D01*
X155527885Y-77160498D01*
X155566744Y-77156320D01*
X155593252Y-77156320D01*
X155632127Y-77160500D01*
X155927872Y-77160499D01*
X155927873Y-77160498D01*
X155927885Y-77160498D01*
X155966744Y-77156320D01*
X155993252Y-77156320D01*
X156032127Y-77160500D01*
X156327872Y-77160499D01*
X156327873Y-77160498D01*
X156327885Y-77160498D01*
X156366744Y-77156320D01*
X156393252Y-77156320D01*
X156432127Y-77160500D01*
X156727872Y-77160499D01*
X156727873Y-77160498D01*
X156727885Y-77160498D01*
X156766744Y-77156320D01*
X156793252Y-77156320D01*
X156832127Y-77160500D01*
X157079300Y-77160499D01*
X157146339Y-77180183D01*
X157192094Y-77232987D01*
X157203300Y-77284499D01*
X157203300Y-77395924D01*
X157213001Y-77432130D01*
X157242602Y-77542600D01*
X157242602Y-77542601D01*
X157318522Y-77674098D01*
X157318524Y-77674100D01*
X157318525Y-77674102D01*
X157450898Y-77806475D01*
X157582402Y-77882399D01*
X157729076Y-77921700D01*
X157729084Y-77921700D01*
X157737136Y-77922761D01*
X157736936Y-77924276D01*
X157795201Y-77941385D01*
X157840956Y-77994189D01*
X157847459Y-78014325D01*
X157847725Y-78014245D01*
X157849495Y-78020081D01*
X157906366Y-78157381D01*
X157906372Y-78157392D01*
X157988942Y-78280968D01*
X158319031Y-78611057D01*
X158319034Y-78611059D01*
X158442611Y-78693630D01*
X158511902Y-78722331D01*
X158579920Y-78750505D01*
X158579922Y-78750505D01*
X158579924Y-78750506D01*
X158604104Y-78755315D01*
X158604110Y-78755316D01*
X158725686Y-78779501D01*
X158725688Y-78779501D01*
X158880426Y-78779501D01*
X158880446Y-78779500D01*
X174849313Y-78779500D01*
X174849314Y-78779499D01*
X174995080Y-78750505D01*
X175132390Y-78693629D01*
X175213020Y-78639753D01*
X175279694Y-78618877D01*
X175347074Y-78637361D01*
X175393765Y-78689340D01*
X175405908Y-78743011D01*
X175375153Y-103501340D01*
X175355385Y-103568355D01*
X175302524Y-103614044D01*
X175251699Y-103625185D01*
X130049238Y-103824096D01*
X129982112Y-103804706D01*
X129936125Y-103752104D01*
X129924692Y-103700404D01*
X129924504Y-103624643D01*
X129920239Y-101902720D01*
X132800830Y-101902720D01*
X132972546Y-102019793D01*
X132972550Y-102019795D01*
X133208854Y-102133594D01*
X133208858Y-102133595D01*
X133459494Y-102210907D01*
X133459500Y-102210909D01*
X133718848Y-102249999D01*
X133718857Y-102250000D01*
X133981143Y-102250000D01*
X133981151Y-102249999D01*
X134240499Y-102210909D01*
X134240505Y-102210907D01*
X134491143Y-102133595D01*
X134727445Y-102019798D01*
X134727447Y-102019797D01*
X134899168Y-101902720D01*
X133850000Y-100853553D01*
X132800830Y-101902720D01*
X129920239Y-101902720D01*
X129916765Y-100499995D01*
X132095093Y-100499995D01*
X132095093Y-100500004D01*
X132114692Y-100761545D01*
X132114693Y-100761550D01*
X132173058Y-101017270D01*
X132268883Y-101261426D01*
X132268882Y-101261426D01*
X132400027Y-101488573D01*
X132447874Y-101548571D01*
X133496447Y-100500000D01*
X133496447Y-100499999D01*
X134203553Y-100499999D01*
X134203553Y-100500000D01*
X135252125Y-101548572D01*
X135299971Y-101488573D01*
X135431116Y-101261426D01*
X135526941Y-101017270D01*
X135585306Y-100761550D01*
X135585307Y-100761545D01*
X135604907Y-100500004D01*
X135604907Y-100499995D01*
X135585307Y-100238454D01*
X135585306Y-100238449D01*
X135526941Y-99982729D01*
X135431116Y-99738573D01*
X135431117Y-99738573D01*
X135299972Y-99511426D01*
X135252124Y-99451427D01*
X134203553Y-100499999D01*
X133496447Y-100499999D01*
X132447874Y-99451427D01*
X132400028Y-99511425D01*
X132268883Y-99738573D01*
X132173058Y-99982729D01*
X132114693Y-100238449D01*
X132114692Y-100238454D01*
X132095093Y-100499995D01*
X129916765Y-100499995D01*
X129913291Y-99097277D01*
X132800830Y-99097277D01*
X133850000Y-100146447D01*
X133850001Y-100146447D01*
X134899168Y-99097278D01*
X134727454Y-98980206D01*
X134727445Y-98980201D01*
X134491142Y-98866404D01*
X134491144Y-98866404D01*
X134240505Y-98789092D01*
X134240499Y-98789090D01*
X133981151Y-98750000D01*
X133718848Y-98750000D01*
X133459500Y-98789090D01*
X133459494Y-98789092D01*
X133208858Y-98866404D01*
X133208854Y-98866405D01*
X132972547Y-98980205D01*
X132972539Y-98980210D01*
X132800830Y-99097277D01*
X129913291Y-99097277D01*
X129898347Y-93063592D01*
X129917866Y-92996505D01*
X129970556Y-92950620D01*
X130039690Y-92940505D01*
X130103317Y-92969372D01*
X130110028Y-92975605D01*
X131068525Y-93934102D01*
X131175898Y-94041475D01*
X131175899Y-94041476D01*
X131175901Y-94041477D01*
X131241650Y-94079437D01*
X131307402Y-94117399D01*
X131454076Y-94156700D01*
X132303517Y-94156700D01*
X132346850Y-94164518D01*
X132372517Y-94174091D01*
X132372516Y-94174091D01*
X132379444Y-94174835D01*
X132432127Y-94180500D01*
X133227872Y-94180499D01*
X133287483Y-94174091D01*
X133330965Y-94157872D01*
X133400657Y-94152888D01*
X133461981Y-94186372D01*
X133495466Y-94247695D01*
X133498300Y-94274054D01*
X133498300Y-96100923D01*
X133537602Y-96247600D01*
X133537602Y-96247601D01*
X133613522Y-96379098D01*
X133613524Y-96379100D01*
X133613525Y-96379102D01*
X138270898Y-101036475D01*
X138402402Y-101112399D01*
X138549076Y-101151700D01*
X138549078Y-101151700D01*
X143690922Y-101151700D01*
X143690924Y-101151700D01*
X143837598Y-101112399D01*
X143969102Y-101036475D01*
X144601475Y-100404102D01*
X144677399Y-100272598D01*
X144716700Y-100125924D01*
X144716700Y-99974076D01*
X144716700Y-99800188D01*
X144736385Y-99733149D01*
X144788293Y-99687807D01*
X144817830Y-99674035D01*
X145011401Y-99538495D01*
X145178495Y-99371401D01*
X145308425Y-99185842D01*
X145363002Y-99142217D01*
X145432500Y-99135023D01*
X145494855Y-99166546D01*
X145511575Y-99185842D01*
X145641500Y-99371395D01*
X145641505Y-99371401D01*
X145808599Y-99538495D01*
X145905384Y-99606265D01*
X146002165Y-99674032D01*
X146002167Y-99674033D01*
X146002170Y-99674035D01*
X146216337Y-99773903D01*
X146444592Y-99835063D01*
X146621034Y-99850500D01*
X146679999Y-99855659D01*
X146680000Y-99855659D01*
X146680001Y-99855659D01*
X146738966Y-99850500D01*
X146915408Y-99835063D01*
X147143663Y-99773903D01*
X147357830Y-99674035D01*
X147551401Y-99538495D01*
X147718495Y-99371401D01*
X147848425Y-99185842D01*
X147903002Y-99142217D01*
X147972500Y-99135023D01*
X148034855Y-99166546D01*
X148051575Y-99185842D01*
X148181500Y-99371395D01*
X148181505Y-99371401D01*
X148348599Y-99538495D01*
X148445384Y-99606265D01*
X148542165Y-99674032D01*
X148542167Y-99674033D01*
X148542170Y-99674035D01*
X148756337Y-99773903D01*
X148984592Y-99835063D01*
X149161034Y-99850500D01*
X149219999Y-99855659D01*
X149220000Y-99855659D01*
X149220001Y-99855659D01*
X149278966Y-99850500D01*
X149455408Y-99835063D01*
X149683663Y-99773903D01*
X149897830Y-99674035D01*
X150091401Y-99538495D01*
X150258495Y-99371401D01*
X150388425Y-99185842D01*
X150443002Y-99142217D01*
X150512500Y-99135023D01*
X150574855Y-99166546D01*
X150591575Y-99185842D01*
X150721500Y-99371395D01*
X150721505Y-99371401D01*
X150888599Y-99538495D01*
X150985384Y-99606265D01*
X151082165Y-99674032D01*
X151082167Y-99674033D01*
X151082170Y-99674035D01*
X151296337Y-99773903D01*
X151524592Y-99835063D01*
X151701034Y-99850500D01*
X151759999Y-99855659D01*
X151760000Y-99855659D01*
X151760001Y-99855659D01*
X151818966Y-99850500D01*
X151995408Y-99835063D01*
X152223663Y-99773903D01*
X152437830Y-99674035D01*
X152631401Y-99538495D01*
X152798495Y-99371401D01*
X152928425Y-99185842D01*
X152983002Y-99142217D01*
X153052500Y-99135023D01*
X153114855Y-99166546D01*
X153131575Y-99185842D01*
X153261500Y-99371395D01*
X153261505Y-99371401D01*
X153428599Y-99538495D01*
X153525384Y-99606265D01*
X153622165Y-99674032D01*
X153622167Y-99674033D01*
X153622170Y-99674035D01*
X153836337Y-99773903D01*
X154064592Y-99835063D01*
X154241034Y-99850500D01*
X154299999Y-99855659D01*
X154300000Y-99855659D01*
X154300001Y-99855659D01*
X154358966Y-99850500D01*
X154535408Y-99835063D01*
X154763663Y-99773903D01*
X154977830Y-99674035D01*
X155171401Y-99538495D01*
X155338495Y-99371401D01*
X155468425Y-99185842D01*
X155523002Y-99142217D01*
X155592500Y-99135023D01*
X155654855Y-99166546D01*
X155671575Y-99185842D01*
X155801500Y-99371395D01*
X155801505Y-99371401D01*
X155968599Y-99538495D01*
X156065384Y-99606265D01*
X156162165Y-99674032D01*
X156162167Y-99674033D01*
X156162170Y-99674035D01*
X156376337Y-99773903D01*
X156604592Y-99835063D01*
X156781034Y-99850500D01*
X156839999Y-99855659D01*
X156840000Y-99855659D01*
X156840001Y-99855659D01*
X156898966Y-99850500D01*
X157075408Y-99835063D01*
X157303663Y-99773903D01*
X157517830Y-99674035D01*
X157711401Y-99538495D01*
X157878495Y-99371401D01*
X158008730Y-99185405D01*
X158063307Y-99141781D01*
X158132805Y-99134587D01*
X158195160Y-99166110D01*
X158211879Y-99185405D01*
X158341890Y-99371078D01*
X158508917Y-99538105D01*
X158702421Y-99673600D01*
X158916507Y-99773429D01*
X158916516Y-99773433D01*
X159130000Y-99830634D01*
X159130000Y-98933012D01*
X159187007Y-98965925D01*
X159314174Y-99000000D01*
X159445826Y-99000000D01*
X159572993Y-98965925D01*
X159630000Y-98933012D01*
X159630000Y-99830633D01*
X159843483Y-99773433D01*
X159843492Y-99773429D01*
X160057578Y-99673600D01*
X160251082Y-99538105D01*
X160418105Y-99371082D01*
X160548119Y-99185405D01*
X160602696Y-99141781D01*
X160672195Y-99134588D01*
X160734549Y-99166110D01*
X160751269Y-99185405D01*
X160881505Y-99371401D01*
X161048599Y-99538495D01*
X161145384Y-99606265D01*
X161242165Y-99674032D01*
X161242167Y-99674033D01*
X161242170Y-99674035D01*
X161456337Y-99773903D01*
X161684592Y-99835063D01*
X161861034Y-99850500D01*
X161919999Y-99855659D01*
X161920000Y-99855659D01*
X161920001Y-99855659D01*
X161978966Y-99850500D01*
X162155408Y-99835063D01*
X162383663Y-99773903D01*
X162597830Y-99674035D01*
X162791401Y-99538495D01*
X162958495Y-99371401D01*
X163088425Y-99185842D01*
X163143002Y-99142217D01*
X163212500Y-99135023D01*
X163274855Y-99166546D01*
X163291575Y-99185842D01*
X163421500Y-99371395D01*
X163421505Y-99371401D01*
X163588599Y-99538495D01*
X163685384Y-99606265D01*
X163782165Y-99674032D01*
X163782167Y-99674033D01*
X163782170Y-99674035D01*
X163996337Y-99773903D01*
X164224592Y-99835063D01*
X164401034Y-99850500D01*
X164459999Y-99855659D01*
X164460000Y-99855659D01*
X164460001Y-99855659D01*
X164518966Y-99850500D01*
X164695408Y-99835063D01*
X164923663Y-99773903D01*
X165137830Y-99674035D01*
X165331401Y-99538495D01*
X165498495Y-99371401D01*
X165634035Y-99177830D01*
X165733903Y-98963663D01*
X165795063Y-98735408D01*
X165815659Y-98500000D01*
X165795063Y-98264592D01*
X165733903Y-98036337D01*
X165634035Y-97822171D01*
X165628731Y-97814595D01*
X165498494Y-97628597D01*
X165331402Y-97461506D01*
X165331395Y-97461501D01*
X165137832Y-97325966D01*
X165058294Y-97288876D01*
X165005855Y-97242703D01*
X164986700Y-97176494D01*
X164986700Y-95759078D01*
X164986700Y-95759076D01*
X164947399Y-95612402D01*
X164924322Y-95572432D01*
X164871477Y-95480901D01*
X164871472Y-95480895D01*
X147309104Y-77918527D01*
X147309098Y-77918522D01*
X147177600Y-77842602D01*
X147177599Y-77842601D01*
X147177598Y-77842601D01*
X147030924Y-77803300D01*
X147030923Y-77803300D01*
X136884500Y-77803300D01*
X136817461Y-77783615D01*
X136771706Y-77730811D01*
X136760500Y-77679300D01*
X136760499Y-77432130D01*
X136760499Y-77432128D01*
X136756067Y-77390898D01*
X136756068Y-77364393D01*
X136759999Y-77327833D01*
X136760000Y-77327819D01*
X136760000Y-77032182D01*
X136759999Y-77032164D01*
X136756068Y-76995602D01*
X136756068Y-76969093D01*
X136760500Y-76927873D01*
X136760499Y-76632128D01*
X136760499Y-76632127D01*
X136760498Y-76632111D01*
X136756320Y-76593253D01*
X136756320Y-76566745D01*
X136760500Y-76527873D01*
X136760499Y-76232128D01*
X136756067Y-76190898D01*
X136756068Y-76164393D01*
X136759999Y-76127833D01*
X136760000Y-76127819D01*
X136760000Y-75832182D01*
X136759999Y-75832164D01*
X136756068Y-75795602D01*
X136756068Y-75769093D01*
X136760500Y-75727873D01*
X136760499Y-75432128D01*
X136760499Y-75432127D01*
X136760498Y-75432111D01*
X136756320Y-75393253D01*
X136756320Y-75366745D01*
X136760500Y-75327873D01*
X136760499Y-75032128D01*
X136760499Y-75032127D01*
X136760498Y-75032111D01*
X136756320Y-74993253D01*
X136756320Y-74966745D01*
X136760500Y-74927873D01*
X136760499Y-74632128D01*
X136760499Y-74632127D01*
X136760498Y-74632111D01*
X136756320Y-74593253D01*
X136756320Y-74566745D01*
X136760500Y-74527873D01*
X136760499Y-74232128D01*
X136760499Y-74232127D01*
X136760498Y-74232111D01*
X136756320Y-74193253D01*
X136756320Y-74166745D01*
X136760500Y-74127873D01*
X136760499Y-73832128D01*
X136754091Y-73772517D01*
X136722375Y-73687483D01*
X136703797Y-73637671D01*
X136703793Y-73637664D01*
X136617547Y-73522455D01*
X136617544Y-73522452D01*
X136502335Y-73436206D01*
X136502328Y-73436202D01*
X136367482Y-73385908D01*
X136367483Y-73385908D01*
X136307883Y-73379501D01*
X136307881Y-73379500D01*
X136307873Y-73379500D01*
X136307864Y-73379500D01*
X135512129Y-73379500D01*
X135512123Y-73379501D01*
X135452516Y-73385908D01*
X135317671Y-73436202D01*
X135317664Y-73436206D01*
X135202455Y-73522452D01*
X135202452Y-73522455D01*
X135116206Y-73637664D01*
X135116202Y-73637671D01*
X135065910Y-73772513D01*
X135065909Y-73772517D01*
X135059500Y-73832127D01*
X135059500Y-73832134D01*
X135059500Y-73832135D01*
X135059500Y-74127868D01*
X135059501Y-74127878D01*
X135063679Y-74166745D01*
X135063679Y-74193250D01*
X135059500Y-74232122D01*
X135059500Y-74527868D01*
X135059501Y-74527878D01*
X135063679Y-74566745D01*
X135063679Y-74593250D01*
X135059500Y-74632122D01*
X135059500Y-74927868D01*
X135059501Y-74927878D01*
X135063679Y-74966745D01*
X135063679Y-74993250D01*
X135059500Y-75032122D01*
X135059500Y-75327868D01*
X135059501Y-75327878D01*
X135063679Y-75366745D01*
X135063679Y-75393250D01*
X135059500Y-75432122D01*
X135059500Y-75727868D01*
X135059501Y-75727880D01*
X135063931Y-75769093D01*
X135063931Y-75795596D01*
X135060000Y-75832165D01*
X135060000Y-76127832D01*
X135063931Y-76164399D01*
X135063931Y-76190905D01*
X135059500Y-76232122D01*
X135059500Y-76527868D01*
X135059501Y-76527878D01*
X135063679Y-76566745D01*
X135063679Y-76593250D01*
X135059500Y-76632122D01*
X135059500Y-76927868D01*
X135059501Y-76927880D01*
X135063931Y-76969093D01*
X135063931Y-76995596D01*
X135060000Y-77032165D01*
X135060000Y-77327832D01*
X135063931Y-77364399D01*
X135063931Y-77390905D01*
X135059500Y-77432122D01*
X135059500Y-77727868D01*
X135059501Y-77727878D01*
X135063679Y-77766745D01*
X135063679Y-77793250D01*
X135059500Y-77832122D01*
X135059500Y-78127868D01*
X135059501Y-78127878D01*
X135063679Y-78166745D01*
X135063679Y-78193250D01*
X135059500Y-78232122D01*
X135059500Y-78527868D01*
X135059501Y-78527880D01*
X135063931Y-78569093D01*
X135063931Y-78595596D01*
X135060000Y-78632165D01*
X135060000Y-78927832D01*
X135063931Y-78964399D01*
X135063931Y-78990905D01*
X135059500Y-79032122D01*
X135059500Y-79327868D01*
X135059501Y-79327878D01*
X135063679Y-79366745D01*
X135063679Y-79393250D01*
X135059500Y-79432122D01*
X135059500Y-79727868D01*
X135059501Y-79727880D01*
X135063931Y-79769093D01*
X135063931Y-79795596D01*
X135060000Y-79832165D01*
X135060000Y-80127832D01*
X135063931Y-80164399D01*
X135063931Y-80190905D01*
X135059500Y-80232122D01*
X135059500Y-80527868D01*
X135059501Y-80527878D01*
X135063679Y-80566745D01*
X135063679Y-80593250D01*
X135059500Y-80632122D01*
X135059500Y-80927868D01*
X135059501Y-80927878D01*
X135063679Y-80966745D01*
X135063679Y-80993250D01*
X135059500Y-81032122D01*
X135059500Y-81327868D01*
X135059501Y-81327878D01*
X135063679Y-81366745D01*
X135063679Y-81393250D01*
X135059500Y-81432122D01*
X135059500Y-81727868D01*
X135059501Y-81727878D01*
X135063679Y-81766745D01*
X135063679Y-81793250D01*
X135059500Y-81832122D01*
X135059500Y-82127868D01*
X135059501Y-82127878D01*
X135063679Y-82166745D01*
X135063679Y-82193250D01*
X135059500Y-82232122D01*
X135059500Y-82527868D01*
X135059501Y-82527878D01*
X135063679Y-82566745D01*
X135063679Y-82593250D01*
X135059500Y-82632122D01*
X135059500Y-82632128D01*
X135059501Y-82879300D01*
X135039817Y-82946339D01*
X134987013Y-82992094D01*
X134935501Y-83003300D01*
X133804500Y-83003300D01*
X133737461Y-82983615D01*
X133691706Y-82930811D01*
X133680500Y-82879300D01*
X133680499Y-82632130D01*
X133680499Y-82632128D01*
X133676067Y-82590898D01*
X133676068Y-82564393D01*
X133679999Y-82527833D01*
X133680000Y-82527819D01*
X133680000Y-82232182D01*
X133679999Y-82232164D01*
X133676068Y-82195602D01*
X133676068Y-82169094D01*
X133680500Y-82127873D01*
X133680499Y-81832128D01*
X133680499Y-81832127D01*
X133680498Y-81832111D01*
X133676320Y-81793253D01*
X133676320Y-81766745D01*
X133680500Y-81727873D01*
X133680499Y-81432128D01*
X133680499Y-81432127D01*
X133680498Y-81432111D01*
X133676320Y-81393253D01*
X133676320Y-81366745D01*
X133680500Y-81327873D01*
X133680499Y-81032128D01*
X133680499Y-81032127D01*
X133680498Y-81032111D01*
X133676320Y-80993253D01*
X133676320Y-80966745D01*
X133680500Y-80927873D01*
X133680499Y-80632128D01*
X133680499Y-80632127D01*
X133680498Y-80632111D01*
X133676320Y-80593253D01*
X133676320Y-80566745D01*
X133680500Y-80527873D01*
X133680499Y-80232128D01*
X133676067Y-80190898D01*
X133676068Y-80164393D01*
X133679999Y-80127833D01*
X133680000Y-80127819D01*
X133680000Y-79832182D01*
X133679999Y-79832164D01*
X133676068Y-79795602D01*
X133676068Y-79769093D01*
X133680500Y-79727873D01*
X133680499Y-79432128D01*
X133680499Y-79432127D01*
X133680498Y-79432111D01*
X133676320Y-79393253D01*
X133676320Y-79366745D01*
X133680500Y-79327873D01*
X133680499Y-79032128D01*
X133680499Y-79032127D01*
X133680498Y-79032111D01*
X133676320Y-78993253D01*
X133676320Y-78966747D01*
X133680500Y-78927873D01*
X133680499Y-78632128D01*
X133680498Y-78632111D01*
X133676320Y-78593253D01*
X133676320Y-78566747D01*
X133680500Y-78527873D01*
X133680499Y-78232128D01*
X133680499Y-78232127D01*
X133680498Y-78232111D01*
X133676320Y-78193253D01*
X133676320Y-78166745D01*
X133680500Y-78127873D01*
X133680499Y-77832128D01*
X133680499Y-77832127D01*
X133680498Y-77832111D01*
X133676320Y-77793253D01*
X133676320Y-77766745D01*
X133680500Y-77727873D01*
X133680499Y-77432128D01*
X133680499Y-77432127D01*
X133680498Y-77432111D01*
X133676320Y-77393253D01*
X133676320Y-77366747D01*
X133680500Y-77327873D01*
X133680499Y-77032128D01*
X133680498Y-77032111D01*
X133676320Y-76993253D01*
X133676320Y-76966747D01*
X133680500Y-76927873D01*
X133680499Y-76632128D01*
X133680499Y-76632127D01*
X133680498Y-76632111D01*
X133676320Y-76593253D01*
X133676320Y-76566745D01*
X133680500Y-76527873D01*
X133680499Y-76232128D01*
X133680499Y-76232127D01*
X133680498Y-76232111D01*
X133676320Y-76193253D01*
X133676320Y-76166747D01*
X133680500Y-76127873D01*
X133680499Y-75832128D01*
X133680498Y-75832111D01*
X133676320Y-75793253D01*
X133676320Y-75766747D01*
X133680500Y-75727873D01*
X133680499Y-75432128D01*
X133680499Y-75432127D01*
X133680498Y-75432111D01*
X133676320Y-75393253D01*
X133676320Y-75366745D01*
X133680500Y-75327873D01*
X133680499Y-75032128D01*
X133680499Y-75032127D01*
X133680498Y-75032111D01*
X133676320Y-74993253D01*
X133676320Y-74966745D01*
X133680500Y-74927873D01*
X133680499Y-74632128D01*
X133680499Y-74632127D01*
X133680498Y-74632111D01*
X133676320Y-74593253D01*
X133676320Y-74566745D01*
X133680500Y-74527873D01*
X133680499Y-74232128D01*
X133676067Y-74190898D01*
X133676068Y-74164393D01*
X133679999Y-74127833D01*
X133680000Y-74127819D01*
X133680000Y-73832172D01*
X133679999Y-73832155D01*
X133673598Y-73772627D01*
X133673596Y-73772620D01*
X133623354Y-73637913D01*
X133623350Y-73637906D01*
X133537190Y-73522812D01*
X133537187Y-73522809D01*
X133422093Y-73436649D01*
X133422086Y-73436645D01*
X133287379Y-73386403D01*
X133287372Y-73386401D01*
X133227844Y-73380000D01*
X132600700Y-73380000D01*
X132533661Y-73360315D01*
X132487906Y-73307511D01*
X132476700Y-73256000D01*
X132476700Y-72065238D01*
X132496385Y-71998199D01*
X132513014Y-71977562D01*
X136287320Y-68203255D01*
X136348641Y-68169772D01*
X136418333Y-68174756D01*
X136462680Y-68203257D01*
X136987249Y-68727826D01*
X137020734Y-68789149D01*
X137015750Y-68858841D01*
X137015008Y-68860778D01*
X136947583Y-69032578D01*
X136947578Y-69032590D01*
X136947576Y-69032597D01*
X136889197Y-69288374D01*
X136889196Y-69288379D01*
X136869592Y-69549995D01*
X136869592Y-69550004D01*
X136889196Y-69811620D01*
X136889197Y-69811625D01*
X136947576Y-70067402D01*
X136947578Y-70067411D01*
X136947580Y-70067416D01*
X137043432Y-70311643D01*
X137174614Y-70538857D01*
X137306736Y-70704533D01*
X137338198Y-70743985D01*
X137519753Y-70912441D01*
X137530521Y-70922433D01*
X137747296Y-71070228D01*
X137747301Y-71070230D01*
X137747302Y-71070231D01*
X137747303Y-71070232D01*
X137872843Y-71130688D01*
X137983673Y-71184061D01*
X137983674Y-71184061D01*
X137983677Y-71184063D01*
X138234385Y-71261396D01*
X138493818Y-71300500D01*
X138756182Y-71300500D01*
X139015615Y-71261396D01*
X139266323Y-71184063D01*
X139502704Y-71070228D01*
X139719479Y-70922433D01*
X139877496Y-70775815D01*
X139911801Y-70743985D01*
X139911801Y-70743983D01*
X139911805Y-70743981D01*
X140075386Y-70538857D01*
X140206568Y-70311643D01*
X140302420Y-70067416D01*
X140360802Y-69811630D01*
X140369295Y-69698300D01*
X140380408Y-69550004D01*
X140380408Y-69549995D01*
X140360803Y-69288379D01*
X140360802Y-69288374D01*
X140360802Y-69288370D01*
X140302420Y-69032584D01*
X140206568Y-68788357D01*
X140075386Y-68561143D01*
X139911805Y-68356019D01*
X139911804Y-68356018D01*
X139911801Y-68356014D01*
X139719479Y-68177567D01*
X139662111Y-68138454D01*
X139502704Y-68029772D01*
X139502700Y-68029770D01*
X139502697Y-68029768D01*
X139502696Y-68029767D01*
X139266325Y-67915938D01*
X139266327Y-67915938D01*
X139015623Y-67838606D01*
X139015619Y-67838605D01*
X139015615Y-67838604D01*
X138890823Y-67819794D01*
X138756187Y-67799500D01*
X138756182Y-67799500D01*
X138493818Y-67799500D01*
X138493812Y-67799500D01*
X138332247Y-67823853D01*
X138234385Y-67838604D01*
X138234382Y-67838605D01*
X138234376Y-67838606D01*
X137983686Y-67915933D01*
X137983677Y-67915937D01*
X137943367Y-67935349D01*
X137874426Y-67946700D01*
X137810291Y-67918977D01*
X137801886Y-67911309D01*
X137475519Y-67584942D01*
X137442034Y-67523619D01*
X137439200Y-67497261D01*
X137439200Y-67102739D01*
X137458885Y-67035700D01*
X137475519Y-67015058D01*
X137707558Y-66783019D01*
X137768881Y-66749534D01*
X137795239Y-66746700D01*
X141250555Y-66746700D01*
X141317594Y-66766385D01*
X141363349Y-66819189D01*
X141374082Y-66881505D01*
X141365100Y-66984174D01*
X141359341Y-67049999D01*
X141359341Y-67050000D01*
X141379936Y-67285403D01*
X141379938Y-67285413D01*
X141441094Y-67513655D01*
X141441096Y-67513659D01*
X141441097Y-67513663D01*
X141521004Y-67685023D01*
X141540965Y-67727830D01*
X141540967Y-67727834D01*
X141618531Y-67838606D01*
X141676505Y-67921401D01*
X141843599Y-68088495D01*
X141907623Y-68133325D01*
X142037165Y-68224032D01*
X142037167Y-68224033D01*
X142037170Y-68224035D01*
X142251337Y-68323903D01*
X142479592Y-68385063D01*
X142650319Y-68400000D01*
X142714999Y-68405659D01*
X142715000Y-68405659D01*
X142715001Y-68405659D01*
X142779681Y-68400000D01*
X142950408Y-68385063D01*
X143178663Y-68323903D01*
X143392830Y-68224035D01*
X143586401Y-68088495D01*
X143753495Y-67921401D01*
X143883425Y-67735842D01*
X143938002Y-67692217D01*
X144007500Y-67685023D01*
X144069855Y-67716546D01*
X144086575Y-67735842D01*
X144216500Y-67921395D01*
X144216505Y-67921401D01*
X144383599Y-68088495D01*
X144447623Y-68133325D01*
X144577165Y-68224032D01*
X144577167Y-68224033D01*
X144577170Y-68224035D01*
X144791337Y-68323903D01*
X145019592Y-68385063D01*
X145190319Y-68400000D01*
X145254999Y-68405659D01*
X145255000Y-68405659D01*
X145255001Y-68405659D01*
X145319681Y-68400000D01*
X145490408Y-68385063D01*
X145718663Y-68323903D01*
X145932830Y-68224035D01*
X146126401Y-68088495D01*
X146293495Y-67921401D01*
X146423425Y-67735842D01*
X146478002Y-67692217D01*
X146547500Y-67685023D01*
X146609855Y-67716546D01*
X146626575Y-67735842D01*
X146756500Y-67921395D01*
X146756505Y-67921401D01*
X146923599Y-68088495D01*
X146987623Y-68133325D01*
X147117165Y-68224032D01*
X147117167Y-68224033D01*
X147117170Y-68224035D01*
X147331337Y-68323903D01*
X147559592Y-68385063D01*
X147730319Y-68400000D01*
X147794999Y-68405659D01*
X147795000Y-68405659D01*
X147795001Y-68405659D01*
X147859681Y-68400000D01*
X148030408Y-68385063D01*
X148258663Y-68323903D01*
X148472830Y-68224035D01*
X148666401Y-68088495D01*
X148833495Y-67921401D01*
X148963425Y-67735842D01*
X149018002Y-67692217D01*
X149087500Y-67685023D01*
X149149855Y-67716546D01*
X149166575Y-67735842D01*
X149296501Y-67921396D01*
X149296506Y-67921402D01*
X149463597Y-68088493D01*
X149463603Y-68088498D01*
X149527623Y-68133325D01*
X149571248Y-68187901D01*
X149580500Y-68234900D01*
X149580500Y-69255552D01*
X149580499Y-69255578D01*
X149580499Y-69260688D01*
X149580499Y-69409312D01*
X149580499Y-69409314D01*
X149580498Y-69409314D01*
X149609493Y-69555073D01*
X149609496Y-69555083D01*
X149666366Y-69692381D01*
X149666372Y-69692392D01*
X149748942Y-69815968D01*
X152069031Y-72136057D01*
X152069034Y-72136059D01*
X152192611Y-72218630D01*
X152207548Y-72224817D01*
X152261951Y-72268657D01*
X152284017Y-72334951D01*
X152266739Y-72402650D01*
X152234408Y-72438644D01*
X152122452Y-72522455D01*
X152036206Y-72637664D01*
X152036202Y-72637671D01*
X151985908Y-72772517D01*
X151979501Y-72832116D01*
X151979500Y-72832135D01*
X151979500Y-73627870D01*
X151979501Y-73627876D01*
X151985908Y-73687483D01*
X152036202Y-73822328D01*
X152036206Y-73822335D01*
X152122452Y-73937544D01*
X152122455Y-73937547D01*
X152237664Y-74023793D01*
X152237671Y-74023797D01*
X152274864Y-74037669D01*
X152372517Y-74074091D01*
X152432127Y-74080500D01*
X152727872Y-74080499D01*
X152727873Y-74080498D01*
X152727885Y-74080498D01*
X152766744Y-74076320D01*
X152793252Y-74076320D01*
X152832127Y-74080500D01*
X153127872Y-74080499D01*
X153127873Y-74080498D01*
X153127885Y-74080498D01*
X153166744Y-74076320D01*
X153193252Y-74076320D01*
X153232127Y-74080500D01*
X153527872Y-74080499D01*
X153536711Y-74079548D01*
X153569094Y-74076068D01*
X153595606Y-74076068D01*
X153632166Y-74079999D01*
X153632182Y-74080000D01*
X153927821Y-74080000D01*
X153927831Y-74079999D01*
X153966742Y-74075815D01*
X153993258Y-74075815D01*
X154032168Y-74079999D01*
X154032179Y-74080000D01*
X154327821Y-74080000D01*
X154327831Y-74079999D01*
X154366742Y-74075815D01*
X154393258Y-74075815D01*
X154432168Y-74079999D01*
X154432179Y-74080000D01*
X154727819Y-74080000D01*
X154727833Y-74079999D01*
X154764395Y-74076068D01*
X154790905Y-74076068D01*
X154832127Y-74080500D01*
X155127872Y-74080499D01*
X155136711Y-74079548D01*
X155169094Y-74076068D01*
X155195606Y-74076068D01*
X155232166Y-74079999D01*
X155232182Y-74080000D01*
X155527821Y-74080000D01*
X155527831Y-74079999D01*
X155566742Y-74075815D01*
X155593258Y-74075815D01*
X155632168Y-74079999D01*
X155632179Y-74080000D01*
X155927819Y-74080000D01*
X155927833Y-74079999D01*
X155964395Y-74076068D01*
X155990905Y-74076068D01*
X156032127Y-74080500D01*
X156327872Y-74080499D01*
X156327873Y-74080498D01*
X156327885Y-74080498D01*
X156366744Y-74076320D01*
X156393252Y-74076320D01*
X156432127Y-74080500D01*
X156727872Y-74080499D01*
X156727873Y-74080498D01*
X156727885Y-74080498D01*
X156766744Y-74076320D01*
X156793252Y-74076320D01*
X156832127Y-74080500D01*
X157127872Y-74080499D01*
X157127873Y-74080498D01*
X157127885Y-74080498D01*
X157166744Y-74076320D01*
X157193252Y-74076320D01*
X157232127Y-74080500D01*
X157527872Y-74080499D01*
X157527873Y-74080498D01*
X157527885Y-74080498D01*
X157566744Y-74076320D01*
X157593252Y-74076320D01*
X157632127Y-74080500D01*
X157927872Y-74080499D01*
X157927873Y-74080498D01*
X157927885Y-74080498D01*
X157966744Y-74076320D01*
X157993252Y-74076320D01*
X158032127Y-74080500D01*
X158327872Y-74080499D01*
X158327873Y-74080498D01*
X158327885Y-74080498D01*
X158366744Y-74076320D01*
X158393252Y-74076320D01*
X158432127Y-74080500D01*
X158727872Y-74080499D01*
X158727873Y-74080498D01*
X158727885Y-74080498D01*
X158766744Y-74076320D01*
X158793252Y-74076320D01*
X158832127Y-74080500D01*
X159127872Y-74080499D01*
X159127873Y-74080498D01*
X159127885Y-74080498D01*
X159166744Y-74076320D01*
X159193252Y-74076320D01*
X159232127Y-74080500D01*
X159527872Y-74080499D01*
X159527873Y-74080498D01*
X159527885Y-74080498D01*
X159566744Y-74076320D01*
X159593252Y-74076320D01*
X159632127Y-74080500D01*
X159927872Y-74080499D01*
X159927873Y-74080498D01*
X159927885Y-74080498D01*
X159966744Y-74076320D01*
X159993252Y-74076320D01*
X160032127Y-74080500D01*
X160327872Y-74080499D01*
X160327873Y-74080498D01*
X160327885Y-74080498D01*
X160366744Y-74076320D01*
X160393252Y-74076320D01*
X160432127Y-74080500D01*
X160727872Y-74080499D01*
X160736711Y-74079548D01*
X160769094Y-74076068D01*
X160795606Y-74076068D01*
X160832166Y-74079999D01*
X160832182Y-74080000D01*
X161127819Y-74080000D01*
X161127833Y-74079999D01*
X161164395Y-74076068D01*
X161190905Y-74076068D01*
X161232127Y-74080500D01*
X161527872Y-74080499D01*
X161527873Y-74080498D01*
X161527885Y-74080498D01*
X161566744Y-74076320D01*
X161593252Y-74076320D01*
X161632127Y-74080500D01*
X161927872Y-74080499D01*
X161936711Y-74079548D01*
X161969094Y-74076068D01*
X161995606Y-74076068D01*
X162032166Y-74079999D01*
X162032182Y-74080000D01*
X162327821Y-74080000D01*
X162327831Y-74079999D01*
X162366742Y-74075815D01*
X162393258Y-74075815D01*
X162432168Y-74079999D01*
X162432179Y-74080000D01*
X162727821Y-74080000D01*
X162727831Y-74079999D01*
X162766742Y-74075815D01*
X162793258Y-74075815D01*
X162832168Y-74079999D01*
X162832179Y-74080000D01*
X163127819Y-74080000D01*
X163127833Y-74079999D01*
X163164395Y-74076068D01*
X163190905Y-74076068D01*
X163232127Y-74080500D01*
X163527872Y-74080499D01*
X163527873Y-74080498D01*
X163527885Y-74080498D01*
X163566744Y-74076320D01*
X163593252Y-74076320D01*
X163632127Y-74080500D01*
X163927872Y-74080499D01*
X163927873Y-74080498D01*
X163927885Y-74080498D01*
X163966744Y-74076320D01*
X163993252Y-74076320D01*
X164032127Y-74080500D01*
X164327872Y-74080499D01*
X164327873Y-74080498D01*
X164327885Y-74080498D01*
X164366744Y-74076320D01*
X164393252Y-74076320D01*
X164432127Y-74080500D01*
X164727872Y-74080499D01*
X164727873Y-74080498D01*
X164727885Y-74080498D01*
X164766744Y-74076320D01*
X164793252Y-74076320D01*
X164832127Y-74080500D01*
X165127872Y-74080499D01*
X165127873Y-74080498D01*
X165127885Y-74080498D01*
X165166744Y-74076320D01*
X165193252Y-74076320D01*
X165232127Y-74080500D01*
X165527872Y-74080499D01*
X165536711Y-74079548D01*
X165569094Y-74076068D01*
X165595606Y-74076068D01*
X165632166Y-74079999D01*
X165632182Y-74080000D01*
X165927819Y-74080000D01*
X165927833Y-74079999D01*
X165964395Y-74076068D01*
X165990905Y-74076068D01*
X166032127Y-74080500D01*
X166327872Y-74080499D01*
X166327873Y-74080498D01*
X166327885Y-74080498D01*
X166366744Y-74076320D01*
X166393252Y-74076320D01*
X166432127Y-74080500D01*
X166727872Y-74080499D01*
X166727873Y-74080498D01*
X166727885Y-74080498D01*
X166766744Y-74076320D01*
X166793252Y-74076320D01*
X166832127Y-74080500D01*
X167127872Y-74080499D01*
X167127873Y-74080498D01*
X167127885Y-74080498D01*
X167166744Y-74076320D01*
X167193252Y-74076320D01*
X167232127Y-74080500D01*
X167527872Y-74080499D01*
X167536711Y-74079548D01*
X167569094Y-74076068D01*
X167595606Y-74076068D01*
X167632166Y-74079999D01*
X167632182Y-74080000D01*
X167927819Y-74080000D01*
X167927833Y-74079999D01*
X167964395Y-74076068D01*
X167990905Y-74076068D01*
X168032127Y-74080500D01*
X168327872Y-74080499D01*
X168327873Y-74080498D01*
X168327885Y-74080498D01*
X168366744Y-74076320D01*
X168393252Y-74076320D01*
X168432127Y-74080500D01*
X168727872Y-74080499D01*
X168736711Y-74079548D01*
X168769094Y-74076068D01*
X168795606Y-74076068D01*
X168832166Y-74079999D01*
X168832182Y-74080000D01*
X169127819Y-74080000D01*
X169127833Y-74079999D01*
X169164395Y-74076068D01*
X169190905Y-74076068D01*
X169232127Y-74080500D01*
X169527872Y-74080499D01*
X169527873Y-74080498D01*
X169527885Y-74080498D01*
X169566744Y-74076320D01*
X169593252Y-74076320D01*
X169632127Y-74080500D01*
X169927872Y-74080499D01*
X169936711Y-74079548D01*
X169969094Y-74076068D01*
X169995606Y-74076068D01*
X170032166Y-74079999D01*
X170032182Y-74080000D01*
X170327819Y-74080000D01*
X170327833Y-74079999D01*
X170364395Y-74076068D01*
X170390905Y-74076068D01*
X170432127Y-74080500D01*
X170727872Y-74080499D01*
X170727873Y-74080498D01*
X170727885Y-74080498D01*
X170766744Y-74076320D01*
X170793252Y-74076320D01*
X170832127Y-74080500D01*
X171127872Y-74080499D01*
X171136711Y-74079548D01*
X171169094Y-74076068D01*
X171195606Y-74076068D01*
X171232166Y-74079999D01*
X171232182Y-74080000D01*
X171527821Y-74080000D01*
X171527831Y-74079999D01*
X171566742Y-74075815D01*
X171593258Y-74075815D01*
X171632168Y-74079999D01*
X171632179Y-74080000D01*
X171927821Y-74080000D01*
X171927831Y-74079999D01*
X171966742Y-74075815D01*
X171993258Y-74075815D01*
X172032168Y-74079999D01*
X172032179Y-74080000D01*
X172327828Y-74080000D01*
X172327844Y-74079999D01*
X172387372Y-74073598D01*
X172387379Y-74073596D01*
X172522086Y-74023354D01*
X172522093Y-74023350D01*
X172637187Y-73937190D01*
X172637190Y-73937187D01*
X172723350Y-73822093D01*
X172723354Y-73822086D01*
X172773596Y-73687379D01*
X172773598Y-73687372D01*
X172779999Y-73627844D01*
X172780000Y-73627827D01*
X172780000Y-72832172D01*
X172779999Y-72832155D01*
X172773598Y-72772627D01*
X172773596Y-72772620D01*
X172723354Y-72637913D01*
X172723350Y-72637906D01*
X172637190Y-72522812D01*
X172637187Y-72522809D01*
X172522093Y-72436649D01*
X172522086Y-72436645D01*
X172387379Y-72386403D01*
X172387372Y-72386401D01*
X172327844Y-72380000D01*
X172032164Y-72380000D01*
X171993252Y-72384183D01*
X171966748Y-72384183D01*
X171927835Y-72380000D01*
X171632164Y-72380000D01*
X171593252Y-72384183D01*
X171566748Y-72384183D01*
X171527835Y-72380000D01*
X171232165Y-72380000D01*
X171195598Y-72383931D01*
X171169092Y-72383931D01*
X171127873Y-72379500D01*
X170832131Y-72379500D01*
X170832119Y-72379501D01*
X170793253Y-72383679D01*
X170766748Y-72383679D01*
X170727874Y-72379500D01*
X170432132Y-72379500D01*
X170432117Y-72379501D01*
X170390904Y-72383931D01*
X170364402Y-72383931D01*
X170327834Y-72380000D01*
X170032165Y-72380000D01*
X169995598Y-72383931D01*
X169969092Y-72383931D01*
X169927873Y-72379500D01*
X169632131Y-72379500D01*
X169632119Y-72379501D01*
X169593253Y-72383679D01*
X169566748Y-72383679D01*
X169527874Y-72379500D01*
X169232132Y-72379500D01*
X169232117Y-72379501D01*
X169190904Y-72383931D01*
X169164402Y-72383931D01*
X169127834Y-72380000D01*
X168832165Y-72380000D01*
X168795598Y-72383931D01*
X168769092Y-72383931D01*
X168727873Y-72379500D01*
X168432131Y-72379500D01*
X168432119Y-72379501D01*
X168393253Y-72383679D01*
X168366748Y-72383679D01*
X168327875Y-72379500D01*
X168080700Y-72379500D01*
X168013661Y-72359815D01*
X167967906Y-72307011D01*
X167956700Y-72255500D01*
X167956700Y-71279078D01*
X167956700Y-71279076D01*
X167917399Y-71132402D01*
X167881504Y-71070231D01*
X167841477Y-71000901D01*
X167841472Y-71000895D01*
X166643297Y-69802720D01*
X169600830Y-69802720D01*
X169772546Y-69919793D01*
X169772550Y-69919795D01*
X170008854Y-70033594D01*
X170008858Y-70033595D01*
X170259494Y-70110907D01*
X170259500Y-70110909D01*
X170518848Y-70149999D01*
X170518857Y-70150000D01*
X170781143Y-70150000D01*
X170781151Y-70149999D01*
X171040499Y-70110909D01*
X171040505Y-70110907D01*
X171291143Y-70033595D01*
X171527445Y-69919798D01*
X171527447Y-69919797D01*
X171699168Y-69802720D01*
X170650000Y-68753553D01*
X169600830Y-69802720D01*
X166643297Y-69802720D01*
X165361319Y-68520742D01*
X165327834Y-68459419D01*
X165325000Y-68433061D01*
X165325000Y-67483012D01*
X165382007Y-67515925D01*
X165509174Y-67550000D01*
X165640826Y-67550000D01*
X165767993Y-67515925D01*
X165825000Y-67483012D01*
X165825000Y-68400000D01*
X166472828Y-68400000D01*
X166472844Y-68399999D01*
X166472881Y-68399995D01*
X168895093Y-68399995D01*
X168895093Y-68400000D01*
X168914692Y-68661545D01*
X168914693Y-68661550D01*
X168973058Y-68917270D01*
X169068883Y-69161426D01*
X169068882Y-69161426D01*
X169200027Y-69388573D01*
X169247874Y-69448571D01*
X170296447Y-68400000D01*
X170296447Y-68399999D01*
X171003553Y-68399999D01*
X171003553Y-68400000D01*
X172052125Y-69448572D01*
X172099971Y-69388573D01*
X172231116Y-69161426D01*
X172326941Y-68917270D01*
X172385306Y-68661550D01*
X172385307Y-68661545D01*
X172404907Y-68400000D01*
X172404907Y-68399995D01*
X172385307Y-68138454D01*
X172385306Y-68138449D01*
X172326941Y-67882729D01*
X172231116Y-67638573D01*
X172231117Y-67638573D01*
X172099972Y-67411426D01*
X172052124Y-67351427D01*
X171003553Y-68399999D01*
X170296447Y-68399999D01*
X169247874Y-67351427D01*
X169200028Y-67411425D01*
X169068883Y-67638573D01*
X168973058Y-67882729D01*
X168914693Y-68138449D01*
X168914692Y-68138454D01*
X168895093Y-68399995D01*
X166472881Y-68399995D01*
X166532372Y-68393598D01*
X166532379Y-68393596D01*
X166667086Y-68343354D01*
X166667093Y-68343350D01*
X166782187Y-68257190D01*
X166782190Y-68257187D01*
X166868350Y-68142093D01*
X166868354Y-68142086D01*
X166918596Y-68007379D01*
X166918598Y-68007372D01*
X166924999Y-67947844D01*
X166925000Y-67947827D01*
X166925000Y-67300000D01*
X166008012Y-67300000D01*
X166040925Y-67242993D01*
X166075000Y-67115826D01*
X166075000Y-66997277D01*
X169600830Y-66997277D01*
X170650000Y-68046447D01*
X170650001Y-68046447D01*
X171699168Y-66997278D01*
X171527454Y-66880206D01*
X171527445Y-66880201D01*
X171291142Y-66766404D01*
X171291144Y-66766404D01*
X171040505Y-66689092D01*
X171040499Y-66689090D01*
X170781151Y-66650000D01*
X170518848Y-66650000D01*
X170259500Y-66689090D01*
X170259494Y-66689092D01*
X170008858Y-66766404D01*
X170008854Y-66766405D01*
X169772547Y-66880205D01*
X169772539Y-66880210D01*
X169600830Y-66997277D01*
X166075000Y-66997277D01*
X166075000Y-66984174D01*
X166040925Y-66857007D01*
X166008012Y-66800000D01*
X166925000Y-66800000D01*
X166925000Y-66152172D01*
X166924999Y-66152155D01*
X166918598Y-66092627D01*
X166918596Y-66092620D01*
X166868354Y-65957913D01*
X166868350Y-65957906D01*
X166782190Y-65842812D01*
X166782187Y-65842809D01*
X166667093Y-65756649D01*
X166667086Y-65756645D01*
X166532379Y-65706403D01*
X166532372Y-65706401D01*
X166472844Y-65700000D01*
X165825000Y-65700000D01*
X165825000Y-66616988D01*
X165767993Y-66584075D01*
X165640826Y-66550000D01*
X165509174Y-66550000D01*
X165382007Y-66584075D01*
X165325000Y-66616988D01*
X165325000Y-65700000D01*
X164677155Y-65700000D01*
X164617627Y-65706401D01*
X164617620Y-65706403D01*
X164482913Y-65756645D01*
X164482906Y-65756649D01*
X164367812Y-65842809D01*
X164367809Y-65842812D01*
X164281649Y-65957906D01*
X164281645Y-65957913D01*
X164232578Y-66089470D01*
X164190707Y-66145404D01*
X164125242Y-66169821D01*
X164056969Y-66154969D01*
X164028715Y-66133819D01*
X163984366Y-66089470D01*
X163906401Y-66011505D01*
X163906397Y-66011502D01*
X163906396Y-66011501D01*
X163712834Y-65875967D01*
X163712830Y-65875965D01*
X163605043Y-65825703D01*
X163498663Y-65776097D01*
X163498659Y-65776096D01*
X163498655Y-65776094D01*
X163270413Y-65714938D01*
X163270403Y-65714936D01*
X163035001Y-65694341D01*
X163034999Y-65694341D01*
X162799596Y-65714936D01*
X162799586Y-65714938D01*
X162571344Y-65776094D01*
X162571335Y-65776098D01*
X162357171Y-65875964D01*
X162357169Y-65875965D01*
X162163597Y-66011505D01*
X161996505Y-66178597D01*
X161866575Y-66364158D01*
X161811998Y-66407783D01*
X161742500Y-66414977D01*
X161680145Y-66383454D01*
X161663425Y-66364158D01*
X161533494Y-66178597D01*
X161366404Y-66011508D01*
X161366402Y-66011506D01*
X161366401Y-66011505D01*
X161366396Y-66011501D01*
X161366393Y-66011499D01*
X161302376Y-65966673D01*
X161258751Y-65912096D01*
X161249500Y-65865099D01*
X161249500Y-65303500D01*
X161269185Y-65236461D01*
X161321989Y-65190706D01*
X161373500Y-65179500D01*
X173896500Y-65179500D01*
X173963539Y-65199185D01*
G37*
%TD.AperFunction*%
%TA.AperFunction,Conductor*%
G36*
X134856903Y-95172926D02*
G01*
X134863381Y-95178958D01*
X137488525Y-97804102D01*
X138538525Y-98854102D01*
X138645898Y-98961475D01*
X138645899Y-98961476D01*
X138645901Y-98961477D01*
X138664183Y-98972032D01*
X138777402Y-99037399D01*
X138924076Y-99076700D01*
X140125501Y-99076700D01*
X140192540Y-99096385D01*
X140238295Y-99149189D01*
X140249501Y-99200700D01*
X140249501Y-99397876D01*
X140255908Y-99457483D01*
X140306202Y-99592328D01*
X140306206Y-99592335D01*
X140392452Y-99707544D01*
X140392455Y-99707547D01*
X140482605Y-99775034D01*
X140524476Y-99830968D01*
X140529460Y-99900659D01*
X140495974Y-99961982D01*
X140434651Y-99995466D01*
X140408294Y-99998300D01*
X138915239Y-99998300D01*
X138848200Y-99978615D01*
X138827558Y-99961981D01*
X134688019Y-95822442D01*
X134654534Y-95761119D01*
X134651700Y-95734761D01*
X134651700Y-95266639D01*
X134671385Y-95199600D01*
X134724189Y-95153845D01*
X134793347Y-95143901D01*
X134856903Y-95172926D01*
G37*
%TD.AperFunction*%
%TA.AperFunction,Conductor*%
G36*
X146731800Y-78976385D02*
G01*
X146752442Y-78993019D01*
X163796981Y-96037558D01*
X163830466Y-96098881D01*
X163833300Y-96125239D01*
X163833300Y-97225613D01*
X163813615Y-97292652D01*
X163780423Y-97327188D01*
X163588597Y-97461505D01*
X163421505Y-97628597D01*
X163291575Y-97814158D01*
X163236998Y-97857783D01*
X163167500Y-97864977D01*
X163105145Y-97833454D01*
X163088425Y-97814158D01*
X162958494Y-97628597D01*
X162791402Y-97461506D01*
X162791395Y-97461501D01*
X162597834Y-97325967D01*
X162597830Y-97325965D01*
X162548290Y-97302864D01*
X162383663Y-97226097D01*
X162383659Y-97226096D01*
X162383655Y-97226094D01*
X162155413Y-97164938D01*
X162155403Y-97164936D01*
X161920001Y-97144341D01*
X161919999Y-97144341D01*
X161684596Y-97164936D01*
X161684586Y-97164938D01*
X161456344Y-97226094D01*
X161456335Y-97226098D01*
X161242171Y-97325964D01*
X161242169Y-97325965D01*
X161048597Y-97461505D01*
X160881508Y-97628594D01*
X160751269Y-97814595D01*
X160696692Y-97858219D01*
X160627193Y-97865412D01*
X160564839Y-97833890D01*
X160548119Y-97814594D01*
X160418113Y-97628926D01*
X160418108Y-97628920D01*
X160251082Y-97461894D01*
X160057578Y-97326399D01*
X159843492Y-97226570D01*
X159843486Y-97226567D01*
X159630000Y-97169364D01*
X159630000Y-98066988D01*
X159572993Y-98034075D01*
X159445826Y-98000000D01*
X159314174Y-98000000D01*
X159187007Y-98034075D01*
X159130000Y-98066988D01*
X159130000Y-97169364D01*
X159129999Y-97169364D01*
X158916513Y-97226567D01*
X158916507Y-97226570D01*
X158702422Y-97326399D01*
X158702420Y-97326400D01*
X158508926Y-97461886D01*
X158508920Y-97461891D01*
X158341891Y-97628920D01*
X158341890Y-97628922D01*
X158211880Y-97814595D01*
X158157303Y-97858219D01*
X158087804Y-97865412D01*
X158025450Y-97833890D01*
X158008730Y-97814594D01*
X157878494Y-97628597D01*
X157711402Y-97461506D01*
X157711395Y-97461501D01*
X157517834Y-97325967D01*
X157517830Y-97325965D01*
X157468290Y-97302864D01*
X157303663Y-97226097D01*
X157303659Y-97226096D01*
X157303655Y-97226094D01*
X157075413Y-97164938D01*
X157075403Y-97164936D01*
X156840001Y-97144341D01*
X156839999Y-97144341D01*
X156604596Y-97164936D01*
X156604586Y-97164938D01*
X156376344Y-97226094D01*
X156376335Y-97226098D01*
X156162171Y-97325964D01*
X156162169Y-97325965D01*
X155968597Y-97461505D01*
X155801505Y-97628597D01*
X155671575Y-97814158D01*
X155616998Y-97857783D01*
X155547500Y-97864977D01*
X155485145Y-97833454D01*
X155468425Y-97814158D01*
X155338494Y-97628597D01*
X155171402Y-97461506D01*
X155171395Y-97461501D01*
X154977832Y-97325966D01*
X154873294Y-97277218D01*
X154820855Y-97231045D01*
X154801700Y-97164836D01*
X154801700Y-91174078D01*
X154801700Y-91174076D01*
X154762399Y-91027402D01*
X154741327Y-90990905D01*
X154686477Y-90895901D01*
X154686472Y-90895895D01*
X142958958Y-79168381D01*
X142925473Y-79107058D01*
X142930457Y-79037366D01*
X142972329Y-78981433D01*
X143037793Y-78957016D01*
X143046639Y-78956700D01*
X146664761Y-78956700D01*
X146731800Y-78976385D01*
G37*
%TD.AperFunction*%
%TA.AperFunction,Conductor*%
G36*
X137518100Y-84200185D02*
G01*
X137538742Y-84216819D01*
X140615491Y-87293568D01*
X140648976Y-87354891D01*
X140643992Y-87424583D01*
X140615491Y-87468930D01*
X140398112Y-87686309D01*
X140336789Y-87719794D01*
X140267097Y-87714810D01*
X140256642Y-87710353D01*
X140216323Y-87690937D01*
X140201319Y-87686309D01*
X139965623Y-87613606D01*
X139965619Y-87613605D01*
X139965615Y-87613604D01*
X139840823Y-87594794D01*
X139706187Y-87574500D01*
X139706182Y-87574500D01*
X139443818Y-87574500D01*
X139443812Y-87574500D01*
X139282247Y-87598853D01*
X139184385Y-87613604D01*
X139184382Y-87613605D01*
X139184376Y-87613606D01*
X138933673Y-87690938D01*
X138697303Y-87804767D01*
X138697302Y-87804768D01*
X138480520Y-87952567D01*
X138288198Y-88131014D01*
X138124614Y-88336143D01*
X137993432Y-88563356D01*
X137897582Y-88807578D01*
X137897576Y-88807597D01*
X137839197Y-89063374D01*
X137839196Y-89063379D01*
X137819592Y-89324995D01*
X137819592Y-89325004D01*
X137839196Y-89586620D01*
X137839197Y-89586625D01*
X137897576Y-89842402D01*
X137897578Y-89842411D01*
X137897580Y-89842416D01*
X137993432Y-90086643D01*
X138124614Y-90313857D01*
X138256736Y-90479533D01*
X138288198Y-90518985D01*
X138469753Y-90687441D01*
X138480521Y-90697433D01*
X138697296Y-90845228D01*
X138697301Y-90845230D01*
X138697302Y-90845231D01*
X138697303Y-90845232D01*
X138822843Y-90905688D01*
X138933673Y-90959061D01*
X138933674Y-90959061D01*
X138933677Y-90959063D01*
X139184385Y-91036396D01*
X139443818Y-91075500D01*
X139706182Y-91075500D01*
X139965615Y-91036396D01*
X140216323Y-90959063D01*
X140452704Y-90845228D01*
X140669479Y-90697433D01*
X140861805Y-90518981D01*
X141025386Y-90313857D01*
X141156568Y-90086643D01*
X141252420Y-89842416D01*
X141310802Y-89586630D01*
X141322380Y-89432128D01*
X141330408Y-89325004D01*
X141330408Y-89324995D01*
X141310803Y-89063379D01*
X141310802Y-89063374D01*
X141310802Y-89063370D01*
X141252420Y-88807584D01*
X141185003Y-88635808D01*
X141178834Y-88566211D01*
X141211272Y-88504328D01*
X141212681Y-88502894D01*
X141431071Y-88284504D01*
X141492391Y-88251022D01*
X141562083Y-88256006D01*
X141606430Y-88284507D01*
X146036981Y-92715058D01*
X146070466Y-92776381D01*
X146073300Y-92802739D01*
X146073300Y-97213800D01*
X146053615Y-97280839D01*
X146006255Y-97322207D01*
X146006861Y-97323257D01*
X146002169Y-97325965D01*
X145808597Y-97461505D01*
X145641505Y-97628597D01*
X145511575Y-97814158D01*
X145456998Y-97857783D01*
X145387500Y-97864977D01*
X145325145Y-97833454D01*
X145308425Y-97814158D01*
X145178494Y-97628597D01*
X145011402Y-97461506D01*
X145011395Y-97461501D01*
X144817834Y-97325967D01*
X144817830Y-97325965D01*
X144768290Y-97302864D01*
X144603663Y-97226097D01*
X144603659Y-97226096D01*
X144603655Y-97226094D01*
X144375413Y-97164938D01*
X144375403Y-97164936D01*
X144140001Y-97144341D01*
X144139999Y-97144341D01*
X143904596Y-97164936D01*
X143904586Y-97164938D01*
X143676344Y-97226094D01*
X143676335Y-97226098D01*
X143462171Y-97325964D01*
X143462169Y-97325965D01*
X143268600Y-97461503D01*
X143146673Y-97583430D01*
X143085350Y-97616914D01*
X143015658Y-97611930D01*
X142959725Y-97570058D01*
X142942810Y-97539081D01*
X142893797Y-97407671D01*
X142893793Y-97407664D01*
X142807547Y-97292455D01*
X142807544Y-97292452D01*
X142692335Y-97206206D01*
X142692328Y-97206202D01*
X142557482Y-97155908D01*
X142557483Y-97155908D01*
X142497883Y-97149501D01*
X142497881Y-97149500D01*
X142497873Y-97149500D01*
X142497864Y-97149500D01*
X140702129Y-97149500D01*
X140702123Y-97149501D01*
X140642516Y-97155908D01*
X140507671Y-97206202D01*
X140507664Y-97206206D01*
X140392455Y-97292452D01*
X140392452Y-97292455D01*
X140306206Y-97407664D01*
X140306202Y-97407671D01*
X140255908Y-97542517D01*
X140249501Y-97602116D01*
X140249500Y-97602135D01*
X140249500Y-97799300D01*
X140229815Y-97866339D01*
X140177011Y-97912094D01*
X140125500Y-97923300D01*
X139290239Y-97923300D01*
X139223200Y-97903615D01*
X139202558Y-97886981D01*
X139103257Y-97787680D01*
X139069772Y-97726357D01*
X139074756Y-97656665D01*
X139103253Y-97612323D01*
X140760599Y-95954976D01*
X140821920Y-95921493D01*
X140866760Y-95920044D01*
X141068818Y-95950500D01*
X141331182Y-95950500D01*
X141590615Y-95911396D01*
X141841323Y-95834063D01*
X142077704Y-95720228D01*
X142294479Y-95572433D01*
X142486805Y-95393981D01*
X142650386Y-95188857D01*
X142781568Y-94961643D01*
X142877420Y-94717416D01*
X142935802Y-94461630D01*
X142935803Y-94461620D01*
X142955408Y-94200004D01*
X142955408Y-94199995D01*
X142935803Y-93938379D01*
X142935802Y-93938374D01*
X142935802Y-93938370D01*
X142877420Y-93682584D01*
X142781568Y-93438357D01*
X142650386Y-93211143D01*
X142486805Y-93006019D01*
X142486804Y-93006018D01*
X142486801Y-93006014D01*
X142294479Y-92827567D01*
X142252690Y-92799076D01*
X142077704Y-92679772D01*
X142077700Y-92679770D01*
X142077697Y-92679768D01*
X142077696Y-92679767D01*
X141841325Y-92565938D01*
X141841327Y-92565938D01*
X141590623Y-92488606D01*
X141590619Y-92488605D01*
X141590615Y-92488604D01*
X141465823Y-92469794D01*
X141331187Y-92449500D01*
X141331182Y-92449500D01*
X141068818Y-92449500D01*
X141068812Y-92449500D01*
X140907247Y-92473853D01*
X140809385Y-92488604D01*
X140809382Y-92488605D01*
X140809376Y-92488606D01*
X140558673Y-92565938D01*
X140322303Y-92679767D01*
X140322302Y-92679768D01*
X140105520Y-92827567D01*
X139913198Y-93006014D01*
X139749614Y-93211143D01*
X139618432Y-93438356D01*
X139522582Y-93682578D01*
X139522576Y-93682597D01*
X139464197Y-93938374D01*
X139464196Y-93938379D01*
X139444592Y-94199995D01*
X139444592Y-94200004D01*
X139464196Y-94461620D01*
X139464197Y-94461625D01*
X139522576Y-94717402D01*
X139522578Y-94717411D01*
X139522580Y-94717416D01*
X139618432Y-94961643D01*
X139749614Y-95188857D01*
X139749623Y-95188869D01*
X139750905Y-95190749D01*
X139751157Y-95191530D01*
X139751934Y-95192875D01*
X139751646Y-95193041D01*
X139772408Y-95257227D01*
X139754557Y-95324778D01*
X139736135Y-95348286D01*
X138347442Y-96736981D01*
X138286119Y-96770466D01*
X138259761Y-96773300D01*
X138140239Y-96773300D01*
X138073200Y-96753615D01*
X138052558Y-96736981D01*
X135707757Y-94392180D01*
X135674272Y-94330857D01*
X135679256Y-94261165D01*
X135721128Y-94205232D01*
X135786592Y-94180815D01*
X135795438Y-94180499D01*
X136307871Y-94180499D01*
X136307872Y-94180499D01*
X136367483Y-94174091D01*
X136502331Y-94123796D01*
X136617546Y-94037546D01*
X136703796Y-93922331D01*
X136754091Y-93787483D01*
X136760500Y-93727873D01*
X136760499Y-93432128D01*
X136756067Y-93390898D01*
X136756068Y-93364393D01*
X136759999Y-93327833D01*
X136760000Y-93327819D01*
X136760000Y-93032182D01*
X136759999Y-93032164D01*
X136756068Y-92995602D01*
X136756068Y-92969094D01*
X136760500Y-92927873D01*
X136760499Y-92632128D01*
X136756067Y-92590898D01*
X136756068Y-92564393D01*
X136759999Y-92527833D01*
X136760000Y-92527819D01*
X136760000Y-92232182D01*
X136759999Y-92232164D01*
X136756068Y-92195602D01*
X136756068Y-92169094D01*
X136760500Y-92127873D01*
X136760499Y-91832128D01*
X136756067Y-91790898D01*
X136756068Y-91764393D01*
X136759999Y-91727833D01*
X136760000Y-91727819D01*
X136760000Y-91432182D01*
X136759999Y-91432164D01*
X136756068Y-91395602D01*
X136756068Y-91369094D01*
X136760500Y-91327873D01*
X136760499Y-91032128D01*
X136756067Y-90990898D01*
X136756068Y-90964393D01*
X136759999Y-90927833D01*
X136760000Y-90927819D01*
X136760000Y-90632179D01*
X136759999Y-90632168D01*
X136755815Y-90593258D01*
X136755815Y-90566742D01*
X136759999Y-90527831D01*
X136760000Y-90527821D01*
X136760000Y-90232179D01*
X136759999Y-90232168D01*
X136755815Y-90193258D01*
X136755815Y-90166742D01*
X136759999Y-90127831D01*
X136760000Y-90127821D01*
X136760000Y-89832182D01*
X136759999Y-89832164D01*
X136756068Y-89795602D01*
X136756068Y-89769094D01*
X136760500Y-89727873D01*
X136760499Y-89432128D01*
X136760498Y-89432111D01*
X136756320Y-89393253D01*
X136756320Y-89366747D01*
X136760500Y-89327873D01*
X136760499Y-89032128D01*
X136756067Y-88990898D01*
X136756068Y-88964393D01*
X136759999Y-88927833D01*
X136760000Y-88927819D01*
X136760000Y-88632179D01*
X136759999Y-88632168D01*
X136755815Y-88593258D01*
X136755815Y-88566742D01*
X136759999Y-88527831D01*
X136760000Y-88527821D01*
X136760000Y-88232182D01*
X136759999Y-88232164D01*
X136756068Y-88195602D01*
X136756068Y-88169094D01*
X136760500Y-88127873D01*
X136760499Y-87832128D01*
X136760498Y-87832111D01*
X136756320Y-87793253D01*
X136756320Y-87766747D01*
X136760500Y-87727873D01*
X136760499Y-87432128D01*
X136760498Y-87432111D01*
X136756320Y-87393253D01*
X136756320Y-87366747D01*
X136760500Y-87327873D01*
X136760499Y-87032128D01*
X136760498Y-87032111D01*
X136756320Y-86993253D01*
X136756320Y-86966747D01*
X136760500Y-86927873D01*
X136760499Y-86632128D01*
X136756067Y-86590898D01*
X136756068Y-86564393D01*
X136759999Y-86527833D01*
X136760000Y-86527819D01*
X136760000Y-86232182D01*
X136759999Y-86232164D01*
X136756068Y-86195602D01*
X136756068Y-86169094D01*
X136760500Y-86127873D01*
X136760499Y-85832128D01*
X136760498Y-85832111D01*
X136756320Y-85793253D01*
X136756320Y-85766747D01*
X136760500Y-85727873D01*
X136760499Y-85432128D01*
X136760498Y-85432111D01*
X136756320Y-85393253D01*
X136756320Y-85366747D01*
X136760500Y-85327873D01*
X136760499Y-85032128D01*
X136760498Y-85032111D01*
X136756320Y-84993253D01*
X136756320Y-84966747D01*
X136760500Y-84927873D01*
X136760499Y-84632128D01*
X136760498Y-84632111D01*
X136756320Y-84593253D01*
X136756320Y-84566747D01*
X136760500Y-84527873D01*
X136760499Y-84304500D01*
X136780183Y-84237461D01*
X136832987Y-84191706D01*
X136884499Y-84180500D01*
X137451061Y-84180500D01*
X137518100Y-84200185D01*
G37*
%TD.AperFunction*%
%TA.AperFunction,Conductor*%
G36*
X134316339Y-84176385D02*
G01*
X134362094Y-84229189D01*
X134373300Y-84280700D01*
X134373300Y-86283361D01*
X134353615Y-86350400D01*
X134300811Y-86396155D01*
X134231653Y-86406099D01*
X134168097Y-86377074D01*
X134161619Y-86371042D01*
X134109104Y-86318527D01*
X134109098Y-86318522D01*
X133977600Y-86242602D01*
X133977599Y-86242601D01*
X133977598Y-86242601D01*
X133830924Y-86203300D01*
X133830923Y-86203300D01*
X133804500Y-86203300D01*
X133737461Y-86183615D01*
X133691706Y-86130811D01*
X133680500Y-86079300D01*
X133680499Y-85832128D01*
X133680498Y-85832111D01*
X133676320Y-85793253D01*
X133676320Y-85766747D01*
X133680500Y-85727873D01*
X133680499Y-85432128D01*
X133680498Y-85432111D01*
X133676320Y-85393253D01*
X133676320Y-85366747D01*
X133680500Y-85327873D01*
X133680499Y-85032128D01*
X133680498Y-85032111D01*
X133676320Y-84993253D01*
X133676320Y-84966747D01*
X133680500Y-84927873D01*
X133680499Y-84632128D01*
X133680498Y-84632111D01*
X133676320Y-84593253D01*
X133676320Y-84566747D01*
X133680500Y-84527873D01*
X133680499Y-84280699D01*
X133700183Y-84213661D01*
X133752987Y-84167906D01*
X133804499Y-84156700D01*
X134249300Y-84156700D01*
X134316339Y-84176385D01*
G37*
%TD.AperFunction*%
%TD*%
M02*
