M48
; DRILL file {KiCad 8.0.2-8.0.2-0~ubuntu20.04.1} date 2024-06-01T01:08:53-0500
; FORMAT={-:-/ absolute / inch / decimal}
; #@! TF.CreationDate,2024-06-01T01:08:53-05:00
; #@! TF.GenerationSoftware,Kicad,Pcbnew,8.0.2-8.0.2-0~ubuntu20.04.1
; #@! TF.FileFunction,Plated,1,2,PTH
FMAT,2
INCH
; #@! TA.AperFunction,Plated,PTH,ViaDrill
T1C0.0157
; #@! TA.AperFunction,Plated,PTH,ComponentDrill
T2C0.0394
%
G90
G05
T1
X5.4311Y-3.8878
X5.4459Y-3.4075
X6.2943Y-3.3474
X6.2953Y-3.2303
X6.2953Y-3.4045
X6.2963Y-3.2874
X6.3514Y-3.3474
X6.3524Y-3.2303
X6.3524Y-3.4045
X6.3533Y-3.2874
X6.4183Y-3.3474
X6.4193Y-3.2303
X6.4193Y-3.4045
X6.4203Y-3.2874
X6.4813Y-3.3474
X6.4823Y-3.2303
X6.4823Y-3.4045
X6.4833Y-3.2874
X6.5433Y-3.3455
X6.5443Y-3.2283
X6.5443Y-3.4026
X6.5453Y-3.2854
X6.6004Y-3.3455
X6.6014Y-3.2283
X6.6014Y-3.4026
X6.6024Y-3.2854
X6.6673Y-3.3455
X6.6683Y-3.2283
X6.6683Y-3.4026
X6.6693Y-3.2854
X6.7303Y-3.3455
X6.7313Y-3.2283
X6.7313Y-3.4026
X6.7323Y-3.2854
T2
X5.5748Y-3.878
X5.6187Y-2.6398
X5.6748Y-3.878
X5.7187Y-2.6398
X5.7748Y-3.878
X5.8187Y-2.6398
X5.8748Y-3.878
X5.9187Y-2.6398
X5.9748Y-3.878
X6.0187Y-2.6398
X6.0748Y-3.878
X6.1187Y-2.6398
X6.1748Y-3.878
X6.2187Y-2.6398
X6.2748Y-3.878
X6.3187Y-2.6398
X6.3748Y-3.878
X6.4187Y-2.6398
X6.4748Y-3.878
X6.5187Y-2.6398
M30
