%TF.GenerationSoftware,KiCad,Pcbnew,8.0.2-8.0.2-0~ubuntu20.04.1*%
%TF.CreationDate,2024-06-01T01:08:54-05:00*%
%TF.ProjectId,coral_b2b_breakout,636f7261-6c5f-4623-9262-5f627265616b,rev?*%
%TF.SameCoordinates,Original*%
%TF.FileFunction,Drillmap*%
%TF.FilePolarity,Positive*%
%FSLAX45Y45*%
G04 Gerber Fmt 4.5, Leading zero omitted, Abs format (unit mm)*
G04 Created by KiCad (PCBNEW 8.0.2-8.0.2-0~ubuntu20.04.1) date 2024-06-01 01:08:54*
%MOMM*%
%LPD*%
G01*
G04 APERTURE LIST*
%ADD10C,0.050000*%
%ADD11C,0.200000*%
G04 APERTURE END LIST*
D10*
X12875000Y-6247500D02*
X17660000Y-6247500D01*
X17660000Y-10480000D01*
X12875000Y-10480000D01*
X12875000Y-6247500D01*
D11*
X13133277Y-10793984D02*
X13133277Y-10593984D01*
X13133277Y-10593984D02*
X13180896Y-10593984D01*
X13180896Y-10593984D02*
X13209467Y-10603508D01*
X13209467Y-10603508D02*
X13228515Y-10622555D01*
X13228515Y-10622555D02*
X13238039Y-10641603D01*
X13238039Y-10641603D02*
X13247562Y-10679698D01*
X13247562Y-10679698D02*
X13247562Y-10708270D01*
X13247562Y-10708270D02*
X13238039Y-10746365D01*
X13238039Y-10746365D02*
X13228515Y-10765412D01*
X13228515Y-10765412D02*
X13209467Y-10784460D01*
X13209467Y-10784460D02*
X13180896Y-10793984D01*
X13180896Y-10793984D02*
X13133277Y-10793984D01*
X13333277Y-10793984D02*
X13333277Y-10660650D01*
X13333277Y-10698746D02*
X13342801Y-10679698D01*
X13342801Y-10679698D02*
X13352324Y-10670174D01*
X13352324Y-10670174D02*
X13371372Y-10660650D01*
X13371372Y-10660650D02*
X13390420Y-10660650D01*
X13457086Y-10793984D02*
X13457086Y-10660650D01*
X13457086Y-10593984D02*
X13447562Y-10603508D01*
X13447562Y-10603508D02*
X13457086Y-10613031D01*
X13457086Y-10613031D02*
X13466610Y-10603508D01*
X13466610Y-10603508D02*
X13457086Y-10593984D01*
X13457086Y-10593984D02*
X13457086Y-10613031D01*
X13580896Y-10793984D02*
X13561848Y-10784460D01*
X13561848Y-10784460D02*
X13552324Y-10765412D01*
X13552324Y-10765412D02*
X13552324Y-10593984D01*
X13685658Y-10793984D02*
X13666610Y-10784460D01*
X13666610Y-10784460D02*
X13657086Y-10765412D01*
X13657086Y-10765412D02*
X13657086Y-10593984D01*
X13914229Y-10793984D02*
X13914229Y-10593984D01*
X13914229Y-10593984D02*
X13980896Y-10736841D01*
X13980896Y-10736841D02*
X14047562Y-10593984D01*
X14047562Y-10593984D02*
X14047562Y-10793984D01*
X14228515Y-10793984D02*
X14228515Y-10689222D01*
X14228515Y-10689222D02*
X14218991Y-10670174D01*
X14218991Y-10670174D02*
X14199943Y-10660650D01*
X14199943Y-10660650D02*
X14161848Y-10660650D01*
X14161848Y-10660650D02*
X14142801Y-10670174D01*
X14228515Y-10784460D02*
X14209467Y-10793984D01*
X14209467Y-10793984D02*
X14161848Y-10793984D01*
X14161848Y-10793984D02*
X14142801Y-10784460D01*
X14142801Y-10784460D02*
X14133277Y-10765412D01*
X14133277Y-10765412D02*
X14133277Y-10746365D01*
X14133277Y-10746365D02*
X14142801Y-10727317D01*
X14142801Y-10727317D02*
X14161848Y-10717793D01*
X14161848Y-10717793D02*
X14209467Y-10717793D01*
X14209467Y-10717793D02*
X14228515Y-10708270D01*
X14323753Y-10660650D02*
X14323753Y-10860650D01*
X14323753Y-10670174D02*
X14342801Y-10660650D01*
X14342801Y-10660650D02*
X14380896Y-10660650D01*
X14380896Y-10660650D02*
X14399943Y-10670174D01*
X14399943Y-10670174D02*
X14409467Y-10679698D01*
X14409467Y-10679698D02*
X14418991Y-10698746D01*
X14418991Y-10698746D02*
X14418991Y-10755889D01*
X14418991Y-10755889D02*
X14409467Y-10774936D01*
X14409467Y-10774936D02*
X14399943Y-10784460D01*
X14399943Y-10784460D02*
X14380896Y-10793984D01*
X14380896Y-10793984D02*
X14342801Y-10793984D01*
X14342801Y-10793984D02*
X14323753Y-10784460D01*
X14504705Y-10774936D02*
X14514229Y-10784460D01*
X14514229Y-10784460D02*
X14504705Y-10793984D01*
X14504705Y-10793984D02*
X14495182Y-10784460D01*
X14495182Y-10784460D02*
X14504705Y-10774936D01*
X14504705Y-10774936D02*
X14504705Y-10793984D01*
X14504705Y-10670174D02*
X14514229Y-10679698D01*
X14514229Y-10679698D02*
X14504705Y-10689222D01*
X14504705Y-10689222D02*
X14495182Y-10679698D01*
X14495182Y-10679698D02*
X14504705Y-10670174D01*
X14504705Y-10670174D02*
X14504705Y-10689222D01*
M02*
