%TF.GenerationSoftware,KiCad,Pcbnew,8.0.2-8.0.2-0~ubuntu20.04.1*%
%TF.CreationDate,2024-06-01T01:08:57-05:00*%
%TF.ProjectId,coral_b2b_breakout,636f7261-6c5f-4623-9262-5f627265616b,rev?*%
%TF.SameCoordinates,Original*%
%TF.FileFunction,Legend,Top*%
%TF.FilePolarity,Positive*%
%FSLAX46Y46*%
G04 Gerber Fmt 4.6, Leading zero omitted, Abs format (unit mm)*
G04 Created by KiCad (PCBNEW 8.0.2-8.0.2-0~ubuntu20.04.1) date 2024-06-01 01:08:57*
%MOMM*%
%LPD*%
G01*
G04 APERTURE LIST*
%ADD10C,0.127000*%
%ADD11C,0.150000*%
%ADD12C,0.254000*%
%ADD13C,0.120000*%
%ADD14C,0.100000*%
G04 APERTURE END LIST*
D10*
X161397837Y-64182396D02*
X161483552Y-64220491D01*
X161483552Y-64220491D02*
X161626409Y-64220491D01*
X161626409Y-64220491D02*
X161683552Y-64182396D01*
X161683552Y-64182396D02*
X161712123Y-64144300D01*
X161712123Y-64144300D02*
X161740694Y-64068110D01*
X161740694Y-64068110D02*
X161740694Y-63991919D01*
X161740694Y-63991919D02*
X161712123Y-63915729D01*
X161712123Y-63915729D02*
X161683552Y-63877634D01*
X161683552Y-63877634D02*
X161626409Y-63839538D01*
X161626409Y-63839538D02*
X161512123Y-63801443D01*
X161512123Y-63801443D02*
X161454980Y-63763348D01*
X161454980Y-63763348D02*
X161426409Y-63725253D01*
X161426409Y-63725253D02*
X161397837Y-63649062D01*
X161397837Y-63649062D02*
X161397837Y-63572872D01*
X161397837Y-63572872D02*
X161426409Y-63496681D01*
X161426409Y-63496681D02*
X161454980Y-63458586D01*
X161454980Y-63458586D02*
X161512123Y-63420491D01*
X161512123Y-63420491D02*
X161654980Y-63420491D01*
X161654980Y-63420491D02*
X161740694Y-63458586D01*
X161997838Y-64220491D02*
X161997838Y-63420491D01*
X161997838Y-63420491D02*
X162226409Y-63420491D01*
X162226409Y-63420491D02*
X162283552Y-63458586D01*
X162283552Y-63458586D02*
X162312123Y-63496681D01*
X162312123Y-63496681D02*
X162340695Y-63572872D01*
X162340695Y-63572872D02*
X162340695Y-63687157D01*
X162340695Y-63687157D02*
X162312123Y-63763348D01*
X162312123Y-63763348D02*
X162283552Y-63801443D01*
X162283552Y-63801443D02*
X162226409Y-63839538D01*
X162226409Y-63839538D02*
X161997838Y-63839538D01*
X162597838Y-64220491D02*
X162597838Y-63420491D01*
X163197837Y-64220491D02*
X162854980Y-64220491D01*
X163026409Y-64220491D02*
X163026409Y-63420491D01*
X163026409Y-63420491D02*
X162969266Y-63534776D01*
X162969266Y-63534776D02*
X162912123Y-63610967D01*
X162912123Y-63610967D02*
X162854980Y-63649062D01*
X163312124Y-64296681D02*
X163769266Y-64296681D01*
X163883552Y-64182396D02*
X163969267Y-64220491D01*
X163969267Y-64220491D02*
X164112124Y-64220491D01*
X164112124Y-64220491D02*
X164169267Y-64182396D01*
X164169267Y-64182396D02*
X164197838Y-64144300D01*
X164197838Y-64144300D02*
X164226409Y-64068110D01*
X164226409Y-64068110D02*
X164226409Y-63991919D01*
X164226409Y-63991919D02*
X164197838Y-63915729D01*
X164197838Y-63915729D02*
X164169267Y-63877634D01*
X164169267Y-63877634D02*
X164112124Y-63839538D01*
X164112124Y-63839538D02*
X163997838Y-63801443D01*
X163997838Y-63801443D02*
X163940695Y-63763348D01*
X163940695Y-63763348D02*
X163912124Y-63725253D01*
X163912124Y-63725253D02*
X163883552Y-63649062D01*
X163883552Y-63649062D02*
X163883552Y-63572872D01*
X163883552Y-63572872D02*
X163912124Y-63496681D01*
X163912124Y-63496681D02*
X163940695Y-63458586D01*
X163940695Y-63458586D02*
X163997838Y-63420491D01*
X163997838Y-63420491D02*
X164140695Y-63420491D01*
X164140695Y-63420491D02*
X164226409Y-63458586D01*
X164483553Y-64220491D02*
X164483553Y-63420491D01*
X164483553Y-63420491D02*
X164626410Y-63420491D01*
X164626410Y-63420491D02*
X164712124Y-63458586D01*
X164712124Y-63458586D02*
X164769267Y-63534776D01*
X164769267Y-63534776D02*
X164797838Y-63610967D01*
X164797838Y-63610967D02*
X164826410Y-63763348D01*
X164826410Y-63763348D02*
X164826410Y-63877634D01*
X164826410Y-63877634D02*
X164797838Y-64030015D01*
X164797838Y-64030015D02*
X164769267Y-64106205D01*
X164769267Y-64106205D02*
X164712124Y-64182396D01*
X164712124Y-64182396D02*
X164626410Y-64220491D01*
X164626410Y-64220491D02*
X164483553Y-64220491D01*
X165083553Y-64220491D02*
X165083553Y-63420491D01*
X160115694Y-65595491D02*
X159772837Y-65595491D01*
X159944266Y-65595491D02*
X159944266Y-64795491D01*
X159944266Y-64795491D02*
X159887123Y-64909776D01*
X159887123Y-64909776D02*
X159829980Y-64985967D01*
X159829980Y-64985967D02*
X159772837Y-65024062D01*
X160372838Y-65519300D02*
X160401409Y-65557396D01*
X160401409Y-65557396D02*
X160372838Y-65595491D01*
X160372838Y-65595491D02*
X160344266Y-65557396D01*
X160344266Y-65557396D02*
X160372838Y-65519300D01*
X160372838Y-65519300D02*
X160372838Y-65595491D01*
X160744266Y-65138348D02*
X160687123Y-65100253D01*
X160687123Y-65100253D02*
X160658552Y-65062157D01*
X160658552Y-65062157D02*
X160629980Y-64985967D01*
X160629980Y-64985967D02*
X160629980Y-64947872D01*
X160629980Y-64947872D02*
X160658552Y-64871681D01*
X160658552Y-64871681D02*
X160687123Y-64833586D01*
X160687123Y-64833586D02*
X160744266Y-64795491D01*
X160744266Y-64795491D02*
X160858552Y-64795491D01*
X160858552Y-64795491D02*
X160915695Y-64833586D01*
X160915695Y-64833586D02*
X160944266Y-64871681D01*
X160944266Y-64871681D02*
X160972837Y-64947872D01*
X160972837Y-64947872D02*
X160972837Y-64985967D01*
X160972837Y-64985967D02*
X160944266Y-65062157D01*
X160944266Y-65062157D02*
X160915695Y-65100253D01*
X160915695Y-65100253D02*
X160858552Y-65138348D01*
X160858552Y-65138348D02*
X160744266Y-65138348D01*
X160744266Y-65138348D02*
X160687123Y-65176443D01*
X160687123Y-65176443D02*
X160658552Y-65214538D01*
X160658552Y-65214538D02*
X160629980Y-65290729D01*
X160629980Y-65290729D02*
X160629980Y-65443110D01*
X160629980Y-65443110D02*
X160658552Y-65519300D01*
X160658552Y-65519300D02*
X160687123Y-65557396D01*
X160687123Y-65557396D02*
X160744266Y-65595491D01*
X160744266Y-65595491D02*
X160858552Y-65595491D01*
X160858552Y-65595491D02*
X160915695Y-65557396D01*
X160915695Y-65557396D02*
X160944266Y-65519300D01*
X160944266Y-65519300D02*
X160972837Y-65443110D01*
X160972837Y-65443110D02*
X160972837Y-65290729D01*
X160972837Y-65290729D02*
X160944266Y-65214538D01*
X160944266Y-65214538D02*
X160915695Y-65176443D01*
X160915695Y-65176443D02*
X160858552Y-65138348D01*
X156147837Y-64132396D02*
X156233552Y-64170491D01*
X156233552Y-64170491D02*
X156376409Y-64170491D01*
X156376409Y-64170491D02*
X156433552Y-64132396D01*
X156433552Y-64132396D02*
X156462123Y-64094300D01*
X156462123Y-64094300D02*
X156490694Y-64018110D01*
X156490694Y-64018110D02*
X156490694Y-63941919D01*
X156490694Y-63941919D02*
X156462123Y-63865729D01*
X156462123Y-63865729D02*
X156433552Y-63827634D01*
X156433552Y-63827634D02*
X156376409Y-63789538D01*
X156376409Y-63789538D02*
X156262123Y-63751443D01*
X156262123Y-63751443D02*
X156204980Y-63713348D01*
X156204980Y-63713348D02*
X156176409Y-63675253D01*
X156176409Y-63675253D02*
X156147837Y-63599062D01*
X156147837Y-63599062D02*
X156147837Y-63522872D01*
X156147837Y-63522872D02*
X156176409Y-63446681D01*
X156176409Y-63446681D02*
X156204980Y-63408586D01*
X156204980Y-63408586D02*
X156262123Y-63370491D01*
X156262123Y-63370491D02*
X156404980Y-63370491D01*
X156404980Y-63370491D02*
X156490694Y-63408586D01*
X156747838Y-64170491D02*
X156747838Y-63370491D01*
X156747838Y-63370491D02*
X156976409Y-63370491D01*
X156976409Y-63370491D02*
X157033552Y-63408586D01*
X157033552Y-63408586D02*
X157062123Y-63446681D01*
X157062123Y-63446681D02*
X157090695Y-63522872D01*
X157090695Y-63522872D02*
X157090695Y-63637157D01*
X157090695Y-63637157D02*
X157062123Y-63713348D01*
X157062123Y-63713348D02*
X157033552Y-63751443D01*
X157033552Y-63751443D02*
X156976409Y-63789538D01*
X156976409Y-63789538D02*
X156747838Y-63789538D01*
X157347838Y-64170491D02*
X157347838Y-63370491D01*
X157947837Y-64170491D02*
X157604980Y-64170491D01*
X157776409Y-64170491D02*
X157776409Y-63370491D01*
X157776409Y-63370491D02*
X157719266Y-63484776D01*
X157719266Y-63484776D02*
X157662123Y-63560967D01*
X157662123Y-63560967D02*
X157604980Y-63599062D01*
X158062124Y-64246681D02*
X158519266Y-64246681D01*
X158633552Y-64132396D02*
X158719267Y-64170491D01*
X158719267Y-64170491D02*
X158862124Y-64170491D01*
X158862124Y-64170491D02*
X158919267Y-64132396D01*
X158919267Y-64132396D02*
X158947838Y-64094300D01*
X158947838Y-64094300D02*
X158976409Y-64018110D01*
X158976409Y-64018110D02*
X158976409Y-63941919D01*
X158976409Y-63941919D02*
X158947838Y-63865729D01*
X158947838Y-63865729D02*
X158919267Y-63827634D01*
X158919267Y-63827634D02*
X158862124Y-63789538D01*
X158862124Y-63789538D02*
X158747838Y-63751443D01*
X158747838Y-63751443D02*
X158690695Y-63713348D01*
X158690695Y-63713348D02*
X158662124Y-63675253D01*
X158662124Y-63675253D02*
X158633552Y-63599062D01*
X158633552Y-63599062D02*
X158633552Y-63522872D01*
X158633552Y-63522872D02*
X158662124Y-63446681D01*
X158662124Y-63446681D02*
X158690695Y-63408586D01*
X158690695Y-63408586D02*
X158747838Y-63370491D01*
X158747838Y-63370491D02*
X158890695Y-63370491D01*
X158890695Y-63370491D02*
X158976409Y-63408586D01*
X159233553Y-64170491D02*
X159233553Y-63370491D01*
X159233553Y-63370491D02*
X159376410Y-63370491D01*
X159376410Y-63370491D02*
X159462124Y-63408586D01*
X159462124Y-63408586D02*
X159519267Y-63484776D01*
X159519267Y-63484776D02*
X159547838Y-63560967D01*
X159547838Y-63560967D02*
X159576410Y-63713348D01*
X159576410Y-63713348D02*
X159576410Y-63827634D01*
X159576410Y-63827634D02*
X159547838Y-63980015D01*
X159547838Y-63980015D02*
X159519267Y-64056205D01*
X159519267Y-64056205D02*
X159462124Y-64132396D01*
X159462124Y-64132396D02*
X159376410Y-64170491D01*
X159376410Y-64170491D02*
X159233553Y-64170491D01*
X159947838Y-63370491D02*
X160004981Y-63370491D01*
X160004981Y-63370491D02*
X160062124Y-63408586D01*
X160062124Y-63408586D02*
X160090696Y-63446681D01*
X160090696Y-63446681D02*
X160119267Y-63522872D01*
X160119267Y-63522872D02*
X160147838Y-63675253D01*
X160147838Y-63675253D02*
X160147838Y-63865729D01*
X160147838Y-63865729D02*
X160119267Y-64018110D01*
X160119267Y-64018110D02*
X160090696Y-64094300D01*
X160090696Y-64094300D02*
X160062124Y-64132396D01*
X160062124Y-64132396D02*
X160004981Y-64170491D01*
X160004981Y-64170491D02*
X159947838Y-64170491D01*
X159947838Y-64170491D02*
X159890696Y-64132396D01*
X159890696Y-64132396D02*
X159862124Y-64094300D01*
X159862124Y-64094300D02*
X159833553Y-64018110D01*
X159833553Y-64018110D02*
X159804981Y-63865729D01*
X159804981Y-63865729D02*
X159804981Y-63675253D01*
X159804981Y-63675253D02*
X159833553Y-63522872D01*
X159833553Y-63522872D02*
X159862124Y-63446681D01*
X159862124Y-63446681D02*
X159890696Y-63408586D01*
X159890696Y-63408586D02*
X159947838Y-63370491D01*
X153872837Y-65357396D02*
X153958552Y-65395491D01*
X153958552Y-65395491D02*
X154101409Y-65395491D01*
X154101409Y-65395491D02*
X154158552Y-65357396D01*
X154158552Y-65357396D02*
X154187123Y-65319300D01*
X154187123Y-65319300D02*
X154215694Y-65243110D01*
X154215694Y-65243110D02*
X154215694Y-65166919D01*
X154215694Y-65166919D02*
X154187123Y-65090729D01*
X154187123Y-65090729D02*
X154158552Y-65052634D01*
X154158552Y-65052634D02*
X154101409Y-65014538D01*
X154101409Y-65014538D02*
X153987123Y-64976443D01*
X153987123Y-64976443D02*
X153929980Y-64938348D01*
X153929980Y-64938348D02*
X153901409Y-64900253D01*
X153901409Y-64900253D02*
X153872837Y-64824062D01*
X153872837Y-64824062D02*
X153872837Y-64747872D01*
X153872837Y-64747872D02*
X153901409Y-64671681D01*
X153901409Y-64671681D02*
X153929980Y-64633586D01*
X153929980Y-64633586D02*
X153987123Y-64595491D01*
X153987123Y-64595491D02*
X154129980Y-64595491D01*
X154129980Y-64595491D02*
X154215694Y-64633586D01*
X154472838Y-65395491D02*
X154472838Y-64595491D01*
X154472838Y-64595491D02*
X154701409Y-64595491D01*
X154701409Y-64595491D02*
X154758552Y-64633586D01*
X154758552Y-64633586D02*
X154787123Y-64671681D01*
X154787123Y-64671681D02*
X154815695Y-64747872D01*
X154815695Y-64747872D02*
X154815695Y-64862157D01*
X154815695Y-64862157D02*
X154787123Y-64938348D01*
X154787123Y-64938348D02*
X154758552Y-64976443D01*
X154758552Y-64976443D02*
X154701409Y-65014538D01*
X154701409Y-65014538D02*
X154472838Y-65014538D01*
X155072838Y-65395491D02*
X155072838Y-64595491D01*
X155672837Y-65395491D02*
X155329980Y-65395491D01*
X155501409Y-65395491D02*
X155501409Y-64595491D01*
X155501409Y-64595491D02*
X155444266Y-64709776D01*
X155444266Y-64709776D02*
X155387123Y-64785967D01*
X155387123Y-64785967D02*
X155329980Y-64824062D01*
X155787124Y-65471681D02*
X156244266Y-65471681D01*
X156387124Y-65395491D02*
X156387124Y-64595491D01*
X156387124Y-64595491D02*
X156615695Y-64595491D01*
X156615695Y-64595491D02*
X156672838Y-64633586D01*
X156672838Y-64633586D02*
X156701409Y-64671681D01*
X156701409Y-64671681D02*
X156729981Y-64747872D01*
X156729981Y-64747872D02*
X156729981Y-64862157D01*
X156729981Y-64862157D02*
X156701409Y-64938348D01*
X156701409Y-64938348D02*
X156672838Y-64976443D01*
X156672838Y-64976443D02*
X156615695Y-65014538D01*
X156615695Y-65014538D02*
X156387124Y-65014538D01*
X157329981Y-65319300D02*
X157301409Y-65357396D01*
X157301409Y-65357396D02*
X157215695Y-65395491D01*
X157215695Y-65395491D02*
X157158552Y-65395491D01*
X157158552Y-65395491D02*
X157072838Y-65357396D01*
X157072838Y-65357396D02*
X157015695Y-65281205D01*
X157015695Y-65281205D02*
X156987124Y-65205015D01*
X156987124Y-65205015D02*
X156958552Y-65052634D01*
X156958552Y-65052634D02*
X156958552Y-64938348D01*
X156958552Y-64938348D02*
X156987124Y-64785967D01*
X156987124Y-64785967D02*
X157015695Y-64709776D01*
X157015695Y-64709776D02*
X157072838Y-64633586D01*
X157072838Y-64633586D02*
X157158552Y-64595491D01*
X157158552Y-64595491D02*
X157215695Y-64595491D01*
X157215695Y-64595491D02*
X157301409Y-64633586D01*
X157301409Y-64633586D02*
X157329981Y-64671681D01*
X157558552Y-65357396D02*
X157644267Y-65395491D01*
X157644267Y-65395491D02*
X157787124Y-65395491D01*
X157787124Y-65395491D02*
X157844267Y-65357396D01*
X157844267Y-65357396D02*
X157872838Y-65319300D01*
X157872838Y-65319300D02*
X157901409Y-65243110D01*
X157901409Y-65243110D02*
X157901409Y-65166919D01*
X157901409Y-65166919D02*
X157872838Y-65090729D01*
X157872838Y-65090729D02*
X157844267Y-65052634D01*
X157844267Y-65052634D02*
X157787124Y-65014538D01*
X157787124Y-65014538D02*
X157672838Y-64976443D01*
X157672838Y-64976443D02*
X157615695Y-64938348D01*
X157615695Y-64938348D02*
X157587124Y-64900253D01*
X157587124Y-64900253D02*
X157558552Y-64824062D01*
X157558552Y-64824062D02*
X157558552Y-64747872D01*
X157558552Y-64747872D02*
X157587124Y-64671681D01*
X157587124Y-64671681D02*
X157615695Y-64633586D01*
X157615695Y-64633586D02*
X157672838Y-64595491D01*
X157672838Y-64595491D02*
X157815695Y-64595491D01*
X157815695Y-64595491D02*
X157901409Y-64633586D01*
X158272838Y-64595491D02*
X158329981Y-64595491D01*
X158329981Y-64595491D02*
X158387124Y-64633586D01*
X158387124Y-64633586D02*
X158415696Y-64671681D01*
X158415696Y-64671681D02*
X158444267Y-64747872D01*
X158444267Y-64747872D02*
X158472838Y-64900253D01*
X158472838Y-64900253D02*
X158472838Y-65090729D01*
X158472838Y-65090729D02*
X158444267Y-65243110D01*
X158444267Y-65243110D02*
X158415696Y-65319300D01*
X158415696Y-65319300D02*
X158387124Y-65357396D01*
X158387124Y-65357396D02*
X158329981Y-65395491D01*
X158329981Y-65395491D02*
X158272838Y-65395491D01*
X158272838Y-65395491D02*
X158215696Y-65357396D01*
X158215696Y-65357396D02*
X158187124Y-65319300D01*
X158187124Y-65319300D02*
X158158553Y-65243110D01*
X158158553Y-65243110D02*
X158129981Y-65090729D01*
X158129981Y-65090729D02*
X158129981Y-64900253D01*
X158129981Y-64900253D02*
X158158553Y-64747872D01*
X158158553Y-64747872D02*
X158187124Y-64671681D01*
X158187124Y-64671681D02*
X158215696Y-64633586D01*
X158215696Y-64633586D02*
X158272838Y-64595491D01*
X150997837Y-64132396D02*
X151083552Y-64170491D01*
X151083552Y-64170491D02*
X151226409Y-64170491D01*
X151226409Y-64170491D02*
X151283552Y-64132396D01*
X151283552Y-64132396D02*
X151312123Y-64094300D01*
X151312123Y-64094300D02*
X151340694Y-64018110D01*
X151340694Y-64018110D02*
X151340694Y-63941919D01*
X151340694Y-63941919D02*
X151312123Y-63865729D01*
X151312123Y-63865729D02*
X151283552Y-63827634D01*
X151283552Y-63827634D02*
X151226409Y-63789538D01*
X151226409Y-63789538D02*
X151112123Y-63751443D01*
X151112123Y-63751443D02*
X151054980Y-63713348D01*
X151054980Y-63713348D02*
X151026409Y-63675253D01*
X151026409Y-63675253D02*
X150997837Y-63599062D01*
X150997837Y-63599062D02*
X150997837Y-63522872D01*
X150997837Y-63522872D02*
X151026409Y-63446681D01*
X151026409Y-63446681D02*
X151054980Y-63408586D01*
X151054980Y-63408586D02*
X151112123Y-63370491D01*
X151112123Y-63370491D02*
X151254980Y-63370491D01*
X151254980Y-63370491D02*
X151340694Y-63408586D01*
X151597838Y-64170491D02*
X151597838Y-63370491D01*
X151597838Y-63370491D02*
X151826409Y-63370491D01*
X151826409Y-63370491D02*
X151883552Y-63408586D01*
X151883552Y-63408586D02*
X151912123Y-63446681D01*
X151912123Y-63446681D02*
X151940695Y-63522872D01*
X151940695Y-63522872D02*
X151940695Y-63637157D01*
X151940695Y-63637157D02*
X151912123Y-63713348D01*
X151912123Y-63713348D02*
X151883552Y-63751443D01*
X151883552Y-63751443D02*
X151826409Y-63789538D01*
X151826409Y-63789538D02*
X151597838Y-63789538D01*
X152197838Y-64170491D02*
X152197838Y-63370491D01*
X152797837Y-64170491D02*
X152454980Y-64170491D01*
X152626409Y-64170491D02*
X152626409Y-63370491D01*
X152626409Y-63370491D02*
X152569266Y-63484776D01*
X152569266Y-63484776D02*
X152512123Y-63560967D01*
X152512123Y-63560967D02*
X152454980Y-63599062D01*
X152912124Y-64246681D02*
X153369266Y-64246681D01*
X153483552Y-64132396D02*
X153569267Y-64170491D01*
X153569267Y-64170491D02*
X153712124Y-64170491D01*
X153712124Y-64170491D02*
X153769267Y-64132396D01*
X153769267Y-64132396D02*
X153797838Y-64094300D01*
X153797838Y-64094300D02*
X153826409Y-64018110D01*
X153826409Y-64018110D02*
X153826409Y-63941919D01*
X153826409Y-63941919D02*
X153797838Y-63865729D01*
X153797838Y-63865729D02*
X153769267Y-63827634D01*
X153769267Y-63827634D02*
X153712124Y-63789538D01*
X153712124Y-63789538D02*
X153597838Y-63751443D01*
X153597838Y-63751443D02*
X153540695Y-63713348D01*
X153540695Y-63713348D02*
X153512124Y-63675253D01*
X153512124Y-63675253D02*
X153483552Y-63599062D01*
X153483552Y-63599062D02*
X153483552Y-63522872D01*
X153483552Y-63522872D02*
X153512124Y-63446681D01*
X153512124Y-63446681D02*
X153540695Y-63408586D01*
X153540695Y-63408586D02*
X153597838Y-63370491D01*
X153597838Y-63370491D02*
X153740695Y-63370491D01*
X153740695Y-63370491D02*
X153826409Y-63408586D01*
X154426410Y-64094300D02*
X154397838Y-64132396D01*
X154397838Y-64132396D02*
X154312124Y-64170491D01*
X154312124Y-64170491D02*
X154254981Y-64170491D01*
X154254981Y-64170491D02*
X154169267Y-64132396D01*
X154169267Y-64132396D02*
X154112124Y-64056205D01*
X154112124Y-64056205D02*
X154083553Y-63980015D01*
X154083553Y-63980015D02*
X154054981Y-63827634D01*
X154054981Y-63827634D02*
X154054981Y-63713348D01*
X154054981Y-63713348D02*
X154083553Y-63560967D01*
X154083553Y-63560967D02*
X154112124Y-63484776D01*
X154112124Y-63484776D02*
X154169267Y-63408586D01*
X154169267Y-63408586D02*
X154254981Y-63370491D01*
X154254981Y-63370491D02*
X154312124Y-63370491D01*
X154312124Y-63370491D02*
X154397838Y-63408586D01*
X154397838Y-63408586D02*
X154426410Y-63446681D01*
X154683553Y-64170491D02*
X154683553Y-63370491D01*
X155026410Y-64170491D02*
X154769267Y-63713348D01*
X155026410Y-63370491D02*
X154683553Y-63827634D01*
X149644266Y-64745491D02*
X150015694Y-64745491D01*
X150015694Y-64745491D02*
X149815694Y-65050253D01*
X149815694Y-65050253D02*
X149901409Y-65050253D01*
X149901409Y-65050253D02*
X149958552Y-65088348D01*
X149958552Y-65088348D02*
X149987123Y-65126443D01*
X149987123Y-65126443D02*
X150015694Y-65202634D01*
X150015694Y-65202634D02*
X150015694Y-65393110D01*
X150015694Y-65393110D02*
X149987123Y-65469300D01*
X149987123Y-65469300D02*
X149958552Y-65507396D01*
X149958552Y-65507396D02*
X149901409Y-65545491D01*
X149901409Y-65545491D02*
X149729980Y-65545491D01*
X149729980Y-65545491D02*
X149672837Y-65507396D01*
X149672837Y-65507396D02*
X149644266Y-65469300D01*
X150272838Y-65469300D02*
X150301409Y-65507396D01*
X150301409Y-65507396D02*
X150272838Y-65545491D01*
X150272838Y-65545491D02*
X150244266Y-65507396D01*
X150244266Y-65507396D02*
X150272838Y-65469300D01*
X150272838Y-65469300D02*
X150272838Y-65545491D01*
X150501409Y-64745491D02*
X150872837Y-64745491D01*
X150872837Y-64745491D02*
X150672837Y-65050253D01*
X150672837Y-65050253D02*
X150758552Y-65050253D01*
X150758552Y-65050253D02*
X150815695Y-65088348D01*
X150815695Y-65088348D02*
X150844266Y-65126443D01*
X150844266Y-65126443D02*
X150872837Y-65202634D01*
X150872837Y-65202634D02*
X150872837Y-65393110D01*
X150872837Y-65393110D02*
X150844266Y-65469300D01*
X150844266Y-65469300D02*
X150815695Y-65507396D01*
X150815695Y-65507396D02*
X150758552Y-65545491D01*
X150758552Y-65545491D02*
X150587123Y-65545491D01*
X150587123Y-65545491D02*
X150529980Y-65507396D01*
X150529980Y-65507396D02*
X150501409Y-65469300D01*
X145951409Y-64020491D02*
X145951409Y-63220491D01*
X145951409Y-63220491D02*
X146179980Y-63220491D01*
X146179980Y-63220491D02*
X146237123Y-63258586D01*
X146237123Y-63258586D02*
X146265694Y-63296681D01*
X146265694Y-63296681D02*
X146294266Y-63372872D01*
X146294266Y-63372872D02*
X146294266Y-63487157D01*
X146294266Y-63487157D02*
X146265694Y-63563348D01*
X146265694Y-63563348D02*
X146237123Y-63601443D01*
X146237123Y-63601443D02*
X146179980Y-63639538D01*
X146179980Y-63639538D02*
X145951409Y-63639538D01*
X146494266Y-63220491D02*
X146637123Y-64020491D01*
X146637123Y-64020491D02*
X146751409Y-63449062D01*
X146751409Y-63449062D02*
X146865694Y-64020491D01*
X146865694Y-64020491D02*
X147008552Y-63220491D01*
X147237123Y-64020491D02*
X147237123Y-63220491D01*
X147237123Y-63220491D02*
X147437123Y-63791919D01*
X147437123Y-63791919D02*
X147637123Y-63220491D01*
X147637123Y-63220491D02*
X147637123Y-64020491D01*
X147894265Y-63296681D02*
X147922837Y-63258586D01*
X147922837Y-63258586D02*
X147979980Y-63220491D01*
X147979980Y-63220491D02*
X148122837Y-63220491D01*
X148122837Y-63220491D02*
X148179980Y-63258586D01*
X148179980Y-63258586D02*
X148208551Y-63296681D01*
X148208551Y-63296681D02*
X148237122Y-63372872D01*
X148237122Y-63372872D02*
X148237122Y-63449062D01*
X148237122Y-63449062D02*
X148208551Y-63563348D01*
X148208551Y-63563348D02*
X147865694Y-64020491D01*
X147865694Y-64020491D02*
X148237122Y-64020491D01*
X148808551Y-64020491D02*
X148465694Y-64020491D01*
X148637123Y-64020491D02*
X148637123Y-63220491D01*
X148637123Y-63220491D02*
X148579980Y-63334776D01*
X148579980Y-63334776D02*
X148522837Y-63410967D01*
X148522837Y-63410967D02*
X148465694Y-63449062D01*
X149265695Y-63601443D02*
X149351409Y-63639538D01*
X149351409Y-63639538D02*
X149379980Y-63677634D01*
X149379980Y-63677634D02*
X149408552Y-63753824D01*
X149408552Y-63753824D02*
X149408552Y-63868110D01*
X149408552Y-63868110D02*
X149379980Y-63944300D01*
X149379980Y-63944300D02*
X149351409Y-63982396D01*
X149351409Y-63982396D02*
X149294266Y-64020491D01*
X149294266Y-64020491D02*
X149065695Y-64020491D01*
X149065695Y-64020491D02*
X149065695Y-63220491D01*
X149065695Y-63220491D02*
X149265695Y-63220491D01*
X149265695Y-63220491D02*
X149322838Y-63258586D01*
X149322838Y-63258586D02*
X149351409Y-63296681D01*
X149351409Y-63296681D02*
X149379980Y-63372872D01*
X149379980Y-63372872D02*
X149379980Y-63449062D01*
X149379980Y-63449062D02*
X149351409Y-63525253D01*
X149351409Y-63525253D02*
X149322838Y-63563348D01*
X149322838Y-63563348D02*
X149265695Y-63601443D01*
X149265695Y-63601443D02*
X149065695Y-63601443D01*
X141801409Y-64820491D02*
X141801409Y-64020491D01*
X141801409Y-64020491D02*
X142029980Y-64020491D01*
X142029980Y-64020491D02*
X142087123Y-64058586D01*
X142087123Y-64058586D02*
X142115694Y-64096681D01*
X142115694Y-64096681D02*
X142144266Y-64172872D01*
X142144266Y-64172872D02*
X142144266Y-64287157D01*
X142144266Y-64287157D02*
X142115694Y-64363348D01*
X142115694Y-64363348D02*
X142087123Y-64401443D01*
X142087123Y-64401443D02*
X142029980Y-64439538D01*
X142029980Y-64439538D02*
X141801409Y-64439538D01*
X142344266Y-64020491D02*
X142487123Y-64820491D01*
X142487123Y-64820491D02*
X142601409Y-64249062D01*
X142601409Y-64249062D02*
X142715694Y-64820491D01*
X142715694Y-64820491D02*
X142858552Y-64020491D01*
X143087123Y-64820491D02*
X143087123Y-64020491D01*
X143087123Y-64020491D02*
X143287123Y-64591919D01*
X143287123Y-64591919D02*
X143487123Y-64020491D01*
X143487123Y-64020491D02*
X143487123Y-64820491D01*
X143744265Y-64096681D02*
X143772837Y-64058586D01*
X143772837Y-64058586D02*
X143829980Y-64020491D01*
X143829980Y-64020491D02*
X143972837Y-64020491D01*
X143972837Y-64020491D02*
X144029980Y-64058586D01*
X144029980Y-64058586D02*
X144058551Y-64096681D01*
X144058551Y-64096681D02*
X144087122Y-64172872D01*
X144087122Y-64172872D02*
X144087122Y-64249062D01*
X144087122Y-64249062D02*
X144058551Y-64363348D01*
X144058551Y-64363348D02*
X143715694Y-64820491D01*
X143715694Y-64820491D02*
X144087122Y-64820491D01*
X144658551Y-64820491D02*
X144315694Y-64820491D01*
X144487123Y-64820491D02*
X144487123Y-64020491D01*
X144487123Y-64020491D02*
X144429980Y-64134776D01*
X144429980Y-64134776D02*
X144372837Y-64210967D01*
X144372837Y-64210967D02*
X144315694Y-64249062D01*
X144887123Y-64591919D02*
X145172838Y-64591919D01*
X144829980Y-64820491D02*
X145029980Y-64020491D01*
X145029980Y-64020491D02*
X145229980Y-64820491D01*
X137451409Y-66220491D02*
X137451409Y-65420491D01*
X137451409Y-65420491D02*
X137679980Y-65420491D01*
X137679980Y-65420491D02*
X137737123Y-65458586D01*
X137737123Y-65458586D02*
X137765694Y-65496681D01*
X137765694Y-65496681D02*
X137794266Y-65572872D01*
X137794266Y-65572872D02*
X137794266Y-65687157D01*
X137794266Y-65687157D02*
X137765694Y-65763348D01*
X137765694Y-65763348D02*
X137737123Y-65801443D01*
X137737123Y-65801443D02*
X137679980Y-65839538D01*
X137679980Y-65839538D02*
X137451409Y-65839538D01*
X137994266Y-65420491D02*
X138137123Y-66220491D01*
X138137123Y-66220491D02*
X138251409Y-65649062D01*
X138251409Y-65649062D02*
X138365694Y-66220491D01*
X138365694Y-66220491D02*
X138508552Y-65420491D01*
X138737123Y-66220491D02*
X138737123Y-65420491D01*
X138737123Y-65420491D02*
X138937123Y-65991919D01*
X138937123Y-65991919D02*
X139137123Y-65420491D01*
X139137123Y-65420491D02*
X139137123Y-66220491D01*
X139737122Y-66220491D02*
X139394265Y-66220491D01*
X139565694Y-66220491D02*
X139565694Y-65420491D01*
X139565694Y-65420491D02*
X139508551Y-65534776D01*
X139508551Y-65534776D02*
X139451408Y-65610967D01*
X139451408Y-65610967D02*
X139394265Y-65649062D01*
X140308551Y-66220491D02*
X139965694Y-66220491D01*
X140137123Y-66220491D02*
X140137123Y-65420491D01*
X140137123Y-65420491D02*
X140079980Y-65534776D01*
X140079980Y-65534776D02*
X140022837Y-65610967D01*
X140022837Y-65610967D02*
X139965694Y-65649062D01*
X140537123Y-65991919D02*
X140822838Y-65991919D01*
X140479980Y-66220491D02*
X140679980Y-65420491D01*
X140679980Y-65420491D02*
X140879980Y-66220491D01*
X167445694Y-64853586D02*
X167388552Y-64815491D01*
X167388552Y-64815491D02*
X167302837Y-64815491D01*
X167302837Y-64815491D02*
X167217123Y-64853586D01*
X167217123Y-64853586D02*
X167159980Y-64929776D01*
X167159980Y-64929776D02*
X167131409Y-65005967D01*
X167131409Y-65005967D02*
X167102837Y-65158348D01*
X167102837Y-65158348D02*
X167102837Y-65272634D01*
X167102837Y-65272634D02*
X167131409Y-65425015D01*
X167131409Y-65425015D02*
X167159980Y-65501205D01*
X167159980Y-65501205D02*
X167217123Y-65577396D01*
X167217123Y-65577396D02*
X167302837Y-65615491D01*
X167302837Y-65615491D02*
X167359980Y-65615491D01*
X167359980Y-65615491D02*
X167445694Y-65577396D01*
X167445694Y-65577396D02*
X167474266Y-65539300D01*
X167474266Y-65539300D02*
X167474266Y-65272634D01*
X167474266Y-65272634D02*
X167359980Y-65272634D01*
X167731409Y-65615491D02*
X167731409Y-64815491D01*
X167731409Y-64815491D02*
X168074266Y-65615491D01*
X168074266Y-65615491D02*
X168074266Y-64815491D01*
X168359980Y-65615491D02*
X168359980Y-64815491D01*
X168359980Y-64815491D02*
X168502837Y-64815491D01*
X168502837Y-64815491D02*
X168588551Y-64853586D01*
X168588551Y-64853586D02*
X168645694Y-64929776D01*
X168645694Y-64929776D02*
X168674265Y-65005967D01*
X168674265Y-65005967D02*
X168702837Y-65158348D01*
X168702837Y-65158348D02*
X168702837Y-65272634D01*
X168702837Y-65272634D02*
X168674265Y-65425015D01*
X168674265Y-65425015D02*
X168645694Y-65501205D01*
X168645694Y-65501205D02*
X168588551Y-65577396D01*
X168588551Y-65577396D02*
X168502837Y-65615491D01*
X168502837Y-65615491D02*
X168359980Y-65615491D01*
D11*
X139801064Y-101872200D02*
X139915350Y-101919819D01*
X139915350Y-101919819D02*
X140105826Y-101919819D01*
X140105826Y-101919819D02*
X140182017Y-101872200D01*
X140182017Y-101872200D02*
X140220112Y-101824580D01*
X140220112Y-101824580D02*
X140258207Y-101729342D01*
X140258207Y-101729342D02*
X140258207Y-101634104D01*
X140258207Y-101634104D02*
X140220112Y-101538866D01*
X140220112Y-101538866D02*
X140182017Y-101491247D01*
X140182017Y-101491247D02*
X140105826Y-101443628D01*
X140105826Y-101443628D02*
X139953445Y-101396009D01*
X139953445Y-101396009D02*
X139877255Y-101348390D01*
X139877255Y-101348390D02*
X139839160Y-101300771D01*
X139839160Y-101300771D02*
X139801064Y-101205533D01*
X139801064Y-101205533D02*
X139801064Y-101110295D01*
X139801064Y-101110295D02*
X139839160Y-101015057D01*
X139839160Y-101015057D02*
X139877255Y-100967438D01*
X139877255Y-100967438D02*
X139953445Y-100919819D01*
X139953445Y-100919819D02*
X140143922Y-100919819D01*
X140143922Y-100919819D02*
X140258207Y-100967438D01*
X141058208Y-101824580D02*
X141020112Y-101872200D01*
X141020112Y-101872200D02*
X140905827Y-101919819D01*
X140905827Y-101919819D02*
X140829636Y-101919819D01*
X140829636Y-101919819D02*
X140715350Y-101872200D01*
X140715350Y-101872200D02*
X140639160Y-101776961D01*
X140639160Y-101776961D02*
X140601065Y-101681723D01*
X140601065Y-101681723D02*
X140562969Y-101491247D01*
X140562969Y-101491247D02*
X140562969Y-101348390D01*
X140562969Y-101348390D02*
X140601065Y-101157914D01*
X140601065Y-101157914D02*
X140639160Y-101062676D01*
X140639160Y-101062676D02*
X140715350Y-100967438D01*
X140715350Y-100967438D02*
X140829636Y-100919819D01*
X140829636Y-100919819D02*
X140905827Y-100919819D01*
X140905827Y-100919819D02*
X141020112Y-100967438D01*
X141020112Y-100967438D02*
X141058208Y-101015057D01*
X141782017Y-101919819D02*
X141401065Y-101919819D01*
X141401065Y-101919819D02*
X141401065Y-100919819D01*
X142467731Y-101919819D02*
X142010588Y-101919819D01*
X142239160Y-101919819D02*
X142239160Y-100919819D01*
X142239160Y-100919819D02*
X142162969Y-101062676D01*
X142162969Y-101062676D02*
X142086779Y-101157914D01*
X142086779Y-101157914D02*
X142010588Y-101205533D01*
X143382017Y-101872200D02*
X143496303Y-101919819D01*
X143496303Y-101919819D02*
X143686779Y-101919819D01*
X143686779Y-101919819D02*
X143762970Y-101872200D01*
X143762970Y-101872200D02*
X143801065Y-101824580D01*
X143801065Y-101824580D02*
X143839160Y-101729342D01*
X143839160Y-101729342D02*
X143839160Y-101634104D01*
X143839160Y-101634104D02*
X143801065Y-101538866D01*
X143801065Y-101538866D02*
X143762970Y-101491247D01*
X143762970Y-101491247D02*
X143686779Y-101443628D01*
X143686779Y-101443628D02*
X143534398Y-101396009D01*
X143534398Y-101396009D02*
X143458208Y-101348390D01*
X143458208Y-101348390D02*
X143420113Y-101300771D01*
X143420113Y-101300771D02*
X143382017Y-101205533D01*
X143382017Y-101205533D02*
X143382017Y-101110295D01*
X143382017Y-101110295D02*
X143420113Y-101015057D01*
X143420113Y-101015057D02*
X143458208Y-100967438D01*
X143458208Y-100967438D02*
X143534398Y-100919819D01*
X143534398Y-100919819D02*
X143724875Y-100919819D01*
X143724875Y-100919819D02*
X143839160Y-100967438D01*
X144639161Y-101824580D02*
X144601065Y-101872200D01*
X144601065Y-101872200D02*
X144486780Y-101919819D01*
X144486780Y-101919819D02*
X144410589Y-101919819D01*
X144410589Y-101919819D02*
X144296303Y-101872200D01*
X144296303Y-101872200D02*
X144220113Y-101776961D01*
X144220113Y-101776961D02*
X144182018Y-101681723D01*
X144182018Y-101681723D02*
X144143922Y-101491247D01*
X144143922Y-101491247D02*
X144143922Y-101348390D01*
X144143922Y-101348390D02*
X144182018Y-101157914D01*
X144182018Y-101157914D02*
X144220113Y-101062676D01*
X144220113Y-101062676D02*
X144296303Y-100967438D01*
X144296303Y-100967438D02*
X144410589Y-100919819D01*
X144410589Y-100919819D02*
X144486780Y-100919819D01*
X144486780Y-100919819D02*
X144601065Y-100967438D01*
X144601065Y-100967438D02*
X144639161Y-101015057D01*
X145362970Y-101919819D02*
X144982018Y-101919819D01*
X144982018Y-101919819D02*
X144982018Y-100919819D01*
X145972494Y-100919819D02*
X145820113Y-100919819D01*
X145820113Y-100919819D02*
X145743922Y-100967438D01*
X145743922Y-100967438D02*
X145705827Y-101015057D01*
X145705827Y-101015057D02*
X145629637Y-101157914D01*
X145629637Y-101157914D02*
X145591541Y-101348390D01*
X145591541Y-101348390D02*
X145591541Y-101729342D01*
X145591541Y-101729342D02*
X145629637Y-101824580D01*
X145629637Y-101824580D02*
X145667732Y-101872200D01*
X145667732Y-101872200D02*
X145743922Y-101919819D01*
X145743922Y-101919819D02*
X145896303Y-101919819D01*
X145896303Y-101919819D02*
X145972494Y-101872200D01*
X145972494Y-101872200D02*
X146010589Y-101824580D01*
X146010589Y-101824580D02*
X146048684Y-101729342D01*
X146048684Y-101729342D02*
X146048684Y-101491247D01*
X146048684Y-101491247D02*
X146010589Y-101396009D01*
X146010589Y-101396009D02*
X145972494Y-101348390D01*
X145972494Y-101348390D02*
X145896303Y-101300771D01*
X145896303Y-101300771D02*
X145743922Y-101300771D01*
X145743922Y-101300771D02*
X145667732Y-101348390D01*
X145667732Y-101348390D02*
X145629637Y-101396009D01*
X145629637Y-101396009D02*
X145591541Y-101491247D01*
X146962970Y-101872200D02*
X147077256Y-101919819D01*
X147077256Y-101919819D02*
X147267732Y-101919819D01*
X147267732Y-101919819D02*
X147343923Y-101872200D01*
X147343923Y-101872200D02*
X147382018Y-101824580D01*
X147382018Y-101824580D02*
X147420113Y-101729342D01*
X147420113Y-101729342D02*
X147420113Y-101634104D01*
X147420113Y-101634104D02*
X147382018Y-101538866D01*
X147382018Y-101538866D02*
X147343923Y-101491247D01*
X147343923Y-101491247D02*
X147267732Y-101443628D01*
X147267732Y-101443628D02*
X147115351Y-101396009D01*
X147115351Y-101396009D02*
X147039161Y-101348390D01*
X147039161Y-101348390D02*
X147001066Y-101300771D01*
X147001066Y-101300771D02*
X146962970Y-101205533D01*
X146962970Y-101205533D02*
X146962970Y-101110295D01*
X146962970Y-101110295D02*
X147001066Y-101015057D01*
X147001066Y-101015057D02*
X147039161Y-100967438D01*
X147039161Y-100967438D02*
X147115351Y-100919819D01*
X147115351Y-100919819D02*
X147305828Y-100919819D01*
X147305828Y-100919819D02*
X147420113Y-100967438D01*
X147762971Y-101919819D02*
X147762971Y-100919819D01*
X147762971Y-100919819D02*
X147953447Y-100919819D01*
X147953447Y-100919819D02*
X148067733Y-100967438D01*
X148067733Y-100967438D02*
X148143923Y-101062676D01*
X148143923Y-101062676D02*
X148182018Y-101157914D01*
X148182018Y-101157914D02*
X148220114Y-101348390D01*
X148220114Y-101348390D02*
X148220114Y-101491247D01*
X148220114Y-101491247D02*
X148182018Y-101681723D01*
X148182018Y-101681723D02*
X148143923Y-101776961D01*
X148143923Y-101776961D02*
X148067733Y-101872200D01*
X148067733Y-101872200D02*
X147953447Y-101919819D01*
X147953447Y-101919819D02*
X147762971Y-101919819D01*
X148524875Y-101634104D02*
X148905828Y-101634104D01*
X148448685Y-101919819D02*
X148715352Y-100919819D01*
X148715352Y-100919819D02*
X148982018Y-101919819D01*
X149667732Y-101919819D02*
X149210589Y-101919819D01*
X149439161Y-101919819D02*
X149439161Y-100919819D01*
X149439161Y-100919819D02*
X149362970Y-101062676D01*
X149362970Y-101062676D02*
X149286780Y-101157914D01*
X149286780Y-101157914D02*
X149210589Y-101205533D01*
X151039161Y-100967438D02*
X150962971Y-100919819D01*
X150962971Y-100919819D02*
X150848685Y-100919819D01*
X150848685Y-100919819D02*
X150734399Y-100967438D01*
X150734399Y-100967438D02*
X150658209Y-101062676D01*
X150658209Y-101062676D02*
X150620114Y-101157914D01*
X150620114Y-101157914D02*
X150582018Y-101348390D01*
X150582018Y-101348390D02*
X150582018Y-101491247D01*
X150582018Y-101491247D02*
X150620114Y-101681723D01*
X150620114Y-101681723D02*
X150658209Y-101776961D01*
X150658209Y-101776961D02*
X150734399Y-101872200D01*
X150734399Y-101872200D02*
X150848685Y-101919819D01*
X150848685Y-101919819D02*
X150924876Y-101919819D01*
X150924876Y-101919819D02*
X151039161Y-101872200D01*
X151039161Y-101872200D02*
X151077257Y-101824580D01*
X151077257Y-101824580D02*
X151077257Y-101491247D01*
X151077257Y-101491247D02*
X150924876Y-101491247D01*
X151420114Y-101919819D02*
X151420114Y-100919819D01*
X151420114Y-100919819D02*
X151724876Y-100919819D01*
X151724876Y-100919819D02*
X151801066Y-100967438D01*
X151801066Y-100967438D02*
X151839161Y-101015057D01*
X151839161Y-101015057D02*
X151877257Y-101110295D01*
X151877257Y-101110295D02*
X151877257Y-101253152D01*
X151877257Y-101253152D02*
X151839161Y-101348390D01*
X151839161Y-101348390D02*
X151801066Y-101396009D01*
X151801066Y-101396009D02*
X151724876Y-101443628D01*
X151724876Y-101443628D02*
X151420114Y-101443628D01*
X152220114Y-101919819D02*
X152220114Y-100919819D01*
X152753447Y-100919819D02*
X152905828Y-100919819D01*
X152905828Y-100919819D02*
X152982018Y-100967438D01*
X152982018Y-100967438D02*
X153058209Y-101062676D01*
X153058209Y-101062676D02*
X153096304Y-101253152D01*
X153096304Y-101253152D02*
X153096304Y-101586485D01*
X153096304Y-101586485D02*
X153058209Y-101776961D01*
X153058209Y-101776961D02*
X152982018Y-101872200D01*
X152982018Y-101872200D02*
X152905828Y-101919819D01*
X152905828Y-101919819D02*
X152753447Y-101919819D01*
X152753447Y-101919819D02*
X152677256Y-101872200D01*
X152677256Y-101872200D02*
X152601066Y-101776961D01*
X152601066Y-101776961D02*
X152562970Y-101586485D01*
X152562970Y-101586485D02*
X152562970Y-101253152D01*
X152562970Y-101253152D02*
X152601066Y-101062676D01*
X152601066Y-101062676D02*
X152677256Y-100967438D01*
X152677256Y-100967438D02*
X152753447Y-100919819D01*
X153553446Y-101348390D02*
X153477256Y-101300771D01*
X153477256Y-101300771D02*
X153439161Y-101253152D01*
X153439161Y-101253152D02*
X153401065Y-101157914D01*
X153401065Y-101157914D02*
X153401065Y-101110295D01*
X153401065Y-101110295D02*
X153439161Y-101015057D01*
X153439161Y-101015057D02*
X153477256Y-100967438D01*
X153477256Y-100967438D02*
X153553446Y-100919819D01*
X153553446Y-100919819D02*
X153705827Y-100919819D01*
X153705827Y-100919819D02*
X153782018Y-100967438D01*
X153782018Y-100967438D02*
X153820113Y-101015057D01*
X153820113Y-101015057D02*
X153858208Y-101110295D01*
X153858208Y-101110295D02*
X153858208Y-101157914D01*
X153858208Y-101157914D02*
X153820113Y-101253152D01*
X153820113Y-101253152D02*
X153782018Y-101300771D01*
X153782018Y-101300771D02*
X153705827Y-101348390D01*
X153705827Y-101348390D02*
X153553446Y-101348390D01*
X153553446Y-101348390D02*
X153477256Y-101396009D01*
X153477256Y-101396009D02*
X153439161Y-101443628D01*
X153439161Y-101443628D02*
X153401065Y-101538866D01*
X153401065Y-101538866D02*
X153401065Y-101729342D01*
X153401065Y-101729342D02*
X153439161Y-101824580D01*
X153439161Y-101824580D02*
X153477256Y-101872200D01*
X153477256Y-101872200D02*
X153553446Y-101919819D01*
X153553446Y-101919819D02*
X153705827Y-101919819D01*
X153705827Y-101919819D02*
X153782018Y-101872200D01*
X153782018Y-101872200D02*
X153820113Y-101824580D01*
X153820113Y-101824580D02*
X153858208Y-101729342D01*
X153858208Y-101729342D02*
X153858208Y-101538866D01*
X153858208Y-101538866D02*
X153820113Y-101443628D01*
X153820113Y-101443628D02*
X153782018Y-101396009D01*
X153782018Y-101396009D02*
X153705827Y-101348390D01*
X154772494Y-101872200D02*
X154886780Y-101919819D01*
X154886780Y-101919819D02*
X155077256Y-101919819D01*
X155077256Y-101919819D02*
X155153447Y-101872200D01*
X155153447Y-101872200D02*
X155191542Y-101824580D01*
X155191542Y-101824580D02*
X155229637Y-101729342D01*
X155229637Y-101729342D02*
X155229637Y-101634104D01*
X155229637Y-101634104D02*
X155191542Y-101538866D01*
X155191542Y-101538866D02*
X155153447Y-101491247D01*
X155153447Y-101491247D02*
X155077256Y-101443628D01*
X155077256Y-101443628D02*
X154924875Y-101396009D01*
X154924875Y-101396009D02*
X154848685Y-101348390D01*
X154848685Y-101348390D02*
X154810590Y-101300771D01*
X154810590Y-101300771D02*
X154772494Y-101205533D01*
X154772494Y-101205533D02*
X154772494Y-101110295D01*
X154772494Y-101110295D02*
X154810590Y-101015057D01*
X154810590Y-101015057D02*
X154848685Y-100967438D01*
X154848685Y-100967438D02*
X154924875Y-100919819D01*
X154924875Y-100919819D02*
X155115352Y-100919819D01*
X155115352Y-100919819D02*
X155229637Y-100967438D01*
X155572495Y-101919819D02*
X155572495Y-100919819D01*
X155572495Y-100919819D02*
X155762971Y-100919819D01*
X155762971Y-100919819D02*
X155877257Y-100967438D01*
X155877257Y-100967438D02*
X155953447Y-101062676D01*
X155953447Y-101062676D02*
X155991542Y-101157914D01*
X155991542Y-101157914D02*
X156029638Y-101348390D01*
X156029638Y-101348390D02*
X156029638Y-101491247D01*
X156029638Y-101491247D02*
X155991542Y-101681723D01*
X155991542Y-101681723D02*
X155953447Y-101776961D01*
X155953447Y-101776961D02*
X155877257Y-101872200D01*
X155877257Y-101872200D02*
X155762971Y-101919819D01*
X155762971Y-101919819D02*
X155572495Y-101919819D01*
X156334399Y-101634104D02*
X156715352Y-101634104D01*
X156258209Y-101919819D02*
X156524876Y-100919819D01*
X156524876Y-100919819D02*
X156791542Y-101919819D01*
X157401066Y-100919819D02*
X157248685Y-100919819D01*
X157248685Y-100919819D02*
X157172494Y-100967438D01*
X157172494Y-100967438D02*
X157134399Y-101015057D01*
X157134399Y-101015057D02*
X157058209Y-101157914D01*
X157058209Y-101157914D02*
X157020113Y-101348390D01*
X157020113Y-101348390D02*
X157020113Y-101729342D01*
X157020113Y-101729342D02*
X157058209Y-101824580D01*
X157058209Y-101824580D02*
X157096304Y-101872200D01*
X157096304Y-101872200D02*
X157172494Y-101919819D01*
X157172494Y-101919819D02*
X157324875Y-101919819D01*
X157324875Y-101919819D02*
X157401066Y-101872200D01*
X157401066Y-101872200D02*
X157439161Y-101824580D01*
X157439161Y-101824580D02*
X157477256Y-101729342D01*
X157477256Y-101729342D02*
X157477256Y-101491247D01*
X157477256Y-101491247D02*
X157439161Y-101396009D01*
X157439161Y-101396009D02*
X157401066Y-101348390D01*
X157401066Y-101348390D02*
X157324875Y-101300771D01*
X157324875Y-101300771D02*
X157172494Y-101300771D01*
X157172494Y-101300771D02*
X157096304Y-101348390D01*
X157096304Y-101348390D02*
X157058209Y-101396009D01*
X157058209Y-101396009D02*
X157020113Y-101491247D01*
X160067733Y-100967438D02*
X159991543Y-100919819D01*
X159991543Y-100919819D02*
X159877257Y-100919819D01*
X159877257Y-100919819D02*
X159762971Y-100967438D01*
X159762971Y-100967438D02*
X159686781Y-101062676D01*
X159686781Y-101062676D02*
X159648686Y-101157914D01*
X159648686Y-101157914D02*
X159610590Y-101348390D01*
X159610590Y-101348390D02*
X159610590Y-101491247D01*
X159610590Y-101491247D02*
X159648686Y-101681723D01*
X159648686Y-101681723D02*
X159686781Y-101776961D01*
X159686781Y-101776961D02*
X159762971Y-101872200D01*
X159762971Y-101872200D02*
X159877257Y-101919819D01*
X159877257Y-101919819D02*
X159953448Y-101919819D01*
X159953448Y-101919819D02*
X160067733Y-101872200D01*
X160067733Y-101872200D02*
X160105829Y-101824580D01*
X160105829Y-101824580D02*
X160105829Y-101491247D01*
X160105829Y-101491247D02*
X159953448Y-101491247D01*
X160448686Y-101919819D02*
X160448686Y-100919819D01*
X160448686Y-100919819D02*
X160905829Y-101919819D01*
X160905829Y-101919819D02*
X160905829Y-100919819D01*
X161286781Y-101919819D02*
X161286781Y-100919819D01*
X161286781Y-100919819D02*
X161477257Y-100919819D01*
X161477257Y-100919819D02*
X161591543Y-100967438D01*
X161591543Y-100967438D02*
X161667733Y-101062676D01*
X161667733Y-101062676D02*
X161705828Y-101157914D01*
X161705828Y-101157914D02*
X161743924Y-101348390D01*
X161743924Y-101348390D02*
X161743924Y-101491247D01*
X161743924Y-101491247D02*
X161705828Y-101681723D01*
X161705828Y-101681723D02*
X161667733Y-101776961D01*
X161667733Y-101776961D02*
X161591543Y-101872200D01*
X161591543Y-101872200D02*
X161477257Y-101919819D01*
X161477257Y-101919819D02*
X161286781Y-101919819D01*
X163115352Y-100967438D02*
X163039162Y-100919819D01*
X163039162Y-100919819D02*
X162924876Y-100919819D01*
X162924876Y-100919819D02*
X162810590Y-100967438D01*
X162810590Y-100967438D02*
X162734400Y-101062676D01*
X162734400Y-101062676D02*
X162696305Y-101157914D01*
X162696305Y-101157914D02*
X162658209Y-101348390D01*
X162658209Y-101348390D02*
X162658209Y-101491247D01*
X162658209Y-101491247D02*
X162696305Y-101681723D01*
X162696305Y-101681723D02*
X162734400Y-101776961D01*
X162734400Y-101776961D02*
X162810590Y-101872200D01*
X162810590Y-101872200D02*
X162924876Y-101919819D01*
X162924876Y-101919819D02*
X163001067Y-101919819D01*
X163001067Y-101919819D02*
X163115352Y-101872200D01*
X163115352Y-101872200D02*
X163153448Y-101824580D01*
X163153448Y-101824580D02*
X163153448Y-101491247D01*
X163153448Y-101491247D02*
X163001067Y-101491247D01*
X163496305Y-101919819D02*
X163496305Y-100919819D01*
X163496305Y-100919819D02*
X163801067Y-100919819D01*
X163801067Y-100919819D02*
X163877257Y-100967438D01*
X163877257Y-100967438D02*
X163915352Y-101015057D01*
X163915352Y-101015057D02*
X163953448Y-101110295D01*
X163953448Y-101110295D02*
X163953448Y-101253152D01*
X163953448Y-101253152D02*
X163915352Y-101348390D01*
X163915352Y-101348390D02*
X163877257Y-101396009D01*
X163877257Y-101396009D02*
X163801067Y-101443628D01*
X163801067Y-101443628D02*
X163496305Y-101443628D01*
X164296305Y-101919819D02*
X164296305Y-100919819D01*
X164829638Y-100919819D02*
X164982019Y-100919819D01*
X164982019Y-100919819D02*
X165058209Y-100967438D01*
X165058209Y-100967438D02*
X165134400Y-101062676D01*
X165134400Y-101062676D02*
X165172495Y-101253152D01*
X165172495Y-101253152D02*
X165172495Y-101586485D01*
X165172495Y-101586485D02*
X165134400Y-101776961D01*
X165134400Y-101776961D02*
X165058209Y-101872200D01*
X165058209Y-101872200D02*
X164982019Y-101919819D01*
X164982019Y-101919819D02*
X164829638Y-101919819D01*
X164829638Y-101919819D02*
X164753447Y-101872200D01*
X164753447Y-101872200D02*
X164677257Y-101776961D01*
X164677257Y-101776961D02*
X164639161Y-101586485D01*
X164639161Y-101586485D02*
X164639161Y-101253152D01*
X164639161Y-101253152D02*
X164677257Y-101062676D01*
X164677257Y-101062676D02*
X164753447Y-100967438D01*
X164753447Y-100967438D02*
X164829638Y-100919819D01*
X165858209Y-100919819D02*
X165705828Y-100919819D01*
X165705828Y-100919819D02*
X165629637Y-100967438D01*
X165629637Y-100967438D02*
X165591542Y-101015057D01*
X165591542Y-101015057D02*
X165515352Y-101157914D01*
X165515352Y-101157914D02*
X165477256Y-101348390D01*
X165477256Y-101348390D02*
X165477256Y-101729342D01*
X165477256Y-101729342D02*
X165515352Y-101824580D01*
X165515352Y-101824580D02*
X165553447Y-101872200D01*
X165553447Y-101872200D02*
X165629637Y-101919819D01*
X165629637Y-101919819D02*
X165782018Y-101919819D01*
X165782018Y-101919819D02*
X165858209Y-101872200D01*
X165858209Y-101872200D02*
X165896304Y-101824580D01*
X165896304Y-101824580D02*
X165934399Y-101729342D01*
X165934399Y-101729342D02*
X165934399Y-101491247D01*
X165934399Y-101491247D02*
X165896304Y-101396009D01*
X165896304Y-101396009D02*
X165858209Y-101348390D01*
X165858209Y-101348390D02*
X165782018Y-101300771D01*
X165782018Y-101300771D02*
X165629637Y-101300771D01*
X165629637Y-101300771D02*
X165553447Y-101348390D01*
X165553447Y-101348390D02*
X165515352Y-101396009D01*
X165515352Y-101396009D02*
X165477256Y-101491247D01*
X139938095Y-91506819D02*
X140509523Y-91506819D01*
X140223809Y-92506819D02*
X140223809Y-91506819D01*
X140842857Y-92506819D02*
X140842857Y-91506819D01*
X140842857Y-91506819D02*
X141223809Y-91506819D01*
X141223809Y-91506819D02*
X141319047Y-91554438D01*
X141319047Y-91554438D02*
X141366666Y-91602057D01*
X141366666Y-91602057D02*
X141414285Y-91697295D01*
X141414285Y-91697295D02*
X141414285Y-91840152D01*
X141414285Y-91840152D02*
X141366666Y-91935390D01*
X141366666Y-91935390D02*
X141319047Y-91983009D01*
X141319047Y-91983009D02*
X141223809Y-92030628D01*
X141223809Y-92030628D02*
X140842857Y-92030628D01*
X141747619Y-91506819D02*
X142414285Y-91506819D01*
X142414285Y-91506819D02*
X141985714Y-92506819D01*
X138313095Y-86631819D02*
X138884523Y-86631819D01*
X138598809Y-87631819D02*
X138598809Y-86631819D01*
X139217857Y-87631819D02*
X139217857Y-86631819D01*
X139217857Y-86631819D02*
X139598809Y-86631819D01*
X139598809Y-86631819D02*
X139694047Y-86679438D01*
X139694047Y-86679438D02*
X139741666Y-86727057D01*
X139741666Y-86727057D02*
X139789285Y-86822295D01*
X139789285Y-86822295D02*
X139789285Y-86965152D01*
X139789285Y-86965152D02*
X139741666Y-87060390D01*
X139741666Y-87060390D02*
X139694047Y-87108009D01*
X139694047Y-87108009D02*
X139598809Y-87155628D01*
X139598809Y-87155628D02*
X139217857Y-87155628D01*
X140646428Y-86631819D02*
X140455952Y-86631819D01*
X140455952Y-86631819D02*
X140360714Y-86679438D01*
X140360714Y-86679438D02*
X140313095Y-86727057D01*
X140313095Y-86727057D02*
X140217857Y-86869914D01*
X140217857Y-86869914D02*
X140170238Y-87060390D01*
X140170238Y-87060390D02*
X140170238Y-87441342D01*
X140170238Y-87441342D02*
X140217857Y-87536580D01*
X140217857Y-87536580D02*
X140265476Y-87584200D01*
X140265476Y-87584200D02*
X140360714Y-87631819D01*
X140360714Y-87631819D02*
X140551190Y-87631819D01*
X140551190Y-87631819D02*
X140646428Y-87584200D01*
X140646428Y-87584200D02*
X140694047Y-87536580D01*
X140694047Y-87536580D02*
X140741666Y-87441342D01*
X140741666Y-87441342D02*
X140741666Y-87203247D01*
X140741666Y-87203247D02*
X140694047Y-87108009D01*
X140694047Y-87108009D02*
X140646428Y-87060390D01*
X140646428Y-87060390D02*
X140551190Y-87012771D01*
X140551190Y-87012771D02*
X140360714Y-87012771D01*
X140360714Y-87012771D02*
X140265476Y-87060390D01*
X140265476Y-87060390D02*
X140217857Y-87108009D01*
X140217857Y-87108009D02*
X140170238Y-87203247D01*
X169388095Y-65706819D02*
X169959523Y-65706819D01*
X169673809Y-66706819D02*
X169673809Y-65706819D01*
X170292857Y-66706819D02*
X170292857Y-65706819D01*
X170292857Y-65706819D02*
X170673809Y-65706819D01*
X170673809Y-65706819D02*
X170769047Y-65754438D01*
X170769047Y-65754438D02*
X170816666Y-65802057D01*
X170816666Y-65802057D02*
X170864285Y-65897295D01*
X170864285Y-65897295D02*
X170864285Y-66040152D01*
X170864285Y-66040152D02*
X170816666Y-66135390D01*
X170816666Y-66135390D02*
X170769047Y-66183009D01*
X170769047Y-66183009D02*
X170673809Y-66230628D01*
X170673809Y-66230628D02*
X170292857Y-66230628D01*
X171769047Y-65706819D02*
X171292857Y-65706819D01*
X171292857Y-65706819D02*
X171245238Y-66183009D01*
X171245238Y-66183009D02*
X171292857Y-66135390D01*
X171292857Y-66135390D02*
X171388095Y-66087771D01*
X171388095Y-66087771D02*
X171626190Y-66087771D01*
X171626190Y-66087771D02*
X171721428Y-66135390D01*
X171721428Y-66135390D02*
X171769047Y-66183009D01*
X171769047Y-66183009D02*
X171816666Y-66278247D01*
X171816666Y-66278247D02*
X171816666Y-66516342D01*
X171816666Y-66516342D02*
X171769047Y-66611580D01*
X171769047Y-66611580D02*
X171721428Y-66659200D01*
X171721428Y-66659200D02*
X171626190Y-66706819D01*
X171626190Y-66706819D02*
X171388095Y-66706819D01*
X171388095Y-66706819D02*
X171292857Y-66659200D01*
X171292857Y-66659200D02*
X171245238Y-66611580D01*
X132588095Y-97806819D02*
X133159523Y-97806819D01*
X132873809Y-98806819D02*
X132873809Y-97806819D01*
X133492857Y-98806819D02*
X133492857Y-97806819D01*
X133492857Y-97806819D02*
X133873809Y-97806819D01*
X133873809Y-97806819D02*
X133969047Y-97854438D01*
X133969047Y-97854438D02*
X134016666Y-97902057D01*
X134016666Y-97902057D02*
X134064285Y-97997295D01*
X134064285Y-97997295D02*
X134064285Y-98140152D01*
X134064285Y-98140152D02*
X134016666Y-98235390D01*
X134016666Y-98235390D02*
X133969047Y-98283009D01*
X133969047Y-98283009D02*
X133873809Y-98330628D01*
X133873809Y-98330628D02*
X133492857Y-98330628D01*
X134921428Y-98140152D02*
X134921428Y-98806819D01*
X134683333Y-97759200D02*
X134445238Y-98473485D01*
X134445238Y-98473485D02*
X135064285Y-98473485D01*
X137363095Y-66856819D02*
X137934523Y-66856819D01*
X137648809Y-67856819D02*
X137648809Y-66856819D01*
X138267857Y-67856819D02*
X138267857Y-66856819D01*
X138267857Y-66856819D02*
X138648809Y-66856819D01*
X138648809Y-66856819D02*
X138744047Y-66904438D01*
X138744047Y-66904438D02*
X138791666Y-66952057D01*
X138791666Y-66952057D02*
X138839285Y-67047295D01*
X138839285Y-67047295D02*
X138839285Y-67190152D01*
X138839285Y-67190152D02*
X138791666Y-67285390D01*
X138791666Y-67285390D02*
X138744047Y-67333009D01*
X138744047Y-67333009D02*
X138648809Y-67380628D01*
X138648809Y-67380628D02*
X138267857Y-67380628D01*
X139791666Y-67856819D02*
X139220238Y-67856819D01*
X139505952Y-67856819D02*
X139505952Y-66856819D01*
X139505952Y-66856819D02*
X139410714Y-66999676D01*
X139410714Y-66999676D02*
X139315476Y-67094914D01*
X139315476Y-67094914D02*
X139220238Y-67142533D01*
X167359819Y-67383333D02*
X168074104Y-67383333D01*
X168074104Y-67383333D02*
X168216961Y-67430952D01*
X168216961Y-67430952D02*
X168312200Y-67526190D01*
X168312200Y-67526190D02*
X168359819Y-67669047D01*
X168359819Y-67669047D02*
X168359819Y-67764285D01*
X168359819Y-66383333D02*
X168359819Y-66954761D01*
X168359819Y-66669047D02*
X167359819Y-66669047D01*
X167359819Y-66669047D02*
X167502676Y-66764285D01*
X167502676Y-66764285D02*
X167597914Y-66859523D01*
X167597914Y-66859523D02*
X167645533Y-66954761D01*
D12*
X148451667Y-74479318D02*
X148451667Y-75386461D01*
X148451667Y-75386461D02*
X148391190Y-75567889D01*
X148391190Y-75567889D02*
X148270238Y-75688842D01*
X148270238Y-75688842D02*
X148088809Y-75749318D01*
X148088809Y-75749318D02*
X147967857Y-75749318D01*
X149600714Y-74479318D02*
X149358809Y-74479318D01*
X149358809Y-74479318D02*
X149237857Y-74539794D01*
X149237857Y-74539794D02*
X149177381Y-74600270D01*
X149177381Y-74600270D02*
X149056428Y-74781699D01*
X149056428Y-74781699D02*
X148995952Y-75023603D01*
X148995952Y-75023603D02*
X148995952Y-75507413D01*
X148995952Y-75507413D02*
X149056428Y-75628365D01*
X149056428Y-75628365D02*
X149116905Y-75688842D01*
X149116905Y-75688842D02*
X149237857Y-75749318D01*
X149237857Y-75749318D02*
X149479762Y-75749318D01*
X149479762Y-75749318D02*
X149600714Y-75688842D01*
X149600714Y-75688842D02*
X149661190Y-75628365D01*
X149661190Y-75628365D02*
X149721667Y-75507413D01*
X149721667Y-75507413D02*
X149721667Y-75205032D01*
X149721667Y-75205032D02*
X149661190Y-75084080D01*
X149661190Y-75084080D02*
X149600714Y-75023603D01*
X149600714Y-75023603D02*
X149479762Y-74963127D01*
X149479762Y-74963127D02*
X149237857Y-74963127D01*
X149237857Y-74963127D02*
X149116905Y-75023603D01*
X149116905Y-75023603D02*
X149056428Y-75084080D01*
X149056428Y-75084080D02*
X148995952Y-75205032D01*
X134845681Y-70276667D02*
X133938538Y-70276667D01*
X133938538Y-70276667D02*
X133757110Y-70216190D01*
X133757110Y-70216190D02*
X133636158Y-70095238D01*
X133636158Y-70095238D02*
X133575681Y-69913809D01*
X133575681Y-69913809D02*
X133575681Y-69792857D01*
X134422348Y-71425714D02*
X133575681Y-71425714D01*
X134906158Y-71123333D02*
X133999015Y-70820952D01*
X133999015Y-70820952D02*
X133999015Y-71607143D01*
D13*
%TO.C,J2*%
X142870000Y-97170000D02*
X165790000Y-97170000D01*
X165790000Y-99830000D02*
X165790000Y-97170000D01*
X142870000Y-99830000D02*
X142870000Y-97170000D01*
X142870000Y-99830000D02*
X165790000Y-99830000D01*
X141600000Y-99830000D02*
X140270000Y-99830000D01*
X140270000Y-99830000D02*
X140270000Y-98500000D01*
%TO.C,TP7*%
X142650000Y-94200000D02*
G75*
G02*
X139750000Y-94200000I-1450000J0D01*
G01*
X139750000Y-94200000D02*
G75*
G02*
X142650000Y-94200000I1450000J0D01*
G01*
%TO.C,TP6*%
X141025000Y-89325000D02*
G75*
G02*
X138125000Y-89325000I-1450000J0D01*
G01*
X138125000Y-89325000D02*
G75*
G02*
X141025000Y-89325000I1450000J0D01*
G01*
%TO.C,TP5*%
X172100000Y-68400000D02*
G75*
G02*
X169200000Y-68400000I-1450000J0D01*
G01*
X169200000Y-68400000D02*
G75*
G02*
X172100000Y-68400000I1450000J0D01*
G01*
%TO.C,TP4*%
X135300000Y-100500000D02*
G75*
G02*
X132400000Y-100500000I-1450000J0D01*
G01*
X132400000Y-100500000D02*
G75*
G02*
X135300000Y-100500000I1450000J0D01*
G01*
%TO.C,TP1*%
X140075000Y-69550000D02*
G75*
G02*
X137175000Y-69550000I-1450000J0D01*
G01*
X137175000Y-69550000D02*
G75*
G02*
X140075000Y-69550000I1450000J0D01*
G01*
%TO.C,J1*%
X164305000Y-68380000D02*
X141385000Y-68380000D01*
X141385000Y-65720000D02*
X141385000Y-68380000D01*
X164305000Y-65720000D02*
X164305000Y-68380000D01*
X164305000Y-65720000D02*
X141385000Y-65720000D01*
X165575000Y-65720000D02*
X166905000Y-65720000D01*
X166905000Y-65720000D02*
X166905000Y-67050000D01*
D14*
%TO.C,J6*%
X151080000Y-76210000D02*
X151080000Y-73330000D01*
X151080000Y-73330000D02*
X151880000Y-73330000D01*
X151880000Y-76210000D02*
X151080000Y-76210000D01*
X172880000Y-76210000D02*
X173680000Y-76210000D01*
X173680000Y-76210000D02*
X173680000Y-73330000D01*
X173680000Y-73330000D02*
X172880000Y-73330000D01*
%TO.C,J4*%
X135810000Y-95080000D02*
X132930000Y-95080000D01*
X132930000Y-95080000D02*
X132930000Y-94280000D01*
X135810000Y-94280000D02*
X135810000Y-95080000D01*
X135810000Y-73280000D02*
X135810000Y-72480000D01*
X135810000Y-72480000D02*
X132930000Y-72480000D01*
X132930000Y-72480000D02*
X132930000Y-73280000D01*
%TD*%
M02*
