%TF.GenerationSoftware,KiCad,Pcbnew,8.0.2-8.0.2-0~ubuntu20.04.1*%
%TF.CreationDate,2024-06-01T01:08:57-05:00*%
%TF.ProjectId,coral_b2b_breakout,636f7261-6c5f-4623-9262-5f627265616b,rev?*%
%TF.SameCoordinates,Original*%
%TF.FileFunction,Paste,Top*%
%TF.FilePolarity,Positive*%
%FSLAX46Y46*%
G04 Gerber Fmt 4.6, Leading zero omitted, Abs format (unit mm)*
G04 Created by KiCad (PCBNEW 8.0.2-8.0.2-0~ubuntu20.04.1) date 2024-06-01 01:08:57*
%MOMM*%
%LPD*%
G01*
G04 APERTURE LIST*
%ADD10R,0.200000X0.700000*%
%ADD11R,0.700000X0.200000*%
G04 APERTURE END LIST*
D10*
%TO.C,J6*%
X152580000Y-73230000D03*
X152580000Y-76310000D03*
X152980000Y-73230000D03*
X152980000Y-76310000D03*
X153380000Y-73230000D03*
X153380000Y-76310000D03*
X153780000Y-73230000D03*
X153780000Y-76310000D03*
X154180000Y-73230000D03*
X154180000Y-76310000D03*
X154580000Y-73230000D03*
X154580000Y-76310000D03*
X154980000Y-73230000D03*
X154980000Y-76310000D03*
X155380000Y-73230000D03*
X155380000Y-76310000D03*
X155780000Y-73230000D03*
X155780000Y-76310000D03*
X156180000Y-73230000D03*
X156180000Y-76310000D03*
X156580000Y-73230000D03*
X156580000Y-76310000D03*
X156980000Y-73230000D03*
X156980000Y-76310000D03*
X157380000Y-73230000D03*
X157380000Y-76310000D03*
X157780000Y-73230000D03*
X157780000Y-76310000D03*
X158180000Y-73230000D03*
X158180000Y-76310000D03*
X158580000Y-73230000D03*
X158580000Y-76310000D03*
X158980000Y-73230000D03*
X158980000Y-76310000D03*
X159380000Y-73230000D03*
X159380000Y-76310000D03*
X159780000Y-73230000D03*
X159780000Y-76310000D03*
X160180000Y-73230000D03*
X160180000Y-76310000D03*
X160580000Y-73230000D03*
X160580000Y-76310000D03*
X160980000Y-73230000D03*
X160980000Y-76310000D03*
X161380000Y-73230000D03*
X161380000Y-76310000D03*
X161780000Y-73230000D03*
X161780000Y-76310000D03*
X162180000Y-73230000D03*
X162180000Y-76310000D03*
X162580000Y-73230000D03*
X162580000Y-76310000D03*
X162980000Y-73230000D03*
X162980000Y-76310000D03*
X163380000Y-73230000D03*
X163380000Y-76310000D03*
X163780000Y-73230000D03*
X163780000Y-76310000D03*
X164180000Y-73230000D03*
X164180000Y-76310000D03*
X164580000Y-73230000D03*
X164580000Y-76310000D03*
X164980000Y-73230000D03*
X164980000Y-76310000D03*
X165380000Y-73230000D03*
X165380000Y-76310000D03*
X165780000Y-73230000D03*
X165780000Y-76310000D03*
X166180000Y-73230000D03*
X166180000Y-76310000D03*
X166580000Y-73230000D03*
X166580000Y-76310000D03*
X166980000Y-73230000D03*
X166980000Y-76310000D03*
X167380000Y-73230000D03*
X167380000Y-76310000D03*
X167780000Y-73230000D03*
X167780000Y-76310000D03*
X168180000Y-73230000D03*
X168180000Y-76310000D03*
X168580000Y-73230000D03*
X168580000Y-76310000D03*
X168980000Y-73230000D03*
X168980000Y-76310000D03*
X169380000Y-73230000D03*
X169380000Y-76310000D03*
X169780000Y-73230000D03*
X169780000Y-76310000D03*
X170180000Y-73230000D03*
X170180000Y-76310000D03*
X170580000Y-73230000D03*
X170580000Y-76310000D03*
X170980000Y-73230000D03*
X170980000Y-76310000D03*
X171380000Y-73230000D03*
X171380000Y-76310000D03*
X171780000Y-73230000D03*
X171780000Y-76310000D03*
X172180000Y-73230000D03*
X172180000Y-76310000D03*
%TD*%
D11*
%TO.C,J4*%
X132830000Y-93580000D03*
X135910000Y-93580000D03*
X132830000Y-93180000D03*
X135910000Y-93180000D03*
X132830000Y-92780000D03*
X135910000Y-92780000D03*
X132830000Y-92380000D03*
X135910000Y-92380000D03*
X132830000Y-91980000D03*
X135910000Y-91980000D03*
X132830000Y-91580000D03*
X135910000Y-91580000D03*
X132830000Y-91180000D03*
X135910000Y-91180000D03*
X132830000Y-90780000D03*
X135910000Y-90780000D03*
X132830000Y-90380000D03*
X135910000Y-90380000D03*
X132830000Y-89980000D03*
X135910000Y-89980000D03*
X132830000Y-89580000D03*
X135910000Y-89580000D03*
X132830000Y-89180000D03*
X135910000Y-89180000D03*
X132830000Y-88780000D03*
X135910000Y-88780000D03*
X132830000Y-88380000D03*
X135910000Y-88380000D03*
X132830000Y-87980000D03*
X135910000Y-87980000D03*
X132830000Y-87580000D03*
X135910000Y-87580000D03*
X132830000Y-87180000D03*
X135910000Y-87180000D03*
X132830000Y-86780000D03*
X135910000Y-86780000D03*
X132830000Y-86380000D03*
X135910000Y-86380000D03*
X132830000Y-85980000D03*
X135910000Y-85980000D03*
X132830000Y-85580000D03*
X135910000Y-85580000D03*
X132830000Y-85180000D03*
X135910000Y-85180000D03*
X132830000Y-84780000D03*
X135910000Y-84780000D03*
X132830000Y-84380000D03*
X135910000Y-84380000D03*
X132830000Y-83980000D03*
X135910000Y-83980000D03*
X132830000Y-83580000D03*
X135910000Y-83580000D03*
X132830000Y-83180000D03*
X135910000Y-83180000D03*
X132830000Y-82780000D03*
X135910000Y-82780000D03*
X132830000Y-82380000D03*
X135910000Y-82380000D03*
X132830000Y-81980000D03*
X135910000Y-81980000D03*
X132830000Y-81580000D03*
X135910000Y-81580000D03*
X132830000Y-81180000D03*
X135910000Y-81180000D03*
X132830000Y-80780000D03*
X135910000Y-80780000D03*
X132830000Y-80380000D03*
X135910000Y-80380000D03*
X132830000Y-79980000D03*
X135910000Y-79980000D03*
X132830000Y-79580000D03*
X135910000Y-79580000D03*
X132830000Y-79180000D03*
X135910000Y-79180000D03*
X132830000Y-78780000D03*
X135910000Y-78780000D03*
X132830000Y-78380000D03*
X135910000Y-78380000D03*
X132830000Y-77980000D03*
X135910000Y-77980000D03*
X132830000Y-77580000D03*
X135910000Y-77580000D03*
X132830000Y-77180000D03*
X135910000Y-77180000D03*
X132830000Y-76780000D03*
X135910000Y-76780000D03*
X132830000Y-76380000D03*
X135910000Y-76380000D03*
X132830000Y-75980000D03*
X135910000Y-75980000D03*
X132830000Y-75580000D03*
X135910000Y-75580000D03*
X132830000Y-75180000D03*
X135910000Y-75180000D03*
X132830000Y-74780000D03*
X135910000Y-74780000D03*
X132830000Y-74380000D03*
X135910000Y-74380000D03*
X132830000Y-73980000D03*
X135910000Y-73980000D03*
%TD*%
M02*
