%TF.GenerationSoftware,KiCad,Pcbnew,8.0.2-8.0.2-0~ubuntu20.04.1*%
%TF.CreationDate,2024-06-01T01:08:57-05:00*%
%TF.ProjectId,coral_b2b_breakout,636f7261-6c5f-4623-9262-5f627265616b,rev?*%
%TF.SameCoordinates,Original*%
%TF.FileFunction,Legend,Bot*%
%TF.FilePolarity,Positive*%
%FSLAX46Y46*%
G04 Gerber Fmt 4.6, Leading zero omitted, Abs format (unit mm)*
G04 Created by KiCad (PCBNEW 8.0.2-8.0.2-0~ubuntu20.04.1) date 2024-06-01 01:08:57*
%MOMM*%
%LPD*%
G01*
G04 APERTURE LIST*
%ADD10C,0.150000*%
G04 APERTURE END LIST*
D10*
X166166792Y-90004692D02*
X166214411Y-90052312D01*
X166214411Y-90052312D02*
X166357268Y-90099931D01*
X166357268Y-90099931D02*
X166452506Y-90099931D01*
X166452506Y-90099931D02*
X166595363Y-90052312D01*
X166595363Y-90052312D02*
X166690601Y-89957073D01*
X166690601Y-89957073D02*
X166738220Y-89861835D01*
X166738220Y-89861835D02*
X166785839Y-89671359D01*
X166785839Y-89671359D02*
X166785839Y-89528502D01*
X166785839Y-89528502D02*
X166738220Y-89338026D01*
X166738220Y-89338026D02*
X166690601Y-89242788D01*
X166690601Y-89242788D02*
X166595363Y-89147550D01*
X166595363Y-89147550D02*
X166452506Y-89099931D01*
X166452506Y-89099931D02*
X166357268Y-89099931D01*
X166357268Y-89099931D02*
X166214411Y-89147550D01*
X166214411Y-89147550D02*
X166166792Y-89195169D01*
X165547744Y-89099931D02*
X165357268Y-89099931D01*
X165357268Y-89099931D02*
X165262030Y-89147550D01*
X165262030Y-89147550D02*
X165166792Y-89242788D01*
X165166792Y-89242788D02*
X165119173Y-89433264D01*
X165119173Y-89433264D02*
X165119173Y-89766597D01*
X165119173Y-89766597D02*
X165166792Y-89957073D01*
X165166792Y-89957073D02*
X165262030Y-90052312D01*
X165262030Y-90052312D02*
X165357268Y-90099931D01*
X165357268Y-90099931D02*
X165547744Y-90099931D01*
X165547744Y-90099931D02*
X165642982Y-90052312D01*
X165642982Y-90052312D02*
X165738220Y-89957073D01*
X165738220Y-89957073D02*
X165785839Y-89766597D01*
X165785839Y-89766597D02*
X165785839Y-89433264D01*
X165785839Y-89433264D02*
X165738220Y-89242788D01*
X165738220Y-89242788D02*
X165642982Y-89147550D01*
X165642982Y-89147550D02*
X165547744Y-89099931D01*
X164119173Y-90099931D02*
X164452506Y-89623740D01*
X164690601Y-90099931D02*
X164690601Y-89099931D01*
X164690601Y-89099931D02*
X164309649Y-89099931D01*
X164309649Y-89099931D02*
X164214411Y-89147550D01*
X164214411Y-89147550D02*
X164166792Y-89195169D01*
X164166792Y-89195169D02*
X164119173Y-89290407D01*
X164119173Y-89290407D02*
X164119173Y-89433264D01*
X164119173Y-89433264D02*
X164166792Y-89528502D01*
X164166792Y-89528502D02*
X164214411Y-89576121D01*
X164214411Y-89576121D02*
X164309649Y-89623740D01*
X164309649Y-89623740D02*
X164690601Y-89623740D01*
X163738220Y-89814216D02*
X163262030Y-89814216D01*
X163833458Y-90099931D02*
X163500125Y-89099931D01*
X163500125Y-89099931D02*
X163166792Y-90099931D01*
X162357268Y-90099931D02*
X162833458Y-90099931D01*
X162833458Y-90099931D02*
X162833458Y-89099931D01*
X161262029Y-90099931D02*
X161262029Y-89099931D01*
X161262029Y-89099931D02*
X160928696Y-89814216D01*
X160928696Y-89814216D02*
X160595363Y-89099931D01*
X160595363Y-89099931D02*
X160595363Y-90099931D01*
X160119172Y-90099931D02*
X160119172Y-89099931D01*
X159071554Y-90004692D02*
X159119173Y-90052312D01*
X159119173Y-90052312D02*
X159262030Y-90099931D01*
X159262030Y-90099931D02*
X159357268Y-90099931D01*
X159357268Y-90099931D02*
X159500125Y-90052312D01*
X159500125Y-90052312D02*
X159595363Y-89957073D01*
X159595363Y-89957073D02*
X159642982Y-89861835D01*
X159642982Y-89861835D02*
X159690601Y-89671359D01*
X159690601Y-89671359D02*
X159690601Y-89528502D01*
X159690601Y-89528502D02*
X159642982Y-89338026D01*
X159642982Y-89338026D02*
X159595363Y-89242788D01*
X159595363Y-89242788D02*
X159500125Y-89147550D01*
X159500125Y-89147550D02*
X159357268Y-89099931D01*
X159357268Y-89099931D02*
X159262030Y-89099931D01*
X159262030Y-89099931D02*
X159119173Y-89147550D01*
X159119173Y-89147550D02*
X159071554Y-89195169D01*
X158071554Y-90099931D02*
X158404887Y-89623740D01*
X158642982Y-90099931D02*
X158642982Y-89099931D01*
X158642982Y-89099931D02*
X158262030Y-89099931D01*
X158262030Y-89099931D02*
X158166792Y-89147550D01*
X158166792Y-89147550D02*
X158119173Y-89195169D01*
X158119173Y-89195169D02*
X158071554Y-89290407D01*
X158071554Y-89290407D02*
X158071554Y-89433264D01*
X158071554Y-89433264D02*
X158119173Y-89528502D01*
X158119173Y-89528502D02*
X158166792Y-89576121D01*
X158166792Y-89576121D02*
X158262030Y-89623740D01*
X158262030Y-89623740D02*
X158642982Y-89623740D01*
X157452506Y-89099931D02*
X157262030Y-89099931D01*
X157262030Y-89099931D02*
X157166792Y-89147550D01*
X157166792Y-89147550D02*
X157071554Y-89242788D01*
X157071554Y-89242788D02*
X157023935Y-89433264D01*
X157023935Y-89433264D02*
X157023935Y-89766597D01*
X157023935Y-89766597D02*
X157071554Y-89957073D01*
X157071554Y-89957073D02*
X157166792Y-90052312D01*
X157166792Y-90052312D02*
X157262030Y-90099931D01*
X157262030Y-90099931D02*
X157452506Y-90099931D01*
X157452506Y-90099931D02*
X157547744Y-90052312D01*
X157547744Y-90052312D02*
X157642982Y-89957073D01*
X157642982Y-89957073D02*
X157690601Y-89766597D01*
X157690601Y-89766597D02*
X157690601Y-89433264D01*
X157690601Y-89433264D02*
X157642982Y-89242788D01*
X157642982Y-89242788D02*
X157547744Y-89147550D01*
X157547744Y-89147550D02*
X157452506Y-89099931D01*
X155881077Y-89814216D02*
X155404887Y-89814216D01*
X155976315Y-90099931D02*
X155642982Y-89099931D01*
X155642982Y-89099931D02*
X155309649Y-90099931D01*
X154976315Y-90099931D02*
X154976315Y-89099931D01*
X154976315Y-89099931D02*
X154738220Y-89099931D01*
X154738220Y-89099931D02*
X154595363Y-89147550D01*
X154595363Y-89147550D02*
X154500125Y-89242788D01*
X154500125Y-89242788D02*
X154452506Y-89338026D01*
X154452506Y-89338026D02*
X154404887Y-89528502D01*
X154404887Y-89528502D02*
X154404887Y-89671359D01*
X154404887Y-89671359D02*
X154452506Y-89861835D01*
X154452506Y-89861835D02*
X154500125Y-89957073D01*
X154500125Y-89957073D02*
X154595363Y-90052312D01*
X154595363Y-90052312D02*
X154738220Y-90099931D01*
X154738220Y-90099931D02*
X154976315Y-90099931D01*
X153976315Y-90099931D02*
X153976315Y-89099931D01*
X153976315Y-89099931D02*
X153738220Y-89099931D01*
X153738220Y-89099931D02*
X153595363Y-89147550D01*
X153595363Y-89147550D02*
X153500125Y-89242788D01*
X153500125Y-89242788D02*
X153452506Y-89338026D01*
X153452506Y-89338026D02*
X153404887Y-89528502D01*
X153404887Y-89528502D02*
X153404887Y-89671359D01*
X153404887Y-89671359D02*
X153452506Y-89861835D01*
X153452506Y-89861835D02*
X153500125Y-89957073D01*
X153500125Y-89957073D02*
X153595363Y-90052312D01*
X153595363Y-90052312D02*
X153738220Y-90099931D01*
X153738220Y-90099931D02*
X153976315Y-90099931D01*
X152023934Y-89099931D02*
X151833458Y-89099931D01*
X151833458Y-89099931D02*
X151738220Y-89147550D01*
X151738220Y-89147550D02*
X151642982Y-89242788D01*
X151642982Y-89242788D02*
X151595363Y-89433264D01*
X151595363Y-89433264D02*
X151595363Y-89766597D01*
X151595363Y-89766597D02*
X151642982Y-89957073D01*
X151642982Y-89957073D02*
X151738220Y-90052312D01*
X151738220Y-90052312D02*
X151833458Y-90099931D01*
X151833458Y-90099931D02*
X152023934Y-90099931D01*
X152023934Y-90099931D02*
X152119172Y-90052312D01*
X152119172Y-90052312D02*
X152214410Y-89957073D01*
X152214410Y-89957073D02*
X152262029Y-89766597D01*
X152262029Y-89766597D02*
X152262029Y-89433264D01*
X152262029Y-89433264D02*
X152214410Y-89242788D01*
X152214410Y-89242788D02*
X152119172Y-89147550D01*
X152119172Y-89147550D02*
X152023934Y-89099931D01*
X151166791Y-90099931D02*
X151166791Y-89099931D01*
X151166791Y-89099931D02*
X150595363Y-90099931D01*
X150595363Y-90099931D02*
X150595363Y-89099931D01*
X149023934Y-89576121D02*
X148881077Y-89623740D01*
X148881077Y-89623740D02*
X148833458Y-89671359D01*
X148833458Y-89671359D02*
X148785839Y-89766597D01*
X148785839Y-89766597D02*
X148785839Y-89909454D01*
X148785839Y-89909454D02*
X148833458Y-90004692D01*
X148833458Y-90004692D02*
X148881077Y-90052312D01*
X148881077Y-90052312D02*
X148976315Y-90099931D01*
X148976315Y-90099931D02*
X149357267Y-90099931D01*
X149357267Y-90099931D02*
X149357267Y-89099931D01*
X149357267Y-89099931D02*
X149023934Y-89099931D01*
X149023934Y-89099931D02*
X148928696Y-89147550D01*
X148928696Y-89147550D02*
X148881077Y-89195169D01*
X148881077Y-89195169D02*
X148833458Y-89290407D01*
X148833458Y-89290407D02*
X148833458Y-89385645D01*
X148833458Y-89385645D02*
X148881077Y-89480883D01*
X148881077Y-89480883D02*
X148928696Y-89528502D01*
X148928696Y-89528502D02*
X149023934Y-89576121D01*
X149023934Y-89576121D02*
X149357267Y-89576121D01*
X147785839Y-90099931D02*
X148119172Y-89623740D01*
X148357267Y-90099931D02*
X148357267Y-89099931D01*
X148357267Y-89099931D02*
X147976315Y-89099931D01*
X147976315Y-89099931D02*
X147881077Y-89147550D01*
X147881077Y-89147550D02*
X147833458Y-89195169D01*
X147833458Y-89195169D02*
X147785839Y-89290407D01*
X147785839Y-89290407D02*
X147785839Y-89433264D01*
X147785839Y-89433264D02*
X147833458Y-89528502D01*
X147833458Y-89528502D02*
X147881077Y-89576121D01*
X147881077Y-89576121D02*
X147976315Y-89623740D01*
X147976315Y-89623740D02*
X148357267Y-89623740D01*
X147357267Y-89576121D02*
X147023934Y-89576121D01*
X146881077Y-90099931D02*
X147357267Y-90099931D01*
X147357267Y-90099931D02*
X147357267Y-89099931D01*
X147357267Y-89099931D02*
X146881077Y-89099931D01*
X146500124Y-89814216D02*
X146023934Y-89814216D01*
X146595362Y-90099931D02*
X146262029Y-89099931D01*
X146262029Y-89099931D02*
X145928696Y-90099931D01*
X145595362Y-90099931D02*
X145595362Y-89099931D01*
X145023934Y-90099931D02*
X145452505Y-89528502D01*
X145023934Y-89099931D02*
X145595362Y-89671359D01*
X144404886Y-89099931D02*
X144214410Y-89099931D01*
X144214410Y-89099931D02*
X144119172Y-89147550D01*
X144119172Y-89147550D02*
X144023934Y-89242788D01*
X144023934Y-89242788D02*
X143976315Y-89433264D01*
X143976315Y-89433264D02*
X143976315Y-89766597D01*
X143976315Y-89766597D02*
X144023934Y-89957073D01*
X144023934Y-89957073D02*
X144119172Y-90052312D01*
X144119172Y-90052312D02*
X144214410Y-90099931D01*
X144214410Y-90099931D02*
X144404886Y-90099931D01*
X144404886Y-90099931D02*
X144500124Y-90052312D01*
X144500124Y-90052312D02*
X144595362Y-89957073D01*
X144595362Y-89957073D02*
X144642981Y-89766597D01*
X144642981Y-89766597D02*
X144642981Y-89433264D01*
X144642981Y-89433264D02*
X144595362Y-89242788D01*
X144595362Y-89242788D02*
X144500124Y-89147550D01*
X144500124Y-89147550D02*
X144404886Y-89099931D01*
X143547743Y-89099931D02*
X143547743Y-89909454D01*
X143547743Y-89909454D02*
X143500124Y-90004692D01*
X143500124Y-90004692D02*
X143452505Y-90052312D01*
X143452505Y-90052312D02*
X143357267Y-90099931D01*
X143357267Y-90099931D02*
X143166791Y-90099931D01*
X143166791Y-90099931D02*
X143071553Y-90052312D01*
X143071553Y-90052312D02*
X143023934Y-90004692D01*
X143023934Y-90004692D02*
X142976315Y-89909454D01*
X142976315Y-89909454D02*
X142976315Y-89099931D01*
X142642981Y-89099931D02*
X142071553Y-89099931D01*
X142357267Y-90099931D02*
X142357267Y-89099931D01*
X166166792Y-91709875D02*
X166500125Y-91233684D01*
X166738220Y-91709875D02*
X166738220Y-90709875D01*
X166738220Y-90709875D02*
X166357268Y-90709875D01*
X166357268Y-90709875D02*
X166262030Y-90757494D01*
X166262030Y-90757494D02*
X166214411Y-90805113D01*
X166214411Y-90805113D02*
X166166792Y-90900351D01*
X166166792Y-90900351D02*
X166166792Y-91043208D01*
X166166792Y-91043208D02*
X166214411Y-91138446D01*
X166214411Y-91138446D02*
X166262030Y-91186065D01*
X166262030Y-91186065D02*
X166357268Y-91233684D01*
X166357268Y-91233684D02*
X166738220Y-91233684D01*
X165738220Y-91186065D02*
X165404887Y-91186065D01*
X165262030Y-91709875D02*
X165738220Y-91709875D01*
X165738220Y-91709875D02*
X165738220Y-90709875D01*
X165738220Y-90709875D02*
X165262030Y-90709875D01*
X164976315Y-90709875D02*
X164642982Y-91709875D01*
X164642982Y-91709875D02*
X164309649Y-90709875D01*
X163023934Y-90709875D02*
X162928696Y-90709875D01*
X162928696Y-90709875D02*
X162833458Y-90757494D01*
X162833458Y-90757494D02*
X162785839Y-90805113D01*
X162785839Y-90805113D02*
X162738220Y-90900351D01*
X162738220Y-90900351D02*
X162690601Y-91090827D01*
X162690601Y-91090827D02*
X162690601Y-91328922D01*
X162690601Y-91328922D02*
X162738220Y-91519398D01*
X162738220Y-91519398D02*
X162785839Y-91614636D01*
X162785839Y-91614636D02*
X162833458Y-91662256D01*
X162833458Y-91662256D02*
X162928696Y-91709875D01*
X162928696Y-91709875D02*
X163023934Y-91709875D01*
X163023934Y-91709875D02*
X163119172Y-91662256D01*
X163119172Y-91662256D02*
X163166791Y-91614636D01*
X163166791Y-91614636D02*
X163214410Y-91519398D01*
X163214410Y-91519398D02*
X163262029Y-91328922D01*
X163262029Y-91328922D02*
X163262029Y-91090827D01*
X163262029Y-91090827D02*
X163214410Y-90900351D01*
X163214410Y-90900351D02*
X163166791Y-90805113D01*
X163166791Y-90805113D02*
X163119172Y-90757494D01*
X163119172Y-90757494D02*
X163023934Y-90709875D01*
X162262029Y-91614636D02*
X162214410Y-91662256D01*
X162214410Y-91662256D02*
X162262029Y-91709875D01*
X162262029Y-91709875D02*
X162309648Y-91662256D01*
X162309648Y-91662256D02*
X162262029Y-91614636D01*
X162262029Y-91614636D02*
X162262029Y-91709875D01*
X161595363Y-90709875D02*
X161500125Y-90709875D01*
X161500125Y-90709875D02*
X161404887Y-90757494D01*
X161404887Y-90757494D02*
X161357268Y-90805113D01*
X161357268Y-90805113D02*
X161309649Y-90900351D01*
X161309649Y-90900351D02*
X161262030Y-91090827D01*
X161262030Y-91090827D02*
X161262030Y-91328922D01*
X161262030Y-91328922D02*
X161309649Y-91519398D01*
X161309649Y-91519398D02*
X161357268Y-91614636D01*
X161357268Y-91614636D02*
X161404887Y-91662256D01*
X161404887Y-91662256D02*
X161500125Y-91709875D01*
X161500125Y-91709875D02*
X161595363Y-91709875D01*
X161595363Y-91709875D02*
X161690601Y-91662256D01*
X161690601Y-91662256D02*
X161738220Y-91614636D01*
X161738220Y-91614636D02*
X161785839Y-91519398D01*
X161785839Y-91519398D02*
X161833458Y-91328922D01*
X161833458Y-91328922D02*
X161833458Y-91090827D01*
X161833458Y-91090827D02*
X161785839Y-90900351D01*
X161785839Y-90900351D02*
X161738220Y-90805113D01*
X161738220Y-90805113D02*
X161690601Y-90757494D01*
X161690601Y-90757494D02*
X161595363Y-90709875D01*
X160833458Y-91614636D02*
X160785839Y-91662256D01*
X160785839Y-91662256D02*
X160833458Y-91709875D01*
X160833458Y-91709875D02*
X160881077Y-91662256D01*
X160881077Y-91662256D02*
X160833458Y-91614636D01*
X160833458Y-91614636D02*
X160833458Y-91709875D01*
X160166792Y-90709875D02*
X160071554Y-90709875D01*
X160071554Y-90709875D02*
X159976316Y-90757494D01*
X159976316Y-90757494D02*
X159928697Y-90805113D01*
X159928697Y-90805113D02*
X159881078Y-90900351D01*
X159881078Y-90900351D02*
X159833459Y-91090827D01*
X159833459Y-91090827D02*
X159833459Y-91328922D01*
X159833459Y-91328922D02*
X159881078Y-91519398D01*
X159881078Y-91519398D02*
X159928697Y-91614636D01*
X159928697Y-91614636D02*
X159976316Y-91662256D01*
X159976316Y-91662256D02*
X160071554Y-91709875D01*
X160071554Y-91709875D02*
X160166792Y-91709875D01*
X160166792Y-91709875D02*
X160262030Y-91662256D01*
X160262030Y-91662256D02*
X160309649Y-91614636D01*
X160309649Y-91614636D02*
X160357268Y-91519398D01*
X160357268Y-91519398D02*
X160404887Y-91328922D01*
X160404887Y-91328922D02*
X160404887Y-91090827D01*
X160404887Y-91090827D02*
X160357268Y-90900351D01*
X160357268Y-90900351D02*
X160309649Y-90805113D01*
X160309649Y-90805113D02*
X160262030Y-90757494D01*
X160262030Y-90757494D02*
X160166792Y-90709875D01*
X166404887Y-92796009D02*
X166262030Y-92843628D01*
X166262030Y-92843628D02*
X166214411Y-92891247D01*
X166214411Y-92891247D02*
X166166792Y-92986485D01*
X166166792Y-92986485D02*
X166166792Y-93129342D01*
X166166792Y-93129342D02*
X166214411Y-93224580D01*
X166214411Y-93224580D02*
X166262030Y-93272200D01*
X166262030Y-93272200D02*
X166357268Y-93319819D01*
X166357268Y-93319819D02*
X166738220Y-93319819D01*
X166738220Y-93319819D02*
X166738220Y-92319819D01*
X166738220Y-92319819D02*
X166404887Y-92319819D01*
X166404887Y-92319819D02*
X166309649Y-92367438D01*
X166309649Y-92367438D02*
X166262030Y-92415057D01*
X166262030Y-92415057D02*
X166214411Y-92510295D01*
X166214411Y-92510295D02*
X166214411Y-92605533D01*
X166214411Y-92605533D02*
X166262030Y-92700771D01*
X166262030Y-92700771D02*
X166309649Y-92748390D01*
X166309649Y-92748390D02*
X166404887Y-92796009D01*
X166404887Y-92796009D02*
X166738220Y-92796009D01*
X165547744Y-92843628D02*
X165547744Y-93319819D01*
X165881077Y-92319819D02*
X165547744Y-92843628D01*
X165547744Y-92843628D02*
X165214411Y-92319819D01*
X163833458Y-92319819D02*
X163833458Y-93034104D01*
X163833458Y-93034104D02*
X163881077Y-93176961D01*
X163881077Y-93176961D02*
X163976315Y-93272200D01*
X163976315Y-93272200D02*
X164119172Y-93319819D01*
X164119172Y-93319819D02*
X164214410Y-93319819D01*
X162785839Y-93224580D02*
X162833458Y-93272200D01*
X162833458Y-93272200D02*
X162976315Y-93319819D01*
X162976315Y-93319819D02*
X163071553Y-93319819D01*
X163071553Y-93319819D02*
X163214410Y-93272200D01*
X163214410Y-93272200D02*
X163309648Y-93176961D01*
X163309648Y-93176961D02*
X163357267Y-93081723D01*
X163357267Y-93081723D02*
X163404886Y-92891247D01*
X163404886Y-92891247D02*
X163404886Y-92748390D01*
X163404886Y-92748390D02*
X163357267Y-92557914D01*
X163357267Y-92557914D02*
X163309648Y-92462676D01*
X163309648Y-92462676D02*
X163214410Y-92367438D01*
X163214410Y-92367438D02*
X163071553Y-92319819D01*
X163071553Y-92319819D02*
X162976315Y-92319819D01*
X162976315Y-92319819D02*
X162833458Y-92367438D01*
X162833458Y-92367438D02*
X162785839Y-92415057D01*
M02*
